<svg width="150" height="150" viewBox="0 0 150 150" fill="none" xmlns="http://www.w3.org/2000/svg">
<path fill-rule="evenodd" clip-rule="evenodd" d="M134.894 81.7681V81.1506C134.908 81.3555 134.908 81.5618 134.894 81.7681ZM56.4582 93.0679V93.1546C56.458 93.1257 56.458 93.0968 56.4582 93.0679Z" fill="white"/>
<path fill-rule="evenodd" clip-rule="evenodd" d="M134.894 81.7681V81.1506C134.908 81.3555 134.908 81.5618 134.894 81.7681ZM56.4582 93.0679V93.1546C56.458 93.1257 56.458 93.0968 56.4582 93.0679Z" fill="black"/>
<path fill-rule="evenodd" clip-rule="evenodd" d="M111.99 20.1746C111.049 19.8205 110.028 19.7314 109.04 19.9168L26.2975 35.4406C24.9711 35.6895 23.7826 36.4172 22.958 37.4854L13.7551 49.4067C12.9171 50.4922 12.557 51.7635 12.612 53V79.3495C12.7054 81.4478 13.9944 83.4458 16.1726 84.2651L55.4578 99.0404V119.417V119.5C55.4742 121.674 56.7794 123.774 59.0237 124.618L77.3645 131.516C79.6261 132.367 82.1779 131.642 83.6544 129.729L93.6372 116.798C94.8453 115.233 96.9331 114.64 98.7835 115.335L120.359 123.45C122.62 124.301 125.172 123.576 126.648 121.663L134.757 111.16C135.61 110.055 135.968 108.757 135.896 107.5V81.7727V81.1506C135.779 79.0766 134.494 77.112 132.339 76.3014L126.573 74.1327L135.263 62.8765C136.052 61.8543 136.417 60.6674 136.411 59.5V33.2069V33.1505C136.4 30.9742 135.098 28.8656 132.845 28.0182L111.99 20.1746ZM114.529 63.385C112.68 65.7804 113.675 69.2815 116.507 70.3468L125.594 73.7645L134.471 62.2654C135.117 61.4283 135.416 60.4561 135.411 59.5V36.3263C135.363 36.3939 135.314 36.4608 135.263 36.527L114.529 63.385ZM126.648 95.3135L134.757 84.8102C134.804 84.7488 134.85 84.6869 134.894 84.6244L134.894 104.619V107.5C134.966 108.546 134.675 109.629 133.965 110.549L125.857 121.052C124.649 122.617 122.561 123.21 120.711 122.514L99.1355 114.399C96.8739 113.549 94.3221 114.274 92.8456 116.187L82.8628 129.118C81.6547 130.683 79.5669 131.276 77.7165 130.58L59.3757 123.682C57.5414 122.992 56.4737 121.277 56.4582 119.5L56.4582 116.31L56.4582 99.4167V98.3483L56.4582 96.2854L56.4582 93.1546C56.458 93.1257 56.458 93.0968 56.4582 93.0679C56.467 92.1651 56.7479 91.2504 57.3384 90.4498L63.4841 82.1173C65.6496 79.1813 64.4087 74.989 60.994 73.7047L16.5246 56.9796C14.7571 56.3148 13.7052 54.7013 13.6135 53C13.5583 51.9751 13.8515 50.9183 14.5467 50.0178L23.7496 38.0965C24.4242 37.2225 25.3967 36.6271 26.4819 36.4235L109.224 20.8997C110.033 20.7479 110.868 20.8209 111.638 21.1106L132.493 28.9542C134.336 29.6472 135.4 31.3709 135.411 33.1505L135.408 33.3299C135.377 34.2276 135.077 35.1311 134.471 35.916L113.737 62.774C111.477 65.7016 112.693 69.9808 116.155 71.2828L131.987 77.2374C133.732 77.8935 134.779 79.4738 134.894 81.1506C134.908 81.3555 134.908 81.5618 134.894 81.7681C134.836 82.6143 134.536 83.4595 133.965 84.1991L125.857 94.7024C124.649 96.2673 122.561 96.8605 120.711 96.1646L99.1355 88.05C96.8739 87.1994 94.3221 87.9245 92.8456 89.8371L82.8628 102.769C81.6547 104.334 79.5669 104.927 77.7165 104.231L59.3757 97.3328C57.5428 96.6434 56.4754 94.93 56.4582 93.1546L56.4582 96.2854C57.0652 97.1526 57.9337 97.8588 59.0237 98.2688L77.3645 105.167C79.6261 106.017 82.1779 105.292 83.6544 103.38L93.6372 90.4481C94.8453 88.8833 96.9331 88.2901 98.7835 88.986L120.359 97.1005C122.62 97.9511 125.172 97.2261 126.648 95.3135ZM62.6793 81.5238L56.5336 89.8562C55.8093 90.8382 55.4661 91.9607 55.4578 93.0679V93.1503V97.972L16.5246 83.3291C14.7571 82.6643 13.7052 81.0508 13.6135 79.3495V55.9417C14.2196 56.804 15.0853 57.5066 16.1726 57.9156L60.6419 74.6407C63.4358 75.6915 64.4511 79.1215 62.6793 81.5238Z" fill="white"/>
<path fill-rule="evenodd" clip-rule="evenodd" d="M111.99 20.1746C111.049 19.8205 110.028 19.7314 109.04 19.9168L26.2975 35.4406C24.9711 35.6895 23.7826 36.4172 22.958 37.4854L13.7551 49.4067C12.9171 50.4922 12.557 51.7635 12.612 53V79.3495C12.7054 81.4478 13.9944 83.4458 16.1726 84.2651L55.4578 99.0404V119.417V119.5C55.4742 121.674 56.7794 123.774 59.0237 124.618L77.3645 131.516C79.6261 132.367 82.1779 131.642 83.6544 129.729L93.6372 116.798C94.8453 115.233 96.9331 114.64 98.7835 115.335L120.359 123.45C122.62 124.301 125.172 123.576 126.648 121.663L134.757 111.16C135.61 110.055 135.968 108.757 135.896 107.5V81.7727V81.1506C135.779 79.0766 134.494 77.112 132.339 76.3014L126.573 74.1327L135.263 62.8765C136.052 61.8543 136.417 60.6674 136.411 59.5V33.2069V33.1505C136.4 30.9742 135.098 28.8656 132.845 28.0182L111.99 20.1746ZM114.529 63.385C112.68 65.7804 113.675 69.2815 116.507 70.3468L125.594 73.7645L134.471 62.2654C135.117 61.4283 135.416 60.4561 135.411 59.5V36.3263C135.363 36.3939 135.314 36.4608 135.263 36.527L114.529 63.385ZM126.648 95.3135L134.757 84.8102C134.804 84.7488 134.85 84.6869 134.894 84.6244L134.894 104.619V107.5C134.966 108.546 134.675 109.629 133.965 110.549L125.857 121.052C124.649 122.617 122.561 123.21 120.711 122.514L99.1355 114.399C96.8739 113.549 94.3221 114.274 92.8456 116.187L82.8628 129.118C81.6547 130.683 79.5669 131.276 77.7165 130.58L59.3757 123.682C57.5414 122.992 56.4737 121.277 56.4582 119.5L56.4582 116.31L56.4582 99.4167V98.3483L56.4582 96.2854L56.4582 93.1546C56.458 93.1257 56.458 93.0968 56.4582 93.0679C56.467 92.1651 56.7479 91.2504 57.3384 90.4498L63.4841 82.1173C65.6496 79.1813 64.4087 74.989 60.994 73.7047L16.5246 56.9796C14.7571 56.3148 13.7052 54.7013 13.6135 53C13.5583 51.9751 13.8515 50.9183 14.5467 50.0178L23.7496 38.0965C24.4242 37.2225 25.3967 36.6271 26.4819 36.4235L109.224 20.8997C110.033 20.7479 110.868 20.8209 111.638 21.1106L132.493 28.9542C134.336 29.6472 135.4 31.3709 135.411 33.1505L135.408 33.3299C135.377 34.2276 135.077 35.1311 134.471 35.916L113.737 62.774C111.477 65.7016 112.693 69.9808 116.155 71.2828L131.987 77.2374C133.732 77.8935 134.779 79.4738 134.894 81.1506C134.908 81.3555 134.908 81.5618 134.894 81.7681C134.836 82.6143 134.536 83.4595 133.965 84.1991L125.857 94.7024C124.649 96.2673 122.561 96.8605 120.711 96.1646L99.1355 88.05C96.8739 87.1994 94.3221 87.9245 92.8456 89.8371L82.8628 102.769C81.6547 104.334 79.5669 104.927 77.7165 104.231L59.3757 97.3328C57.5428 96.6434 56.4754 94.93 56.4582 93.1546L56.4582 96.2854C57.0652 97.1526 57.9337 97.8588 59.0237 98.2688L77.3645 105.167C79.6261 106.017 82.1779 105.292 83.6544 103.38L93.6372 90.4481C94.8453 88.8833 96.9331 88.2901 98.7835 88.986L120.359 97.1005C122.62 97.9511 125.172 97.2261 126.648 95.3135ZM62.6793 81.5238L56.5336 89.8562C55.8093 90.8382 55.4661 91.9607 55.4578 93.0679V93.1503V97.972L16.5246 83.3291C14.7571 82.6643 13.7052 81.0508 13.6135 79.3495V55.9417C14.2196 56.804 15.0853 57.5066 16.1726 57.9156L60.6419 74.6407C63.4358 75.6915 64.4511 79.1215 62.6793 81.5238Z" fill="black"/>
</svg>
