<svg width="997" height="117" viewBox="0 0 997 117" fill="none" xmlns="http://www.w3.org/2000/svg">
<path d="M30.2095 102H20.9935C14.7535 102 9.80945 100.176 6.16145 96.528C2.60945 92.88 0.83345 87.888 0.83345 81.552V49.008C0.83345 42.672 2.60945 37.68 6.16145 34.032C9.80945 30.384 14.7535 28.56 20.9935 28.56H51.5215C52.4815 28.56 52.9615 29.136 52.9615 30.288V100.272C52.9615 101.424 52.4815 102 51.5215 102H47.3455C46.2895 102 45.7615 101.424 45.7615 100.272V94.512H45.1855C42.6895 99.504 37.6975 102 30.2095 102ZM45.7615 81.408V36.336C45.7615 35.472 45.2815 35.04 44.3215 35.04H21.5695C17.1535 35.04 13.7935 36.288 11.4895 38.784C9.18545 41.28 8.03345 44.784 8.03345 49.296V81.264C8.03345 85.776 9.18545 89.28 11.4895 91.776C13.7935 94.272 17.1535 95.52 21.5695 95.52H30.9295C35.5375 95.52 39.1375 94.32 41.7295 91.92C44.4175 89.424 45.7615 85.92 45.7615 81.408ZM90.3947 95.52H113.291C117.707 95.52 121.067 94.32 123.371 91.92C125.771 89.424 126.971 85.872 126.971 81.264V48C126.971 43.488 125.771 40.032 123.371 37.632C121.067 35.136 117.707 33.888 113.291 33.888H103.787C99.1787 33.888 95.5307 35.136 92.8427 37.632C90.2507 40.032 88.9547 43.488 88.9547 48V94.224C88.9547 95.088 89.4347 95.52 90.3947 95.52ZM81.7547 100.272V2.49599C81.7547 1.344 82.2347 0.767999 83.1947 0.767999H87.3707C88.4267 0.767999 88.9547 1.344 88.9547 2.49599V34.896H89.5307C92.2187 29.904 97.2107 27.408 104.507 27.408H114.011C120.251 27.408 125.147 29.232 128.699 32.88C132.347 36.528 134.171 41.472 134.171 47.712V81.552C134.171 87.888 132.347 92.88 128.699 96.528C125.147 100.176 120.251 102 114.011 102H83.1947C82.2347 102 81.7547 101.424 81.7547 100.272ZM192.621 102H180.237C173.997 102 169.053 100.176 165.405 96.528C161.853 92.88 160.077 87.888 160.077 81.552V49.008C160.077 42.672 161.853 37.68 165.405 34.032C169.053 30.384 173.997 28.56 180.237 28.56H192.621C198.861 28.56 203.805 30.384 207.453 34.032C211.101 37.68 212.925 42.672 212.925 49.008V81.552C212.925 87.888 211.101 92.88 207.453 96.528C203.805 100.176 198.861 102 192.621 102ZM180.813 95.52H192.045C196.461 95.52 199.821 94.32 202.125 91.92C204.525 89.424 205.725 85.92 205.725 81.408V49.152C205.725 44.64 204.525 41.184 202.125 38.784C199.821 36.288 196.461 35.04 192.045 35.04H180.813C176.397 35.04 173.037 36.288 170.733 38.784C168.429 41.184 167.277 44.64 167.277 49.152V81.408C167.277 85.92 168.429 89.424 170.733 91.92C173.037 94.32 176.397 95.52 180.813 95.52ZM268.811 102H259.307C253.163 102 248.315 100.176 244.763 96.528C241.211 92.88 239.435 87.888 239.435 81.552V30.288C239.435 29.136 239.915 28.56 240.875 28.56H245.051C246.107 28.56 246.635 29.136 246.635 30.288V81.264C246.635 85.776 247.787 89.28 250.091 91.776C252.395 94.272 255.755 95.52 260.171 95.52H269.531C274.139 95.52 277.739 94.32 280.331 91.92C283.019 89.424 284.363 85.92 284.363 81.408V30.288C284.363 29.136 284.891 28.56 285.947 28.56H290.123C291.083 28.56 291.563 29.136 291.563 30.288V100.272C291.563 101.424 291.083 102 290.123 102H285.947C284.891 102 284.363 101.424 284.363 100.272V94.512H283.787C281.291 99.504 276.299 102 268.811 102ZM323.507 35.04H314.723C313.667 35.04 313.139 34.56 313.139 33.6V30.144C313.139 29.088 313.667 28.56 314.723 28.56H323.507C324.371 28.56 324.803 28.128 324.803 27.264V15.6C324.803 14.448 325.331 13.872 326.387 13.872H330.563C331.619 13.872 332.147 14.448 332.147 15.6V27.264C332.147 28.128 332.579 28.56 333.443 28.56H350.579C351.635 28.56 352.163 29.088 352.163 30.144V33.6C352.163 34.56 351.635 35.04 350.579 35.04H333.443C332.579 35.04 332.147 35.472 332.147 36.336V81.696C332.147 86.112 333.395 89.52 335.891 91.92C338.387 94.32 341.891 95.52 346.403 95.52H352.019C353.075 95.52 353.603 96.048 353.603 97.104V100.416C353.603 101.472 353.075 102 352.019 102H345.827C339.491 102 334.403 100.224 330.563 96.672C326.723 93.12 324.803 88.224 324.803 81.984V36.336C324.803 35.472 324.371 35.04 323.507 35.04ZM418.501 116.256H368.389C367.237 116.256 366.661 115.728 366.661 114.672V112.512C366.661 111.552 367.237 111.072 368.389 111.072H418.501C419.653 111.072 420.229 111.552 420.229 112.512V114.672C420.229 115.728 419.653 116.256 418.501 116.256ZM477.983 76.656V15.168L441.695 76.656H477.983ZM483.455 102H479.567C478.511 102 477.983 101.424 477.983 100.272V83.136H436.223C434.783 83.136 434.063 82.464 434.063 81.12V78.528C434.063 77.664 434.399 76.56 435.071 75.216L472.799 11.568C473.663 10.128 474.815 9.408 476.255 9.408H483.023C484.367 9.408 485.039 10.128 485.039 11.568V76.656H495.839C496.895 76.656 497.423 77.136 497.423 78.096V81.552C497.423 82.608 496.895 83.136 495.839 83.136H485.039V100.272C485.039 101.424 484.511 102 483.455 102ZM548.332 102H538.684C532.54 102 527.692 100.176 524.14 96.528C520.588 92.88 518.812 87.888 518.812 81.552V49.008C518.812 42.672 520.588 37.68 524.14 34.032C527.692 30.384 532.54 28.56 538.684 28.56H548.332C555.724 28.56 560.764 31.056 563.452 36.048H564.028V2.49599C564.028 1.344 564.508 0.767999 565.468 0.767999H569.644C570.7 0.767999 571.228 1.344 571.228 2.49599V100.272C571.228 101.424 570.7 102 569.644 102H565.468C564.508 102 564.028 101.424 564.028 100.272V94.512H563.452C560.764 99.504 555.724 102 548.332 102ZM564.028 81.408V49.152C564.028 44.64 562.684 41.184 559.996 38.784C557.404 36.288 553.804 35.04 549.196 35.04H539.548C535.132 35.04 531.772 36.288 529.468 38.784C527.164 41.28 526.012 44.784 526.012 49.296V81.264C526.012 85.776 527.164 89.28 529.468 91.776C531.772 94.272 535.132 95.52 539.548 95.52H549.196C553.804 95.52 557.404 94.32 559.996 91.92C562.684 89.424 564.028 85.92 564.028 81.408ZM618.446 95.52H630.686C635.102 95.52 638.462 94.32 640.766 91.92C643.07 89.424 644.222 85.872 644.222 81.264V67.44C644.222 62.928 643.07 59.472 640.766 57.072C638.462 54.576 635.102 53.328 630.686 53.328H604.91V81.264C604.91 85.872 606.062 89.424 608.366 91.92C610.67 94.32 614.03 95.52 618.446 95.52ZM631.262 102H617.87C611.63 102 606.686 100.176 603.038 96.528C599.39 92.88 597.566 87.888 597.566 81.552V29.856C597.566 23.52 599.39 18.528 603.038 14.88C606.686 11.232 611.63 9.408 617.87 9.408H645.23C646.286 9.408 646.814 9.936 646.814 10.992V14.448C646.814 15.408 646.286 15.888 645.23 15.888H618.446C614.03 15.888 610.67 17.136 608.366 19.632C606.062 22.032 604.91 25.536 604.91 30.144V46.848H631.262C637.502 46.848 642.446 48.672 646.094 52.32C649.742 55.968 651.566 60.912 651.566 67.152V81.552C651.566 87.888 649.742 92.88 646.094 96.528C642.446 100.176 637.502 102 631.262 102ZM673.176 26.832V23.664C673.176 22.416 673.752 21.408 674.904 20.64L693.048 10.416C694.008 9.744 695.016 9.408 696.072 9.408H699.816C700.872 9.408 701.4 9.984 701.4 11.136V100.272C701.4 101.424 700.872 102 699.816 102H695.64C694.68 102 694.2 101.424 694.2 100.272V17.184L675.624 27.696C673.992 28.752 673.176 28.464 673.176 26.832ZM738.463 102H734.431C733.087 102 732.751 101.28 733.423 99.84L764.959 16.032H724.783C723.727 16.032 723.199 15.552 723.199 14.592V10.992C723.199 9.936 723.727 9.408 724.783 9.408H771.151C772.207 9.408 772.735 9.936 772.735 10.992V14.592C772.735 15.552 772.495 16.656 772.015 17.904L741.055 100.416C740.671 101.472 739.807 102 738.463 102ZM833.342 76.656V15.168L797.054 76.656H833.342ZM838.814 102H834.926C833.87 102 833.342 101.424 833.342 100.272V83.136H791.582C790.142 83.136 789.422 82.464 789.422 81.12V78.528C789.422 77.664 789.758 76.56 790.43 75.216L828.158 11.568C829.022 10.128 830.174 9.408 831.614 9.408H838.382C839.726 9.408 840.398 10.128 840.398 11.568V76.656H851.198C852.254 76.656 852.782 77.136 852.782 78.096V81.552C852.782 82.608 852.254 83.136 851.198 83.136H840.398V100.272C840.398 101.424 839.87 102 838.814 102ZM882.379 102H878.347C877.003 102 876.667 101.28 877.339 99.84L908.875 16.032H868.699C867.643 16.032 867.115 15.552 867.115 14.592V10.992C867.115 9.936 867.643 9.408 868.699 9.408H915.067C916.123 9.408 916.651 9.936 916.651 10.992V14.592C916.651 15.552 916.411 16.656 915.931 17.904L884.971 100.416C884.587 101.472 883.723 102 882.379 102ZM977.258 76.656V15.168L940.97 76.656H977.258ZM982.73 102H978.842C977.786 102 977.258 101.424 977.258 100.272V83.136H935.498C934.058 83.136 933.338 82.464 933.338 81.12V78.528C933.338 77.664 933.674 76.56 934.346 75.216L972.074 11.568C972.938 10.128 974.09 9.408 975.53 9.408H982.298C983.642 9.408 984.314 10.128 984.314 11.568V76.656H995.114C996.17 76.656 996.698 77.136 996.698 78.096V81.552C996.698 82.608 996.17 83.136 995.114 83.136H984.314V100.272C984.314 101.424 983.786 102 982.73 102Z" fill="white"/>
</svg>
