<svg width="811" height="151" viewBox="0 0 811 151" fill="none" xmlns="http://www.w3.org/2000/svg">
<path fill-rule="evenodd" clip-rule="evenodd" d="M50.6553 150.61C23.041 150.61 0.655273 128.224 0.655273 100.61C0.655273 72.9955 23.041 50.6097 50.6553 50.6097C78.2695 50.6097 100.655 72.9955 100.655 100.61V150.61H80.6553V140.613C72.2987 146.89 61.9113 150.61 50.6553 150.61ZM50.6553 130.61C67.2238 130.61 80.6553 117.178 80.6553 100.61C80.6553 84.0412 67.2238 70.6097 50.6553 70.6097C34.0867 70.6097 20.6553 84.0412 20.6553 100.61C20.6553 117.178 34.0867 130.61 50.6553 130.61Z" fill="#101010"/>
<path fill-rule="evenodd" clip-rule="evenodd" d="M120.655 100.61C120.655 128.224 143.041 150.61 170.655 150.61C198.27 150.61 220.655 128.224 220.655 100.61C220.655 72.9955 198.27 50.6097 170.655 50.6097C159.399 50.6097 149.012 54.3292 140.655 60.6061V0.609741H120.655V100.61ZM170.655 130.61C154.087 130.61 140.655 117.178 140.655 100.61C140.655 84.0412 154.087 70.6097 170.655 70.6097C187.224 70.6097 200.655 84.0412 200.655 100.61C200.655 117.178 187.224 130.61 170.655 130.61Z" fill="#101010"/>
<path fill-rule="evenodd" clip-rule="evenodd" d="M290.655 150.61C318.27 150.61 340.655 128.224 340.655 100.61C340.655 72.9955 318.27 50.6097 290.655 50.6097C263.041 50.6097 240.655 72.9955 240.655 100.61C240.655 128.224 263.041 150.61 290.655 150.61ZM290.655 130.61C307.224 130.61 320.655 117.178 320.655 100.61C320.655 84.0412 307.224 70.6097 290.655 70.6097C274.087 70.6097 260.655 84.0412 260.655 100.61C260.655 117.178 274.087 130.61 290.655 130.61Z" fill="#101010"/>
<path d="M460.655 100.61C460.655 128.224 438.27 150.61 410.655 150.61C383.041 150.61 360.655 128.224 360.655 100.61V50.6097H380.655V100.61C380.655 117.178 394.087 130.61 410.655 130.61C427.224 130.61 440.655 117.178 440.655 100.61V50.6097H460.655V100.61Z" fill="#101010"/>
<path d="M480.655 100.61C480.655 107.176 481.949 113.678 484.461 119.744C486.974 125.81 490.657 131.322 495.3 135.965C499.943 140.608 505.455 144.291 511.521 146.804C517.587 149.316 524.089 150.61 530.655 150.61L530.655 130.61C526.716 130.61 522.815 129.834 519.175 128.326C515.535 126.818 512.228 124.609 509.442 121.823C506.656 119.037 504.447 115.73 502.939 112.09C501.431 108.45 500.655 104.549 500.655 100.61V70.6097H530.655V50.6097H500.655V0.609741H480.655V100.61Z" fill="#101010"/>
<path d="M660.655 50.6097C677.224 50.6097 690.655 64.0412 690.655 80.6097V150.61H670.655V80.6097C670.655 75.0869 666.178 70.6097 660.655 70.6097C655.132 70.6097 650.655 75.0869 650.655 80.6097V150.61H630.655V80.6097C630.655 75.0869 626.178 70.6097 620.655 70.6097C615.132 70.6097 610.655 75.0869 610.655 80.6097V150.61H590.655V80.6097C590.655 64.0412 604.087 50.6097 620.655 50.6097C628.339 50.6097 635.348 53.4983 640.655 58.2487C645.963 53.4983 652.972 50.6097 660.655 50.6097Z" fill="#101010"/>
<path fill-rule="evenodd" clip-rule="evenodd" d="M760.655 150.61C733.041 150.61 710.655 128.224 710.655 100.61C710.655 72.9955 733.041 50.6097 760.655 50.6097C788.27 50.6097 810.655 72.9955 810.655 100.61C810.655 104.034 810.311 107.379 809.655 110.61H732.362C736.481 122.262 747.593 130.61 760.655 130.61C767.686 130.61 774.153 128.191 779.267 124.14L792.939 138.792C784.228 146.164 772.961 150.61 760.655 150.61ZM760.655 70.6097C747.593 70.6097 736.481 78.9578 732.362 90.6097H788.948C784.83 78.9578 773.717 70.6097 760.655 70.6097Z" fill="#101010"/>
</svg>
