<svg width="891" height="231" viewBox="0 0 891 231" fill="none" xmlns="http://www.w3.org/2000/svg">
<path d="M140.656 195.61H145.656V190.61V140.61C145.656 110.234 121.031 85.6099 90.6555 85.6099C60.2799 85.6099 35.6555 110.234 35.6555 140.61C35.6555 170.986 60.2799 195.61 90.6555 195.61C99.6531 195.61 108.153 193.446 115.656 189.611V190.61V195.61H120.656H140.656ZM115.656 140.61C115.656 154.417 104.463 165.61 90.6555 165.61C76.8484 165.61 65.6555 154.417 65.6555 140.61C65.6555 126.803 76.8484 115.61 90.6555 115.61C104.463 115.61 115.656 126.803 115.656 140.61Z" fill="black" stroke="black" stroke-width="10"/>
<path d="M185.656 40.6099V35.6099H180.656H160.656H155.656V40.6099V140.61C155.656 170.986 180.28 195.61 210.656 195.61C241.031 195.61 265.656 170.986 265.656 140.61C265.656 110.234 241.031 85.6099 210.656 85.6099C201.658 85.6099 193.158 87.7736 185.656 91.6083V40.6099ZM210.656 165.61C196.848 165.61 185.656 154.417 185.656 140.61C185.656 126.803 196.848 115.61 210.656 115.61C224.463 115.61 235.656 126.803 235.656 140.61C235.656 154.417 224.463 165.61 210.656 165.61Z" fill="black" stroke="black" stroke-width="10"/>
<path d="M330.656 195.61C361.031 195.61 385.656 170.986 385.656 140.61C385.656 110.234 361.031 85.6099 330.656 85.6099C300.28 85.6099 275.656 110.234 275.656 140.61C275.656 170.986 300.28 195.61 330.656 195.61ZM355.656 140.61C355.656 154.417 344.463 165.61 330.656 165.61C316.848 165.61 305.656 154.417 305.656 140.61C305.656 126.803 316.848 115.61 330.656 115.61C344.463 115.61 355.656 126.803 355.656 140.61Z" fill="black" stroke="black" stroke-width="10"/>
<path d="M400.656 85.6099H395.656V90.6099V140.61C395.656 170.986 420.28 195.61 450.656 195.61C481.031 195.61 505.656 170.986 505.656 140.61V90.6099V85.6099H500.656H480.656H475.656V90.6099V140.61C475.656 154.417 464.463 165.61 450.656 165.61C436.848 165.61 425.656 154.417 425.656 140.61V90.6099V85.6099H420.656H400.656Z" fill="black" stroke="black" stroke-width="10"/>
<path d="M570.656 195.61H575.656V190.61L575.656 170.61V165.61H570.656C567.372 165.61 564.122 164.963 561.088 163.707C558.055 162.45 555.299 160.609 552.978 158.288C550.656 155.966 548.815 153.21 547.559 150.177C546.302 147.144 545.656 143.893 545.656 140.61V115.61H570.656H575.656V110.61V90.6099V85.6099H570.656H545.656V40.6099V35.6099H540.656H520.656H515.656V40.6099V140.61C515.656 147.833 517.078 154.985 519.842 161.657C522.606 168.33 526.657 174.394 531.765 179.501C536.872 184.608 542.935 188.659 549.608 191.423C556.281 194.187 563.433 195.61 570.656 195.61Z" fill="black" stroke="black" stroke-width="10"/>
<path d="M650.656 195.61H655.656V190.61V120.61C655.656 117.848 657.894 115.61 660.656 115.61C663.417 115.61 665.656 117.848 665.656 120.61V190.61V195.61H670.656H690.656H695.656V190.61V120.61C695.656 117.848 697.894 115.61 700.656 115.61C703.417 115.61 705.656 117.848 705.656 120.61V190.61V195.61H710.656H730.656H735.656V190.61V120.61C735.656 101.28 719.985 85.6099 700.656 85.6099C693.223 85.6099 686.324 87.9312 680.656 91.884C674.987 87.9312 668.088 85.6099 660.656 85.6099C641.326 85.6099 625.656 101.28 625.656 120.61V190.61V195.61H630.656H650.656Z" fill="black" stroke="black" stroke-width="10"/>
<path d="M849.655 155.61H853.742L854.555 151.605C855.277 148.048 855.656 144.37 855.656 140.61C855.656 110.234 831.031 85.6099 800.656 85.6099C770.28 85.6099 745.656 110.234 745.656 140.61C745.656 170.986 770.28 195.61 800.656 195.61C814.188 195.61 826.59 190.716 836.169 182.609L840.175 179.218L836.595 175.381L822.923 160.729L819.777 157.358L816.163 160.221C811.9 163.597 806.52 165.61 800.656 165.61C792.481 165.61 785.216 161.685 780.652 155.61H849.655ZM780.652 125.61C785.216 119.535 792.481 115.61 800.656 115.61C808.83 115.61 816.095 119.535 820.659 125.61H780.652Z" fill="black" stroke="black" stroke-width="10"/>
</svg>
