<svg width="100" height="100" viewBox="0 0 100 100" fill="none" xmlns="http://www.w3.org/2000/svg">
<path d="M50.5394 50.1655C50.5342 50.0552 50.5342 49.9448 50.5394 49.8345L50.0178 49.251L49.4961 49.8345C49.5013 49.9448 49.5013 50.0552 49.4961 50.1655L50.0178 50.749L50.5394 50.1655Z" fill="white"/>
<path d="M48.4749 47.5251L40.9497 40H39.5355L47.7678 48.2322C47.8354 48.2999 47.8984 48.3704 47.9566 48.4435L49.3481 50L49.4961 49.8345C49.4624 49.1187 49.2102 48.4113 48.7393 47.8209L48.4749 47.5251Z" fill="white"/>
<path d="M49.4961 49.8345L50.0178 49.251L48.7393 47.8209C49.2102 48.4113 49.4624 49.1187 49.4961 49.8345Z" fill="white"/>
<path d="M51.2962 47.8209L50.0178 49.251L50.5394 49.8345C50.5731 49.1187 50.8254 48.4113 51.2962 47.8209Z" fill="white"/>
<path d="M48.7393 52.1791L50.0178 50.749L49.4961 50.1655C49.4624 50.8813 49.2102 51.5887 48.7393 52.1791Z" fill="white"/>
<path d="M50.0178 50.749L51.2962 52.1791C50.8254 51.5887 50.5731 50.8813 50.5394 50.1655L50.0178 50.749Z" fill="white"/>
<path fill-rule="evenodd" clip-rule="evenodd" d="M49.3481 50L47.9566 51.5565C47.8984 51.6296 47.8354 51.7001 47.7678 51.7678L39.5355 60H40.9497L48.4749 52.4749C48.5696 52.3802 48.6577 52.2814 48.7393 52.1791C49.2102 51.5887 49.4624 50.8813 49.4961 50.1655C49.5013 50.0552 49.5013 49.9448 49.4961 49.8345L49.3481 50ZM48.4749 47.5251C48.5696 47.6198 48.6577 47.7186 48.7393 47.8209L48.4749 47.5251Z" fill="white"/>
<path fill-rule="evenodd" clip-rule="evenodd" d="M51.5607 47.5251L59.0858 40H60.5L52.2678 48.2322C52.2001 48.2999 52.1372 48.3704 52.0789 48.4435L50.6874 50L52.0789 51.5565C52.1372 51.6296 52.2001 51.7001 52.2678 51.7678L60.5 60H59.0858L51.5607 52.4749C51.4659 52.3802 51.3778 52.2814 51.2962 52.1791C50.8254 51.5887 50.5731 50.8813 50.5394 50.1655C50.5342 50.0552 50.5342 49.9448 50.5394 49.8345C50.5731 49.1187 50.8254 48.4113 51.2962 47.8209C51.3778 47.7186 51.4659 47.6198 51.5607 47.5251Z" fill="white"/>
</svg>
