<svg width="1724" height="200" viewBox="0 0 1724 200" fill="none" xmlns="http://www.w3.org/2000/svg">
<path d="M50 150C22.3858 150 0 127.614 0 100C0 72.3858 22.3858 50 50 50C68.5071 50 84.6657 60.055 93.3109 75H66.589C61.8374 71.8408 56.1337 70 50 70C33.4315 70 20 83.4315 20 100C20 116.569 33.4315 130 50 130C56.1337 130 61.8374 128.159 66.589 125H93.3109C84.6657 139.945 68.5071 150 50 150Z" fill="white"/>
<path d="M144.177 53.806C150.243 51.2933 156.745 50 163.311 50L163.311 70C159.371 70 155.47 70.776 151.83 72.2836C148.191 73.7913 144.883 76.001 142.098 78.7868C139.312 81.5726 137.102 84.8797 135.594 88.5195C134.087 92.1593 133.311 96.0603 133.311 100V150H113.311V50H133.311V60C136.652 57.4943 140.301 55.4113 144.177 53.806Z" fill="white"/>
<path d="M283.311 100C283.311 127.614 260.925 150 233.311 150C205.697 150 183.311 127.614 183.311 100V50H203.311V100C203.311 116.569 216.742 130 233.311 130C249.879 130 263.311 116.569 263.311 100V50H283.311V100Z" fill="white"/>
<path d="M333.311 110C316.742 110 303.311 96.5685 303.311 80C303.311 63.4315 316.742 50 333.311 50L403.311 50V70H333.311C327.788 70 323.311 74.4772 323.311 80C323.311 85.5228 327.788 90 333.311 90H373.311C389.879 90 403.311 103.431 403.311 120C403.311 136.569 389.879 150 373.311 150H303.311L303.311 130L373.311 130C378.834 130 383.311 125.523 383.311 120C383.311 114.477 378.834 110 373.311 110L333.311 110Z" fill="white"/>
<path d="M423.311 100C423.311 106.566 424.604 113.068 427.117 119.134C429.63 125.2 433.313 130.712 437.956 135.355C442.599 139.998 448.11 143.681 454.177 146.194C460.243 148.707 466.745 150 473.311 150L473.311 130C469.371 130 465.47 129.224 461.83 127.716C458.191 126.209 454.883 123.999 452.098 121.213C449.312 118.427 447.102 115.12 445.595 111.48C444.087 107.841 443.311 103.94 443.311 100V70H473.311V50H443.311V0H423.311V100Z" fill="white"/>
<rect width="20" height="100" transform="matrix(-1 0 0 1 513.311 50)" fill="white"/>
<path fill-rule="evenodd" clip-rule="evenodd" d="M583.311 150C555.697 150 533.311 127.614 533.311 100C533.311 72.3858 555.697 50 583.311 50C610.925 50 633.311 72.3858 633.311 100C633.311 103.425 632.967 106.769 632.311 110H555.018C559.136 121.652 570.249 130 583.311 130C589.445 130 595.148 128.159 599.9 125H626.622C617.977 139.945 601.818 150 583.311 150ZM583.311 70C570.249 70 559.136 78.3481 555.018 90H611.604C607.485 78.3481 596.373 70 583.311 70Z" fill="white"/>
<path d="M683.311 110C666.742 110 653.311 96.5685 653.311 80C653.311 63.4315 666.742 50 683.311 50L753.311 50V70H683.311C677.788 70 673.311 74.4772 673.311 80C673.311 85.5228 677.788 90 683.311 90H723.311C739.879 90 753.311 103.431 753.311 120C753.311 136.569 739.879 150 723.311 150H653.311L653.311 130L723.311 130C728.834 130 733.311 125.523 733.311 120C733.311 114.477 728.834 110 723.311 110L683.311 110Z" fill="white"/>
<path d="M773.311 100C773.311 106.566 774.604 113.068 777.117 119.134C779.63 125.2 783.313 130.712 787.956 135.355C792.599 139.998 798.11 143.681 804.177 146.194C810.243 148.707 816.745 150 823.311 150L823.311 130C819.371 130 815.47 129.224 811.83 127.716C808.191 126.209 804.883 123.999 802.098 121.213C799.312 118.427 797.102 115.12 795.595 111.48C794.087 107.841 793.311 103.94 793.311 100V70H823.311V50H793.311V0H773.311V100Z" fill="white"/>
<path d="M883.311 100C883.311 106.566 884.604 113.068 887.117 119.134C889.63 125.2 893.313 130.712 897.956 135.355C902.599 139.998 908.11 143.681 914.177 146.194C920.243 148.707 926.745 150 933.311 150L933.311 130C929.371 130 925.47 129.224 921.83 127.716C918.191 126.209 914.883 123.999 912.098 121.213C909.312 118.427 907.102 115.12 905.595 111.48C904.087 107.841 903.311 103.94 903.311 100V70H933.311V50H903.311V0H883.311V100Z" fill="white"/>
<path d="M1053.31 100C1053.31 72.3858 1030.93 50 1003.31 50C992.055 50 981.668 53.7194 973.311 59.9963V0H953.311V150H973.311V100C973.311 83.4315 986.742 70 1003.31 70C1019.88 70 1033.31 83.4315 1033.31 100V150H1053.31V100Z" fill="white"/>
<path fill-rule="evenodd" clip-rule="evenodd" d="M1123.31 150C1150.93 150 1173.31 127.614 1173.31 100C1173.31 72.3858 1150.93 50 1123.31 50C1095.7 50 1073.31 72.3858 1073.31 100C1073.31 127.614 1095.7 150 1123.31 150ZM1123.31 130C1139.88 130 1153.31 116.569 1153.31 100C1153.31 83.4315 1139.88 70 1123.31 70C1106.74 70 1093.31 83.4315 1093.31 100C1093.31 116.569 1106.74 130 1123.31 130Z" fill="white"/>
<path d="M1293.31 100C1293.31 127.614 1270.93 150 1243.31 150C1215.7 150 1193.31 127.614 1193.31 100V50H1213.31V100C1213.31 116.569 1226.74 130 1243.31 130C1259.88 130 1273.31 116.569 1273.31 100V50H1293.31V100Z" fill="white"/>
<path fill-rule="evenodd" clip-rule="evenodd" d="M1413 150C1413 159.889 1410.07 169.556 1404.57 177.779C1399.08 186.001 1391.27 192.41 1382.13 196.194C1373 199.978 1362.94 200.969 1353.25 199.039C1343.55 197.11 1334.64 192.348 1327.64 185.355L1341.79 171.213C1345.98 175.409 1351.33 178.266 1357.15 179.424C1362.97 180.581 1369 179.987 1374.48 177.716C1379.96 175.446 1384.65 171.601 1387.94 166.667C1391.24 161.734 1393 155.933 1393 150V140.004C1384.64 146.281 1374.26 150 1363 150C1335.39 150 1313 127.614 1313 100C1313 72.3858 1335.39 50 1363 50C1390.61 50 1413 72.3858 1413 100V150ZM1363 70C1379.57 70 1393 83.4315 1393 100C1393 116.569 1379.57 130 1363 130C1346.43 130 1333 116.569 1333 100C1333 83.4315 1346.43 70 1363 70Z" fill="white"/>
<path d="M1533.31 100C1533.31 72.3858 1510.93 50 1483.31 50C1472.05 50 1461.67 53.7194 1453.31 59.9963V0H1433.31V150H1453.31V100C1453.31 83.4315 1466.74 70 1483.31 70C1499.88 70 1513.31 83.4315 1513.31 100V150H1533.31V100Z" fill="white"/>
<path d="M1553.31 100C1553.31 106.566 1554.6 113.068 1557.12 119.134C1559.63 125.2 1563.31 130.712 1567.96 135.355C1572.6 139.998 1578.11 143.681 1584.18 146.194C1590.24 148.707 1596.74 150 1603.31 150L1603.31 130C1599.37 130 1595.47 129.224 1591.83 127.716C1588.19 126.209 1584.88 123.999 1582.1 121.213C1579.31 118.427 1577.1 115.12 1575.59 111.48C1574.09 107.841 1573.31 103.94 1573.31 100V70H1603.31V50H1573.31V0H1553.31V100Z" fill="white"/>
<path d="M1653.31 110C1636.74 110 1623.31 96.5685 1623.31 80C1623.31 63.4315 1636.74 50 1653.31 50L1723.31 50V70H1653.31C1647.79 70 1643.31 74.4772 1643.31 80C1643.31 85.5228 1647.79 90 1653.31 90H1693.31C1709.88 90 1723.31 103.431 1723.31 120C1723.31 136.569 1709.88 150 1693.31 150H1623.31L1623.31 130L1693.31 130C1698.83 130 1703.31 125.523 1703.31 120C1703.31 114.477 1698.83 110 1693.31 110L1653.31 110Z" fill="white"/>
</svg>
