<svg width="299" height="40" viewBox="0 0 299 40" fill="none" xmlns="http://www.w3.org/2000/svg">
<g clip-path="url(#clip0_36_5581)">
<path d="M13.8154 14.7502C12.6866 13.909 11.3433 13.4883 9.99999 13.4884C8.36337 13.4884 6.72676 14.1127 5.47806 15.3614L5.36121 15.4783C4.11251 16.727 3.48816 18.3636 3.48817 20.0002C3.48818 21.6368 4.11252 23.2734 5.36121 24.5221L5.47807 24.639C6.72676 25.8877 8.36338 26.512 9.99999 26.512C11.3433 26.512 12.6866 26.0914 13.8154 25.2502H18.4928C18.1051 25.8675 17.6426 26.4513 17.1053 26.9886L16.9884 27.1055C15.0586 29.0353 12.5293 30.0002 9.99999 30.0002C7.47068 30.0002 4.94136 29.0353 3.01156 27.1055L2.89471 26.9886C0.964911 25.0588 7.35182e-06 22.5295 0 20.0002C-7.3517e-06 17.4709 0.964893 14.9416 2.8947 13.0117L3.01156 12.8949C4.94136 10.9651 7.47067 10.0002 9.99999 10.0002C12.5293 10.0002 15.0586 10.9651 16.9884 12.8949L17.1053 13.0117C17.6426 13.5491 18.1051 14.1329 18.4928 14.7502H13.8154Z" fill="white" stroke="black" stroke-width="2" stroke-linecap="round" stroke-linejoin="round"/>
<path d="M31.9999 13.4884V10.0002C29.6739 10.0002 27.3479 10.8162 25.4881 12.4483V10.0002H21.9999V30.0002H25.4881C25.4751 29.8338 25.4881 20.167 25.4881 20.0002C25.4881 18.3635 26.1125 16.7269 27.3612 15.4782L27.478 15.3614C28.7267 14.1127 30.3633 13.4884 31.9999 13.4884Z" fill="white" stroke="black" stroke-width="2" stroke-linecap="round"/>
<path d="M48.6388 24.5221L48.5219 24.639C47.2732 25.8877 45.6366 26.512 44 26.512C42.3634 26.512 40.7268 25.8877 39.4781 24.639L39.3612 24.5221C38.1125 23.2734 37.5 21.6368 37.5 20.0002V10.0002H34L34 20.0002C34 22.5295 34.9649 25.0588 36.8947 26.9886L37.0116 27.1055C38.9414 29.0353 41.4707 30.0002 44 30.0002C46.3211 30.0002 48.6422 29.1876 50.5 27.5624V30.0002H54V10.0002H50.5L50.5118 20.0002C50.5118 21.6368 49.8875 23.2734 48.6388 24.5221Z" fill="white" stroke="black" stroke-width="2" stroke-linecap="round"/>
<path d="M72.0236 13.5002H62.395C61.0833 13.5002 60.02 14.5635 60.02 15.8752C60.02 17.1869 61.0833 18.2502 62.395 18.2502H65.9965V18.2514C69.1851 18.3161 71.75 20.9211 71.75 24.1252C71.75 27.3281 69.187 29.9324 66 29.9989V30.0002H56V26.5002H65.645C66.9567 26.5002 68.02 25.4369 68.02 24.1252C68.02 22.8135 66.9567 21.7502 65.645 21.7502H62.02V21.749C61.9796 21.7498 61.9391 21.7502 61.8986 21.7502C58.6539 21.7502 56.0236 19.1199 56.0236 15.8752C56.0236 12.6305 58.6539 10.0002 61.8986 10.0002C61.9403 10.0002 61.982 10.0006 62.0236 10.0015V10.0002H72.0236V13.5002Z" fill="white" stroke="black" stroke-width="2" stroke-linecap="round"/>
<path d="M74 20.0002C74 22.5295 74.9649 25.0588 76.8947 26.9886L77.0116 27.1055C78.9414 29.0353 81.4707 30.0002 84 30.0002V26.512C82.3634 26.512 80.7268 25.8877 79.4781 24.639L79.3612 24.5221C78.1125 23.2734 77.4882 21.6368 77.4882 20.0002C77.4882 20.0002 77.4882 20.0002 77.4882 20.0002L77.4882 13.4883H84V10.0002L77.4882 10.0002L77.4882 0.000183105H74V10.0002V13.4883L74 20.0002Z" fill="white"/>
<path d="M74 20.0002C74 22.5295 74.9649 25.0588 76.8947 26.9886L77.0116 27.1055C78.9414 29.0353 81.4707 30.0002 84 30.0002V26.512C82.3634 26.512 80.7268 25.8877 79.4781 24.639L79.3612 24.5221C78.1125 23.2734 77.4882 21.6368 77.4882 20.0002M74 20.0002L74 0.000183105M74 20.0002L74 13.4883V10.0002V0.000183105M77.4882 20.0002C77.4882 19.8334 77.4947 19.6666 77.5076 19.5002M77.4882 20.0002L77.4882 13.4883H84V10.0002L77.4882 10.0002L77.4882 0.000183105H74M77.4882 20.0002C77.4882 20.0002 77.4882 20.0002 77.4882 20.0002Z" stroke="black" stroke-width="2" stroke-linecap="round"/>
<path d="M89.4882 10.0002V30.0002H86V10.0002H89.4882Z" fill="white" stroke="black" stroke-width="2" stroke-linecap="round" stroke-linejoin="round"/>
<path fill-rule="evenodd" clip-rule="evenodd" d="M111.488 20.0002C111.488 20.586 111.436 21.1718 111.333 21.7502H95.2192C95.507 22.7652 96.0504 23.7231 96.8494 24.5221L96.9662 24.639C98.2149 25.8877 99.8515 26.512 101.488 26.512C102.831 26.512 104.175 26.0914 105.304 25.2502H109.981C109.593 25.8675 109.131 26.4513 108.593 26.9886L108.477 27.1055C106.547 29.0353 104.017 30.0002 101.488 30.0002C98.9588 30.0002 96.4295 29.0353 94.4997 27.1055L94.3829 26.9886C92.4531 25.0588 91.4882 22.5295 91.4882 20.0002C91.4882 17.4709 92.4531 14.9416 94.3829 13.0117L94.4997 12.8949C96.4295 10.9651 98.9588 10.0002 101.488 10.0002C104.017 10.0002 106.547 10.9651 108.477 12.8949L108.593 13.0117C110.523 14.9416 111.488 17.4709 111.488 20.0002ZM101.488 13.4884C103.125 13.4883 104.761 14.1127 106.01 15.3614L106.127 15.4782C106.926 16.2773 107.469 17.2351 107.757 18.2502H95.2192C95.507 17.2351 96.0503 16.2773 96.8494 15.4783L96.9662 15.3614C98.2149 14.1127 99.8515 13.4884 101.488 13.4884Z" fill="white" stroke="black" stroke-width="2" stroke-linecap="round"/>
<path d="M129.512 13.5002H119.883C118.571 13.5002 117.508 14.5635 117.508 15.8752C117.508 17.1869 118.571 18.2502 119.883 18.2502H123.485V18.2514C126.673 18.3161 129.238 20.9211 129.238 24.1252C129.238 27.3281 126.675 29.9324 123.488 29.9989V30.0002H113.488V26.5002H123.133C124.445 26.5002 125.508 25.4369 125.508 24.1252C125.508 22.8135 124.445 21.7502 123.133 21.7502H119.508V21.749C119.468 21.7498 119.427 21.7502 119.387 21.7502C116.142 21.7502 113.512 19.1199 113.512 15.8752C113.512 12.6305 116.142 10.0002 119.387 10.0002C119.428 10.0002 119.47 10.0006 119.512 10.0015V10.0002H129.512V13.5002Z" fill="white" stroke="black" stroke-width="2" stroke-linecap="round"/>
<path d="M131.488 20.0002C131.488 22.5295 132.453 25.0588 134.383 26.9886L134.5 27.1055C136.43 29.0353 138.959 30.0002 141.488 30.0002V26.512C139.852 26.512 138.215 25.8877 136.966 24.639L136.849 24.5221C135.601 23.2734 134.976 21.6368 134.976 20.0002C134.976 20.0002 134.976 20.0002 134.976 20.0002L134.976 13.4883H141.488V10.0002L134.976 10.0002L134.976 0.000183105H131.488V10.0002V13.4883L131.488 20.0002Z" fill="white"/>
<path d="M131.488 20.0002C131.488 22.5295 132.453 25.0588 134.383 26.9886L134.5 27.1055C136.43 29.0353 138.959 30.0002 141.488 30.0002V26.512C139.852 26.512 138.215 25.8877 136.966 24.639L136.849 24.5221C135.601 23.2734 134.976 21.6368 134.976 20.0002M131.488 20.0002L131.488 0.000183105M131.488 20.0002L131.488 13.4883V10.0002V0.000183105M134.976 20.0002C134.976 19.8334 134.983 19.6666 134.996 19.5002M134.976 20.0002L134.976 13.4883H141.488V10.0002L134.976 10.0002L134.976 0.000183105H131.488M134.976 20.0002C134.976 20.0002 134.976 20.0002 134.976 20.0002Z" stroke="black" stroke-width="2" stroke-linecap="round"/>
<path d="M148.976 20.0002C148.976 22.5295 149.941 25.0588 151.871 26.9886L151.988 27.1055C153.918 29.0353 156.447 30.0002 158.976 30.0002V26.512C157.34 26.512 155.703 25.8877 154.454 24.639L154.338 24.5221C153.089 23.2734 152.464 21.6368 152.464 20.0002C152.464 20.0002 152.464 20.0002 152.464 20.0002L152.464 13.4883H158.976V10.0002L152.464 10.0002L152.464 0.000183105H148.976V10.0002V13.4883L148.976 20.0002Z" fill="white"/>
<path d="M148.976 20.0002C148.976 22.5295 149.941 25.0588 151.871 26.9886L151.988 27.1055C153.918 29.0353 156.447 30.0002 158.976 30.0002V26.512C157.34 26.512 155.703 25.8877 154.454 24.639L154.338 24.5221C153.089 23.2734 152.464 21.6368 152.464 20.0002M148.976 20.0002L148.976 0.000183105M148.976 20.0002L148.976 13.4883V10.0002V0.000183105M152.464 20.0002C152.464 19.8334 152.471 19.6666 152.484 19.5002M152.464 20.0002L152.464 13.4883H158.976V10.0002L152.464 10.0002L152.464 0.000183105H148.976M152.464 20.0002C152.464 20.0002 152.464 20.0002 152.464 20.0002Z" stroke="black" stroke-width="2" stroke-linecap="round"/>
<path d="M164.484 20.5H164.476V27.5623L164.488 30L160.976 30V10L160.976 0H164.464L164.464 10V12.4481C166.324 10.816 168.65 9.99999 170.976 9.99999C173.506 9.99999 176.035 10.9649 177.965 12.8947L178.082 13.0116C180.011 14.9413 180.976 17.4707 180.976 20L180.976 30.0002H177.488L177.488 20C177.488 18.3634 176.864 16.7267 175.615 15.4781L175.498 15.3612C174.25 14.1125 172.613 13.4882 170.976 13.4882C169.34 13.4882 167.703 14.1125 166.454 15.3612L166.338 15.4781C165.089 16.7268 164.464 18.3634 164.464 20C164.464 20.1668 164.471 20.3336 164.484 20.5Z" fill="white"/>
<path d="M177.469 20.5C177.482 20.3336 177.488 20.1668 177.488 20M177.488 20C177.488 18.3634 176.864 16.7267 175.615 15.4781L175.498 15.3612C174.25 14.1125 172.613 13.4882 170.976 13.4882C169.34 13.4882 167.703 14.1125 166.454 15.3612L166.338 15.4781C165.089 16.7268 164.464 18.3634 164.464 20C164.464 20.1668 164.471 20.3336 164.484 20.5H164.476V27.5623L164.488 30L160.976 30V10L160.976 0H164.464M177.488 20L177.488 30.0002H180.976L180.976 20C180.976 17.4707 180.011 14.9413 178.082 13.0116L177.965 12.8947C176.035 10.9649 173.506 9.99999 170.976 9.99999C168.65 9.99999 166.324 10.816 164.464 12.4481M164.464 0L164.464 12.4481M164.464 0L164.464 10V12.4481" stroke="black" stroke-width="2" stroke-linecap="round"/>
<path fill-rule="evenodd" clip-rule="evenodd" d="M197.498 15.3614C196.25 14.1127 194.613 13.4883 192.976 13.4884C191.34 13.4884 189.703 14.1127 188.454 15.3614L188.338 15.4783C187.089 16.727 186.464 18.3636 186.464 20.0002C186.464 21.6368 187.089 23.2734 188.338 24.5221L188.454 24.639C189.703 25.8877 191.34 26.512 192.976 26.512C194.613 26.512 196.25 25.8877 197.498 24.639L197.615 24.5221C198.864 23.2734 199.488 21.6368 199.488 20.0002C199.488 18.3636 198.864 16.727 197.615 15.4782L197.498 15.3614ZM185.988 12.8949C187.918 10.9651 190.447 10.0002 192.976 10.0002C195.506 10.0002 198.035 10.9651 199.965 12.8949L200.082 13.0117C202.011 14.9416 202.976 17.4709 202.976 20.0002C202.976 22.5295 202.011 25.0588 200.082 26.9886L199.965 27.1055C198.035 29.0353 195.506 30.0002 192.976 30.0002C190.447 30.0002 187.918 29.0353 185.988 27.1055L185.871 26.9886C183.941 25.0588 182.976 22.5295 182.976 20.0002C182.976 17.4709 183.941 14.9416 185.871 13.0117L185.988 12.8949Z" fill="white" stroke="black" stroke-width="2" stroke-linecap="round" stroke-linejoin="round"/>
<path d="M219.615 24.5221L219.498 24.639C218.25 25.8877 216.613 26.512 214.976 26.512C213.34 26.512 211.703 25.8877 210.454 24.639L210.338 24.5221C209.089 23.2734 208.476 21.6368 208.476 20.0002V10.0002H204.976L204.976 20.0002C204.976 22.5295 205.941 25.0588 207.871 26.9886L207.988 27.1055C209.918 29.0353 212.447 30.0002 214.976 30.0002C217.297 30.0002 219.619 29.1876 221.476 27.5624V30.0002H224.976V10.0002H221.476L221.488 20.0002C221.488 21.6368 220.864 23.2734 219.615 24.5221Z" fill="white" stroke="black" stroke-width="2" stroke-linecap="round"/>
<path fill-rule="evenodd" clip-rule="evenodd" d="M243.488 30.0002C243.488 31.6368 242.864 33.2734 241.615 34.5221L241.498 34.639C240.25 35.8877 238.613 36.512 236.976 36.512V40.0002C239.506 40.0002 242.035 39.0353 243.965 37.1055L244.082 36.9886C246.011 35.0588 246.976 32.5295 246.976 30.0002L246.976 20.0002C246.976 17.4709 246.011 14.9416 244.082 13.0117L243.965 12.8949C242.035 10.9651 239.506 10.0002 236.976 10.0002C234.447 10.0002 231.918 10.9651 229.988 12.8949L229.871 13.0117C227.941 14.9416 226.976 17.4709 226.976 20.0002C226.976 22.5295 227.941 25.0588 229.871 26.9886L229.988 27.1055C231.918 29.0353 234.447 30.0002 236.976 30.0002C239.302 30.0002 241.628 29.1842 243.488 27.5521V30.0002ZM236.976 13.4884C235.34 13.4883 233.703 14.1127 232.454 15.3614L232.338 15.4782C231.089 16.727 230.464 18.3636 230.464 20.0002C230.464 21.6368 231.089 23.2734 232.338 24.5221L232.454 24.639C233.703 25.8877 235.34 26.512 236.976 26.512C238.613 26.512 240.25 25.8877 241.498 24.639L241.615 24.5221C242.864 23.2734 243.488 21.6368 243.488 20.0002C243.488 18.3636 242.864 16.727 241.615 15.4783L241.498 15.3614C240.25 14.1127 238.613 13.4884 236.976 13.4884Z" fill="white"/>
<path d="M243.469 29.5002C243.482 29.6666 243.488 29.8334 243.488 30.0002M243.488 30.0002C243.488 31.6368 242.864 33.2734 241.615 34.5221L241.498 34.639C240.25 35.8877 238.613 36.512 236.976 36.512V40.0002C239.506 40.0002 242.035 39.0353 243.965 37.1055L244.082 36.9886C246.011 35.0588 246.976 32.5295 246.976 30.0002L246.976 20.0002C246.976 17.4709 246.011 14.9416 244.082 13.0117L243.965 12.8949C242.035 10.9651 239.506 10.0002 236.976 10.0002C234.447 10.0002 231.918 10.9651 229.988 12.8949L229.871 13.0117C227.941 14.9416 226.976 17.4709 226.976 20.0002C226.976 22.5295 227.941 25.0588 229.871 26.9886L229.988 27.1055C231.918 29.0353 234.447 30.0002 236.976 30.0002C239.302 30.0002 241.628 29.1842 243.488 27.5521V30.0002ZM232.454 15.3614C233.703 14.1127 235.34 13.4883 236.976 13.4884C238.613 13.4884 240.25 14.1127 241.498 15.3614L241.615 15.4783C242.864 16.727 243.488 18.3636 243.488 20.0002C243.488 21.6368 242.864 23.2734 241.615 24.5221L241.498 24.639C240.25 25.8877 238.613 26.512 236.976 26.512C235.34 26.512 233.703 25.8877 232.454 24.639L232.338 24.5221C231.089 23.2734 230.464 21.6368 230.464 20.0002C230.464 18.3636 231.089 16.727 232.338 15.4782L232.454 15.3614Z" stroke="black" stroke-width="2" stroke-linecap="round"/>
<path d="M252.484 20.5H252.476V27.5623L252.488 30L248.976 30V10L248.976 0H252.464L252.464 10V12.4481C254.324 10.816 256.65 9.99999 258.976 9.99999C261.506 9.99999 264.035 10.9649 265.965 12.8947L266.082 13.0116C268.011 14.9413 268.976 17.4707 268.976 20L268.976 30.0002H265.488L265.488 20C265.488 18.3634 264.864 16.7267 263.615 15.4781L263.498 15.3612C262.25 14.1125 260.613 13.4882 258.976 13.4882C257.34 13.4882 255.703 14.1125 254.454 15.3612L254.338 15.4781C253.089 16.7268 252.464 18.3634 252.464 20C252.464 20.1668 252.471 20.3336 252.484 20.5Z" fill="white"/>
<path d="M265.469 20.5C265.482 20.3336 265.488 20.1668 265.488 20M265.488 20C265.488 18.3634 264.864 16.7267 263.615 15.4781L263.498 15.3612C262.25 14.1125 260.613 13.4882 258.976 13.4882C257.34 13.4882 255.703 14.1125 254.454 15.3612L254.338 15.4781C253.089 16.7268 252.464 18.3634 252.464 20C252.464 20.1668 252.471 20.3336 252.484 20.5H252.476V27.5623L252.488 30L248.976 30V10L248.976 0H252.464M265.488 20L265.488 30.0002H268.976L268.976 20C268.976 17.4707 268.011 14.9413 266.082 13.0116L265.965 12.8947C264.035 10.9649 261.506 9.99999 258.976 9.99999C256.65 9.99999 254.324 10.816 252.464 12.4481M252.464 0L252.464 12.4481M252.464 0L252.464 10V12.4481" stroke="black" stroke-width="2" stroke-linecap="round"/>
<path d="M270.976 20.0002C270.976 22.5295 271.941 25.0588 273.871 26.9886L273.988 27.1055C275.918 29.0353 278.447 30.0002 280.976 30.0002V26.512C279.34 26.512 277.703 25.8877 276.454 24.639L276.338 24.5221C275.089 23.2734 274.464 21.6368 274.464 20.0002C274.464 20.0002 274.464 20.0002 274.464 20.0002L274.464 13.4883H280.976V10.0002L274.464 10.0002L274.464 0.000183105H270.976V10.0002V13.4883L270.976 20.0002Z" fill="white"/>
<path d="M270.976 20.0002C270.976 22.5295 271.941 25.0588 273.871 26.9886L273.988 27.1055C275.918 29.0353 278.447 30.0002 280.976 30.0002V26.512C279.34 26.512 277.703 25.8877 276.454 24.639L276.338 24.5221C275.089 23.2734 274.464 21.6368 274.464 20.0002M270.976 20.0002L270.976 0.000183105M270.976 20.0002L270.976 13.4883V10.0002V0.000183105M274.464 20.0002C274.464 19.8334 274.471 19.6666 274.484 19.5002M274.464 20.0002L274.464 13.4883H280.976V10.0002L274.464 10.0002L274.464 0.000183105H270.976M274.464 20.0002C274.464 20.0002 274.464 20.0002 274.464 20.0002Z" stroke="black" stroke-width="2" stroke-linecap="round"/>
<path d="M299 13.5002H289.371C288.06 13.5002 286.996 14.5635 286.996 15.8752C286.996 17.1869 288.06 18.2502 289.371 18.2502H292.973V18.2514C296.161 18.3161 298.726 20.9211 298.726 24.1252C298.726 27.3281 296.163 29.9324 292.976 29.9989V30.0002H282.976V26.5002H292.621C293.933 26.5002 294.996 25.4369 294.996 24.1252C294.996 22.8135 293.933 21.7502 292.621 21.7502H288.996V21.749C288.956 21.7498 288.915 21.7502 288.875 21.7502C285.63 21.7502 283 19.1199 283 15.8752C283 12.6305 285.63 10.0002 288.875 10.0002C288.917 10.0002 288.958 10.0006 289 10.0015V10.0002H299V13.5002Z" fill="white" stroke="black" stroke-width="2" stroke-linecap="round"/>
</g>
<defs>
<clipPath id="clip0_36_5581">
<rect width="299" height="40" fill="white"/>
</clipPath>
</defs>
</svg>
