<svg width="846" height="346" viewBox="0 0 846 346" fill="none" xmlns="http://www.w3.org/2000/svg">
<path d="M74.2269 78C66.8962 68.8554 55.6319 63 43 63C20.9086 63 3 80.9086 3 103C3 125.091 20.9086 143 43 143C55.6319 143 66.8962 137.145 74.2269 128" stroke="white" stroke-width="6"/>
<path d="M114 143V103M114 63L114 103M154 63C132.5 63 114 80.5 114 103" stroke="white" stroke-width="6" stroke-linecap="square"/>
<path d="M277.227 63V60H271.227V63H277.227ZM197.227 63V60H191.227V63H197.227ZM191.227 103C191.227 127.181 210.594 146 234.227 146V140C213.859 140 197.227 123.819 197.227 103H191.227ZM234.227 146C257.859 146 277.227 127.181 277.227 103H271.227C271.227 123.819 254.594 140 234.227 140V146ZM277.227 103V63H271.227V103H277.227ZM197.227 103V63H191.227V103H197.227Z" fill="white"/>
<path d="M394 66H397V60H394V66ZM316.5 140H313.5V146H316.5V140ZM311 83C311 95.707 321.348 106 334 106V100C324.652 100 317 92.3844 317 83L311 83ZM334 106H354V100H334V106ZM317 83C317 73.6156 324.652 66 334 66V60C321.348 60 311 70.293 311 83L317 83ZM334 66H394V60H334V66ZM397 123C397 110.293 386.652 100 374 100V106C383.348 106 391 113.616 391 123L397 123ZM374 100H354V106H374V100ZM391 123C391 132.384 383.348 140 374 140V146C386.652 146 397 135.707 397 123L391 123ZM374 140H316.5V146H374V140Z" fill="white"/>
<path d="M434.227 3V63M474.227 143C451.227 143 434.227 124 434.227 103V63M474.227 63H434.227" stroke="white" stroke-width="6" stroke-linecap="square"/>
<path d="M514.227 143V63" stroke="white" stroke-width="6" stroke-linecap="square"/>
<path d="M554.227 103C554.227 80.9086 572.135 63 594.227 63C616.318 63 634.227 80.9086 634.227 103H554.227ZM554.227 103C554.227 125.091 572.135 143 594.227 143C606.859 143 618.123 137.145 625.454 128" stroke="white" stroke-width="6"/>
<path d="M754.227 66H757.227V60H754.227V66ZM676.727 140H673.727V146H676.727V140ZM671.227 83C671.227 95.707 681.574 106 694.227 106V100C684.879 100 677.227 92.3844 677.227 83L671.227 83ZM694.227 106H714.227V100H694.227V106ZM677.227 83C677.227 73.6156 684.879 66 694.227 66V60C681.574 60 671.227 70.293 671.227 83L677.227 83ZM694.227 66H754.227V60H694.227V66ZM757.227 123C757.227 110.293 746.879 100 734.227 100V106C743.574 106 751.227 113.616 751.227 123L757.227 123ZM734.227 100H714.227V106H734.227V100ZM751.227 123C751.227 132.384 743.574 140 734.227 140V146C746.879 146 757.227 135.707 757.227 123L751.227 123ZM734.227 140H676.727V146H734.227V140Z" fill="white"/>
<path d="M794.227 3V63M834.227 143C811.227 143 794.227 124 794.227 103V63M834.227 63H794.227" stroke="white" stroke-width="6" stroke-linecap="square"/>
<path d="M3 153V213M43 293C20 293 3 274 3 253V213M43 213H3" stroke="white" stroke-width="6" stroke-linecap="square"/>
<path d="M83 243C82.998 220.908 100.908 202.996 123 202.996C145.092 202.996 163.002 220.908 163 243V293M83 243V293M83 243V153" stroke="white" stroke-width="6" stroke-linecap="square"/>
<path d="M203 253C203 275.091 220.909 293 243 293C265.091 293 283 275.091 283 253C283 230.909 265.091 213 243 213C220.909 213 203 230.909 203 253Z" stroke="white" stroke-width="6"/>
<path d="M406 213V210H400V213H406ZM326 213V210H320V213H326ZM320 253C320 277.181 339.368 296 363 296V290C342.632 290 326 273.819 326 253H320ZM363 296C386.632 296 406 277.181 406 253H400C400 273.819 383.368 290 363 290V296ZM406 253V213H400V253H406ZM326 253V213H320V253H326Z" fill="white"/>
<path d="M523 253C522.999 230.909 505.091 213 483 213C460.909 213 443.001 230.909 443 253C442.999 275.092 460.908 293.004 483 293.004C505.092 293.004 523.001 275.092 523 253ZM523 253V303C523 325.091 505.091 343 483 343C469.401 343 457.387 336.214 450.16 325.844" stroke="white" stroke-width="6"/>
<path d="M563 153V213M603 293C580 293 563 274 563 253V213M603 213H563" stroke="white" stroke-width="6" stroke-linecap="square"/>
<path d="M643 243C642.998 220.908 660.908 202.996 683 202.996C705.092 202.996 723.002 220.908 723 243V293M643 243V293M643 243V153" stroke="white" stroke-width="6" stroke-linecap="square"/>
<path d="M843 216H846V210H843V216ZM765.5 290H762.5V296H765.5V290ZM760 233C760 245.707 770.348 256 783 256V250C773.652 250 766 242.384 766 233L760 233ZM783 256H803V250H783V256ZM766 233C766 223.616 773.652 216 783 216V210C770.348 210 760 220.293 760 233L766 233ZM783 216H843V210H783V216ZM846 273C846 260.293 835.652 250 823 250V256C832.348 256 840 263.616 840 273L846 273ZM823 250H803V256H823V250ZM840 273C840 282.384 832.348 290 823 290V296C835.652 296 846 285.707 846 273L840 273ZM823 290H765.5V296H823V290Z" fill="white"/>
</svg>
