<svg width="1804" height="250" viewBox="0 0 1804 250" fill="none" xmlns="http://www.w3.org/2000/svg">
<path d="M208.311 90V85H203.311C196.088 85 188.936 86.4226 182.263 89.1866C180.92 89.743 179.602 90.3515 178.311 91.0102V90V85H173.311H153.311H148.311V90V190V195H153.311H173.311H178.311V190V140C178.311 136.717 178.957 133.466 180.214 130.433C181.47 127.4 183.312 124.644 185.633 122.322C187.955 120.001 190.711 118.159 193.744 116.903C196.777 115.647 200.028 115 203.311 115H208.311V110L208.311 90Z" fill="black" stroke="black" stroke-width="10"/>
<path d="M223.311 85H218.311V90V140C218.311 170.376 242.935 195 273.311 195C303.686 195 328.311 170.376 328.311 140V90V85H323.311H303.311H298.311V90V140C298.311 153.807 287.118 165 273.311 165C259.504 165 248.311 153.807 248.311 140V90V85H243.311H223.311Z" fill="black" stroke="black" stroke-width="10"/>
<path d="M338.311 190V195H343.311H413.311C432.641 195 448.311 179.33 448.311 160C448.311 140.67 432.641 125 413.311 125H373.311C370.549 125 368.311 122.761 368.311 120C368.311 117.239 370.549 115 373.311 115H443.311H448.311V110V90V85H443.311L373.311 85C353.981 85 338.311 100.67 338.311 120C338.311 139.33 353.981 155 373.311 155L413.311 155C416.072 155 418.311 157.239 418.311 160C418.311 162.761 416.072 165 413.311 165L343.311 165H338.311V170L338.311 190Z" fill="black" stroke="black" stroke-width="10"/>
<path d="M513.311 195H518.311V190L518.311 170V165H513.311C510.028 165 506.777 164.353 503.744 163.097C500.711 161.841 497.955 159.999 495.633 157.678C493.312 155.356 491.47 152.6 490.214 149.567C488.958 146.534 488.311 143.283 488.311 140V115H513.311H518.311V110V90V85H513.311H488.311V40V35H483.311H463.311H458.311V40V140C458.311 147.223 459.734 154.375 462.498 161.048C465.262 167.72 469.313 173.784 474.42 178.891C479.527 183.998 485.59 188.049 492.263 190.813C498.936 193.577 506.088 195 513.311 195Z" fill="black" stroke="black" stroke-width="10"/>
<rect x="5" y="-5" width="30" height="110" transform="matrix(-1 0 0 1 563.311 90)" fill="black" stroke="black" stroke-width="10"/>
<path d="M688.311 190V195H693.311H763.311C782.641 195 798.311 179.33 798.311 160C798.311 140.67 782.641 125 763.311 125H723.311C720.549 125 718.311 122.761 718.311 120C718.311 117.239 720.549 115 723.311 115H793.311H798.311V110V90V85H793.311L723.311 85C703.981 85 688.311 100.67 688.311 120C688.311 139.33 703.981 155 723.311 155L763.311 155C766.072 155 768.311 157.239 768.311 160C768.311 162.761 766.072 165 763.311 165L693.311 165H688.311V170L688.311 190Z" fill="black" stroke="black" stroke-width="10"/>
<path d="M863.311 195H868.311V190L868.311 170V165H863.311C860.028 165 856.777 164.353 853.744 163.097C850.711 161.841 847.955 159.999 845.633 157.678C843.312 155.356 841.47 152.6 840.214 149.567C838.958 146.534 838.311 143.283 838.311 140V115H863.311H868.311V110V90V85H863.311H838.311V40V35H833.311H813.311H808.311V40V140C808.311 147.223 809.734 154.375 812.498 161.048C815.262 167.72 819.313 173.784 824.42 178.891C829.527 183.998 835.59 188.049 842.263 190.813C848.936 193.577 856.088 195 863.311 195Z" fill="black" stroke="black" stroke-width="10"/>
<path d="M973.311 195H978.311V190L978.311 170V165H973.311C970.028 165 966.777 164.353 963.744 163.097C960.711 161.841 957.955 159.999 955.633 157.678C953.312 155.356 951.47 152.6 950.214 149.567C948.958 146.534 948.311 143.283 948.311 140V115H973.311H978.311V110V90V85H973.311H948.311V40V35H943.311H923.311H918.311V40V140C918.311 147.223 919.734 154.375 922.498 161.048C925.262 167.72 929.313 173.784 934.42 178.891C939.527 183.998 945.59 188.049 952.263 190.813C958.936 193.577 966.088 195 973.311 195Z" fill="black" stroke="black" stroke-width="10"/>
<path d="M1018.31 40V35H1013.31H993.311H988.311V40V190V195H993.311H1013.31H1018.31V190V140C1018.31 126.193 1029.5 115 1043.31 115C1057.12 115 1068.31 126.193 1068.31 140V190V195H1073.31H1093.31H1098.31V190V140C1098.31 109.624 1073.69 85 1043.31 85C1034.31 85 1025.81 87.1637 1018.31 90.9984V40Z" fill="black" stroke="black" stroke-width="10"/>
<path d="M1163.31 195C1193.69 195 1218.31 170.376 1218.31 140C1218.31 109.624 1193.69 85 1163.31 85C1132.94 85 1108.31 109.624 1108.31 140C1108.31 170.376 1132.94 195 1163.31 195ZM1188.31 140C1188.31 153.807 1177.12 165 1163.31 165C1149.5 165 1138.31 153.807 1138.31 140C1138.31 126.193 1149.5 115 1163.31 115C1177.12 115 1188.31 126.193 1188.31 140Z" fill="black" stroke="black" stroke-width="10"/>
<path d="M1233.31 85H1228.31V90V140C1228.31 170.376 1252.94 195 1283.31 195C1313.69 195 1338.31 170.376 1338.31 140V90V85H1333.31H1313.31H1308.31V90V140C1308.31 153.807 1297.12 165 1283.31 165C1269.5 165 1258.31 153.807 1258.31 140V90V85H1253.31H1233.31Z" fill="black" stroke="black" stroke-width="10"/>
<path d="M1364.11 221.82L1360.57 225.355L1364.11 228.891C1371.8 236.583 1381.6 241.821 1392.27 243.943C1402.94 246.065 1414 244.976 1424.05 240.813C1434.1 236.651 1442.69 229.601 1448.73 220.556C1454.77 211.512 1458 200.878 1458 190V140C1458 109.624 1433.38 85 1403 85C1372.62 85 1348 109.624 1348 140C1348 170.376 1372.62 195 1403 195C1412 195 1420.5 192.836 1428 189.002V190C1428 194.945 1426.53 199.778 1423.79 203.889C1421.04 208 1417.14 211.205 1412.57 213.097C1408 214.989 1402.97 215.484 1398.12 214.52C1393.27 213.555 1388.82 211.174 1385.32 207.678L1381.79 204.142L1378.25 207.678L1364.11 221.82ZM1403 115C1416.81 115 1428 126.193 1428 140C1428 153.807 1416.81 165 1403 165C1389.19 165 1378 153.807 1378 140C1378 126.193 1389.19 115 1403 115Z" fill="black" stroke="black" stroke-width="10"/>
<path d="M1498.31 40V35H1493.31H1473.31H1468.31V40V190V195H1473.31H1493.31H1498.31V190V140C1498.31 126.193 1509.5 115 1523.31 115C1537.12 115 1548.31 126.193 1548.31 140V190V195H1553.31H1573.31H1578.31V190V140C1578.31 109.624 1553.69 85 1523.31 85C1514.31 85 1505.81 87.1637 1498.31 90.9984V40Z" fill="black" stroke="black" stroke-width="10"/>
<path d="M1643.31 195H1648.31V190L1648.31 170V165H1643.31C1640.03 165 1636.78 164.353 1633.74 163.097C1630.71 161.841 1627.95 159.999 1625.63 157.678C1623.31 155.356 1621.47 152.6 1620.21 149.567C1618.96 146.534 1618.31 143.283 1618.31 140V115H1643.31H1648.31V110V90V85H1643.31H1618.31V40V35H1613.31H1593.31H1588.31V40V140C1588.31 147.223 1589.73 154.375 1592.5 161.048C1595.26 167.72 1599.31 173.784 1604.42 178.891C1609.53 183.998 1615.59 188.049 1622.26 190.813C1628.94 193.577 1636.09 195 1643.31 195Z" fill="black" stroke="black" stroke-width="10"/>
<path d="M1658.31 190V195H1663.31H1733.31C1752.64 195 1768.31 179.33 1768.31 160C1768.31 140.67 1752.64 125 1733.31 125H1693.31C1690.55 125 1688.31 122.761 1688.31 120C1688.31 117.239 1690.55 115 1693.31 115H1763.31H1768.31V110V90V85H1763.31L1693.31 85C1673.98 85 1658.31 100.67 1658.31 120C1658.31 139.33 1673.98 155 1693.31 155L1733.31 155C1736.07 155 1738.31 157.239 1738.31 160C1738.31 162.761 1736.07 165 1733.31 165L1663.31 165H1658.31V170L1658.31 190Z" fill="black" stroke="black" stroke-width="10"/>
<path d="M116.507 120.389L120.122 123.252L123.267 119.881L136.939 105.229L140.52 101.392L136.514 98.0013C126.934 89.8934 114.532 85 101 85C70.6243 85 46 109.624 46 140C46 170.376 70.6243 195 101 195C114.532 195 126.934 190.107 136.514 181.999L140.52 178.608L136.939 174.771L123.267 160.119L120.122 156.748L116.507 159.611C112.245 162.987 106.864 165 101 165C87.1929 165 76 153.807 76 140C76 126.193 87.1929 115 101 115C106.864 115 112.245 117.013 116.507 120.389Z" fill="black" stroke="black" stroke-width="10"/>
<path d="M672 155H676.087L676.9 150.995C677.622 147.438 678 143.761 678 140C678 109.624 653.376 85 623 85C592.624 85 568 109.624 568 140C568 170.376 592.624 195 623 195C636.532 195 648.934 190.107 658.514 181.999L662.52 178.608L658.939 174.771L645.267 160.119L642.122 156.748L638.507 159.611C634.245 162.987 628.864 165 623 165C614.825 165 607.56 161.075 602.997 155H672ZM602.997 125C607.56 118.925 614.825 115 623 115C631.175 115 638.44 118.925 643.003 125H602.997Z" fill="black" stroke="black" stroke-width="10"/>
</svg>
