<svg width="920" height="420" viewBox="0 0 920 420" fill="none" xmlns="http://www.w3.org/2000/svg">
<path d="M111.227 115C103.896 105.855 92.6319 100 80 100C57.9086 100 40 117.909 40 140C40 162.091 57.9086 180 80 180C92.6319 180 103.896 174.145 111.227 165" stroke="black" stroke-width="6"/>
<path d="M151 180V140M151 100L151 140M191 100C169.5 100 151 117.5 151 140" stroke="black" stroke-width="6" stroke-linecap="square"/>
<path d="M314.227 100V97H308.227V100H314.227ZM234.227 100V97H228.227V100H234.227ZM228.227 140C228.227 164.181 247.594 183 271.227 183V177C250.859 177 234.227 160.819 234.227 140H228.227ZM271.227 183C294.859 183 314.227 164.181 314.227 140H308.227C308.227 160.819 291.594 177 271.227 177V183ZM314.227 140V100H308.227V140H314.227ZM234.227 140V100H228.227V140H234.227Z" fill="black"/>
<path d="M431 103H434V97H431V103ZM353.5 177H350.5V183H353.5V177ZM348 120C348 132.707 358.348 143 371 143V137C361.652 137 354 129.384 354 120L348 120ZM371 143H391V137H371V143ZM354 120C354 110.616 361.652 103 371 103V97C358.348 97 348 107.293 348 120L354 120ZM371 103H431V97H371V103ZM434 160C434 147.293 423.652 137 411 137V143C420.348 143 428 150.616 428 160L434 160ZM411 137H391V143H411V137ZM428 160C428 169.384 420.348 177 411 177V183C423.652 183 434 172.707 434 160L428 160ZM411 177H353.5V183H411V177Z" fill="black"/>
<path d="M471.227 40V100M511.227 180C488.227 180 471.227 161 471.227 140V100M511.227 100H471.227" stroke="black" stroke-width="6" stroke-linecap="square"/>
<path d="M551.227 180V100" stroke="black" stroke-width="6" stroke-linecap="square"/>
<path d="M591.227 140C591.227 117.909 609.135 100 631.227 100C653.318 100 671.227 117.909 671.227 140H591.227ZM591.227 140C591.227 162.091 609.135 180 631.227 180C643.859 180 655.123 174.145 662.454 165" stroke="black" stroke-width="6"/>
<path d="M791.227 103H794.227V97H791.227V103ZM713.727 177H710.727V183H713.727V177ZM708.227 120C708.227 132.707 718.574 143 731.227 143V137C721.879 137 714.227 129.384 714.227 120L708.227 120ZM731.227 143H751.227V137H731.227V143ZM714.227 120C714.227 110.616 721.879 103 731.227 103V97C718.574 97 708.227 107.293 708.227 120L714.227 120ZM731.227 103H791.227V97H731.227V103ZM794.227 160C794.227 147.293 783.879 137 771.227 137V143C780.574 143 788.227 150.616 788.227 160L794.227 160ZM771.227 137H751.227V143H771.227V137ZM788.227 160C788.227 169.384 780.574 177 771.227 177V183C783.879 183 794.227 172.707 794.227 160L788.227 160ZM771.227 177H713.727V183H771.227V177Z" fill="black"/>
<path d="M831.227 40V100M871.227 180C848.227 180 831.227 161 831.227 140V100M871.227 100H831.227" stroke="black" stroke-width="6" stroke-linecap="square"/>
<path d="M40 190V250M80 330C57 330 40 311 40 290V250M80 250H40" stroke="black" stroke-width="6" stroke-linecap="square"/>
<path d="M120 280C119.998 257.908 137.908 239.996 160 239.996C182.092 239.996 200.002 257.908 200 280V330M120 280V330M120 280V190" stroke="black" stroke-width="6" stroke-linecap="square"/>
<path d="M240 290C240 312.091 257.909 330 280 330C302.091 330 320 312.091 320 290C320 267.909 302.091 250 280 250C257.909 250 240 267.909 240 290Z" stroke="black" stroke-width="6"/>
<path d="M443 250V247H437V250H443ZM363 250V247H357V250H363ZM357 290C357 314.181 376.368 333 400 333V327C379.632 327 363 310.819 363 290H357ZM400 333C423.632 333 443 314.181 443 290H437C437 310.819 420.368 327 400 327V333ZM443 290V250H437V290H443ZM363 290V250H357V290H363Z" fill="black"/>
<path d="M560 290C559.999 267.909 542.091 250 520 250C497.909 250 480.001 267.909 480 290C479.999 312.092 497.908 330.004 520 330.004C542.092 330.004 560.001 312.092 560 290ZM560 290V340C560 362.091 542.091 380 520 380C506.401 380 494.387 373.214 487.16 362.844" stroke="black" stroke-width="6"/>
<path d="M600 190V250M640 330C617 330 600 311 600 290V250M640 250H600" stroke="black" stroke-width="6" stroke-linecap="square"/>
<path d="M680 280C679.998 257.908 697.908 239.996 720 239.996C742.092 239.996 760.002 257.908 760 280V330M680 280V330M680 280V190" stroke="black" stroke-width="6" stroke-linecap="square"/>
<path d="M880 253H883V247H880V253ZM802.5 327H799.5V333H802.5V327ZM797 270C797 282.707 807.348 293 820 293V287C810.652 287 803 279.384 803 270L797 270ZM820 293H840V287H820V293ZM803 270C803 260.616 810.652 253 820 253V247C807.348 247 797 257.293 797 270L803 270ZM820 253H880V247H820V253ZM883 310C883 297.293 872.652 287 860 287V293C869.348 293 877 300.616 877 310L883 310ZM860 287H840V293H860V287ZM877 310C877 319.384 869.348 327 860 327V333C872.652 333 883 322.707 883 310L877 310ZM860 327H802.5V333H860V327Z" fill="black"/>
</svg>
