<svg width="901" height="229" viewBox="0 0 901 229" fill="none" xmlns="http://www.w3.org/2000/svg">
<path d="M275.656 90V95H280.656H300.656H305.656V90C305.656 76.1929 316.848 65 330.656 65C344.463 65 355.656 76.1929 355.656 90C355.656 99.0964 350.8 107.064 343.516 111.444C327.533 121.054 316.821 138.579 316.821 158.61V163.61H321.821H341.821H346.821V158.61C346.821 149.513 351.677 141.546 358.961 137.166C374.944 127.555 385.656 110.031 385.656 90C385.656 59.6243 361.031 35 330.656 35C300.28 35 275.656 59.6243 275.656 90ZM341.821 193.61H346.821V188.61V173.61V168.61H341.821H321.821H316.821V173.61V188.61V193.61H321.821H341.821Z" fill="white" stroke="white" stroke-width="10"/>
<path d="M395.656 90V95H400.656H420.656H425.656V90C425.656 76.1929 436.848 65 450.656 65C464.463 65 475.656 76.1929 475.656 90C475.656 99.0964 470.8 107.064 463.516 111.444C447.533 121.054 436.821 138.579 436.821 158.61V163.61H441.821H461.821H466.821V158.61C466.821 149.513 471.677 141.546 478.961 137.166C494.944 127.555 505.656 110.031 505.656 90C505.656 59.6243 481.031 35 450.656 35C420.28 35 395.656 59.6243 395.656 90ZM461.821 193.61H466.821V188.61V173.61V168.61H461.821H441.821H436.821V173.61V188.61V193.61H441.821H461.821Z" fill="white" stroke="white" stroke-width="10"/>
<path d="M515.656 90V95H520.656H540.656H545.656V90C545.656 76.1929 556.848 65 570.656 65C584.463 65 595.656 76.1929 595.656 90C595.656 99.0964 590.8 107.064 583.516 111.444C567.533 121.054 556.821 138.579 556.821 158.61V163.61H561.821H581.821H586.821V158.61C586.821 149.513 591.677 141.546 598.961 137.166C614.944 127.555 625.656 110.031 625.656 90C625.656 59.6243 601.031 35 570.656 35C540.28 35 515.656 59.6243 515.656 90ZM581.821 193.61H586.821V188.61V173.61V168.61H581.821H561.821H556.821V173.61V188.61V193.61H561.821H581.821Z" fill="white" stroke="white" stroke-width="10"/>
</svg>
