<svg width="761" height="123" viewBox="0 0 761 123" fill="none" xmlns="http://www.w3.org/2000/svg">
<path d="M5.74413 102H1.56813C0.608125 102 0.128125 101.424 0.128125 100.272V30.288C0.128125 29.136 0.608125 28.56 1.56813 28.56H5.74413C6.80013 28.56 7.32812 29.136 7.32812 30.288V36.336H7.90413C8.96013 34.32 10.8321 32.544 13.5201 31.008C16.2081 29.376 19.5201 28.56 23.4561 28.56H29.0721C30.1281 28.56 30.6561 29.088 30.6561 30.144V33.6C30.6561 34.656 30.1281 35.136 29.0721 35.04H22.3041C17.6001 35.04 13.9041 36.48 11.2161 39.36C8.62413 42.24 7.32812 46.128 7.32812 51.024V100.272C7.32812 101.424 6.80013 102 5.74413 102ZM80.4048 102H71.1888C64.9488 102 60.0048 100.176 56.3568 96.528C52.8048 92.88 51.0288 87.888 51.0288 81.552V49.008C51.0288 42.672 52.8048 37.68 56.3568 34.032C60.0048 30.384 64.9488 28.56 71.1888 28.56H101.717C102.677 28.56 103.157 29.136 103.157 30.288V100.272C103.157 101.424 102.677 102 101.717 102H97.5408C96.4848 102 95.9568 101.424 95.9568 100.272V94.512H95.3808C92.8848 99.504 87.8928 102 80.4048 102ZM95.9568 81.408V36.336C95.9568 35.472 95.4768 35.04 94.5168 35.04H71.7648C67.3488 35.04 63.9888 36.288 61.6848 38.784C59.3808 41.28 58.2288 44.784 58.2288 49.296V81.264C58.2288 85.776 59.3808 89.28 61.6848 91.776C63.9888 94.272 67.3488 95.52 71.7648 95.52H81.1248C85.7328 95.52 89.3328 94.32 91.9248 91.92C94.6128 89.424 95.9568 85.92 95.9568 81.408ZM137.566 102H133.39C132.43 102 131.95 101.424 131.95 100.272V30.288C131.95 29.136 132.43 28.56 133.39 28.56H137.566C138.622 28.56 139.15 29.136 139.15 30.288V36.048H139.726C142.414 31.056 147.406 28.56 154.702 28.56H164.206C170.35 28.56 175.198 30.384 178.75 34.032C182.302 37.68 184.078 42.672 184.078 49.008V100.272C184.078 101.424 183.598 102 182.638 102H178.462C177.406 102 176.878 101.424 176.878 100.272V49.296C176.878 44.784 175.726 41.28 173.422 38.784C171.118 36.288 167.758 35.04 163.342 35.04H153.982C149.374 35.04 145.726 36.288 143.038 38.784C140.446 41.184 139.15 44.64 139.15 49.152V100.272C139.15 101.424 138.622 102 137.566 102ZM240.214 102H230.566C224.422 102 219.574 100.176 216.022 96.528C212.47 92.88 210.694 87.888 210.694 81.552V49.008C210.694 42.672 212.47 37.68 216.022 34.032C219.574 30.384 224.422 28.56 230.566 28.56H240.214C247.606 28.56 252.646 31.056 255.334 36.048H255.91V2.49599C255.91 1.344 256.39 0.767999 257.35 0.767999H261.526C262.582 0.767999 263.11 1.344 263.11 2.49599V100.272C263.11 101.424 262.582 102 261.526 102H257.35C256.39 102 255.91 101.424 255.91 100.272V94.512H255.334C252.646 99.504 247.606 102 240.214 102ZM255.91 81.408V49.152C255.91 44.64 254.566 41.184 251.878 38.784C249.286 36.288 245.686 35.04 241.078 35.04H231.43C227.014 35.04 223.654 36.288 221.35 38.784C219.046 41.28 217.894 44.784 217.894 49.296V81.264C217.894 85.776 219.046 89.28 221.35 91.776C223.654 94.272 227.014 95.52 231.43 95.52H241.078C245.686 95.52 249.286 94.32 251.878 91.92C254.566 89.424 255.91 85.92 255.91 81.408ZM323.001 102H310.617C304.377 102 299.433 100.176 295.785 96.528C292.233 92.88 290.457 87.888 290.457 81.552V49.008C290.457 42.672 292.233 37.68 295.785 34.032C299.433 30.384 304.377 28.56 310.617 28.56H323.001C329.241 28.56 334.185 30.384 337.833 34.032C341.481 37.68 343.305 42.672 343.305 49.008V81.552C343.305 87.888 341.481 92.88 337.833 96.528C334.185 100.176 329.241 102 323.001 102ZM311.193 95.52H322.425C326.841 95.52 330.201 94.32 332.505 91.92C334.905 89.424 336.105 85.92 336.105 81.408V49.152C336.105 44.64 334.905 41.184 332.505 38.784C330.201 36.288 326.841 35.04 322.425 35.04H311.193C306.777 35.04 303.417 36.288 301.113 38.784C298.809 41.184 297.657 44.64 297.657 49.152V81.408C297.657 85.92 298.809 89.424 301.113 91.92C303.417 94.32 306.777 95.52 311.193 95.52ZM376.15 102H371.974C371.014 102 370.534 101.424 370.534 100.272V30.288C370.534 29.136 371.014 28.56 371.974 28.56H376.15C377.206 28.56 377.734 29.136 377.734 30.288V36.048H378.31C381.094 31.056 386.182 28.56 393.574 28.56H399.478C407.926 28.56 413.782 31.92 417.046 38.64C418.486 35.28 420.934 32.784 424.39 31.152C427.846 29.424 431.398 28.56 435.046 28.56H440.374C446.614 28.56 451.51 30.384 455.062 34.032C458.614 37.68 460.39 42.672 460.39 49.008V100.272C460.39 101.424 459.862 102 458.806 102H454.63C453.574 102 453.046 101.424 453.046 100.272V49.296C453.046 44.688 451.894 41.184 449.59 38.784C447.286 36.288 443.926 35.04 439.51 35.04H434.182C429.574 35.04 425.926 36.384 423.238 39.072C420.55 41.664 419.206 45.216 419.206 49.728V100.272C419.206 101.424 418.678 102 417.622 102H413.446C412.39 102 411.862 101.424 411.862 100.272V49.296C411.862 44.688 410.71 41.184 408.406 38.784C406.102 36.288 402.742 35.04 398.326 35.04H392.566C387.958 35.04 384.31 36.288 381.622 38.784C379.03 41.184 377.734 44.64 377.734 49.152V100.272C377.734 101.424 377.206 102 376.15 102ZM529.446 116.256H479.334C478.182 116.256 477.606 115.728 477.606 114.672V112.512C477.606 111.552 478.182 111.072 479.334 111.072H529.446C530.598 111.072 531.174 111.552 531.174 112.512V114.672C531.174 115.728 530.598 116.256 529.446 116.256ZM577.696 97.824H568.336C562.192 97.824 557.296 96 553.648 92.352C550.096 88.704 548.32 83.76 548.32 77.52V49.008C548.32 42.672 550.096 37.68 553.648 34.032C557.296 30.384 562.24 28.56 568.48 28.56H599.008C600.064 28.56 600.592 29.136 600.592 30.288V101.712C600.592 108.048 598.768 113.04 595.12 116.688C591.472 120.336 586.528 122.16 580.288 122.16H554.08C553.024 122.16 552.496 121.632 552.496 120.576V117.12C552.496 116.16 553.024 115.68 554.08 115.68H579.712C584.128 115.68 587.488 114.432 589.792 111.936C592.096 109.536 593.248 106.032 593.248 101.424V90.336H592.672C590.272 95.328 585.28 97.824 577.696 97.824ZM593.248 77.232V36.336C593.248 35.472 592.816 35.04 591.952 35.04H569.2C564.784 35.04 561.376 36.288 558.976 38.784C556.672 41.184 555.52 44.688 555.52 49.296V77.232C555.52 81.744 556.672 85.248 558.976 87.744C561.376 90.144 564.784 91.344 569.2 91.344H578.416C583.024 91.344 586.624 90.144 589.216 87.744C591.904 85.248 593.248 81.744 593.248 77.232ZM629.948 16.464V2.63999C629.948 1.58399 630.428 1.05599 631.388 1.05599H635.708C636.668 1.05599 637.148 1.58399 637.148 2.63999V16.464C637.148 17.616 636.668 18.192 635.708 18.192H631.388C630.428 18.192 629.948 17.616 629.948 16.464ZM629.948 100.272V30.288C629.948 29.136 630.428 28.56 631.388 28.56H635.564C636.62 28.56 637.148 29.136 637.148 30.288V100.272C637.148 101.424 636.668 102 635.708 102H631.388C630.428 102 629.948 101.424 629.948 100.272ZM681.782 28.56H694.886C696.038 28.56 696.614 29.088 696.614 30.144V33.456C696.614 34.512 696.038 35.04 694.886 35.04H681.782C680.918 35.04 680.486 35.472 680.486 36.336V100.272C680.486 101.424 679.958 102 678.902 102H674.726C673.67 102 673.142 101.424 673.142 100.272V36.336C673.142 35.472 672.71 35.04 671.846 35.04H662.63C661.574 35.04 661.046 34.512 661.046 33.456V30.144C661.046 29.088 661.574 28.56 662.63 28.56H671.846C672.71 28.56 673.142 28.128 673.142 27.264V20.928C673.142 7.488 679.238 0.767999 691.43 0.767999H694.886C696.038 0.767999 696.614 1.296 696.614 2.352V5.664C696.614 6.71999 696.038 7.24799 694.886 7.24799H692.15C687.83 7.24799 684.806 8.39999 683.078 10.704C681.35 13.008 680.486 16.512 680.486 21.216V27.264C680.486 28.128 680.918 28.56 681.782 28.56ZM741.216 102H716.16C715.104 102 714.576 101.472 714.576 100.416V97.104C714.576 96.144 715.104 95.664 716.16 95.664H740.496C749.136 95.664 753.456 92.304 753.456 85.584V82.128C753.456 75.888 750.768 71.808 745.392 69.888L727.392 62.976C722.496 61.056 718.992 58.8 716.88 56.208C714.864 53.616 713.856 50.016 713.856 45.408C713.856 34.176 720.048 28.56 732.432 28.56H755.76C756.816 28.56 757.344 29.088 757.344 30.144V33.456C757.344 34.416 756.816 34.896 755.76 34.896H733.152C729.216 34.896 726.24 35.76 724.224 37.488C722.304 39.216 721.344 41.232 721.344 43.536V46.848C721.344 49.536 722.064 51.648 723.504 53.184C725.04 54.72 727.344 56.016 730.416 57.072L748.416 64.272C753.408 65.904 756.72 68.352 758.352 71.616C760.08 74.784 760.944 79.248 760.944 85.008C760.944 90.768 759.312 95.04 756.048 97.824C752.88 100.608 747.936 102 741.216 102Z" fill="white"/>
</svg>
