<svg width="821" height="149" viewBox="0 0 821 149" fill="none" xmlns="http://www.w3.org/2000/svg">
<path d="M290.655 0C318.27 0 340.655 22.3858 340.655 50C340.655 68.2047 330.926 84.137 316.384 92.8811C307.659 98.1276 301.821 107.687 301.821 118.61H281.821C281.821 100.405 291.55 84.4728 306.092 75.7287C314.818 70.4822 320.655 60.9228 320.655 50C320.655 33.4315 307.224 20 290.655 20C274.087 20 260.655 33.4315 260.655 50H240.655C240.655 22.3858 263.041 0 290.655 0Z" fill="#101010"/>
<path d="M301.821 133.61V148.61H281.821V133.61H301.821Z" fill="#101010"/>
<path d="M410.655 0C438.27 0 460.655 22.3858 460.655 50C460.655 68.2047 450.926 84.137 436.384 92.8811C427.659 98.1276 421.821 107.687 421.821 118.61H401.821C401.821 100.405 411.55 84.4728 426.092 75.7287C434.818 70.4822 440.655 60.9228 440.655 50C440.655 33.4315 427.224 20 410.655 20C394.087 20 380.655 33.4315 380.655 50H360.655C360.655 22.3858 383.041 0 410.655 0Z" fill="#101010"/>
<path d="M421.821 133.61V148.61H401.821V133.61H421.821Z" fill="#101010"/>
<path d="M530.655 0C558.27 0 580.655 22.3858 580.655 50C580.655 68.2047 570.926 84.137 556.384 92.8811C547.659 98.1276 541.821 107.687 541.821 118.61H521.821C521.821 100.405 531.55 84.4728 546.092 75.7287C554.818 70.4822 560.655 60.9228 560.655 50C560.655 33.4315 547.224 20 530.655 20C514.087 20 500.655 33.4315 500.655 50H480.655C480.655 22.3858 503.041 0 530.655 0Z" fill="#101010"/>
<path d="M541.821 133.61V148.61H521.821V133.61H541.821Z" fill="#101010"/>
</svg>
