<svg width="100" height="100" viewBox="0 0 100 100" fill="none" xmlns="http://www.w3.org/2000/svg">
<path d="M50.0009 40C47.2851 40 46.9443 40.0119 45.8776 40.0604C44.813 40.1092 44.0863 40.2777 43.4505 40.525C42.7927 40.7804 42.2348 41.1221 41.679 41.6781C41.1227 42.234 40.781 42.7919 40.5248 43.4494C40.2769 44.0854 40.1081 44.8123 40.0602 45.8765C40.0125 46.9431 40 47.2841 40 50C40 52.7159 40.0121 53.0557 40.0604 54.1223C40.1094 55.1869 40.2779 55.9136 40.525 56.5494C40.7806 57.2071 41.1223 57.765 41.6783 58.3209C42.234 58.8771 42.7919 59.2196 43.4492 59.475C44.0855 59.7223 44.8123 59.8908 45.8767 59.9396C46.9434 59.9881 47.284 60 49.9997 60C52.7157 60 53.0555 59.9881 54.1222 59.9396C55.1868 59.8908 55.9144 59.7223 56.5506 59.475C57.2081 59.2196 57.7652 58.8771 58.3208 58.3209C58.8771 57.765 59.2188 57.2071 59.475 56.5496C59.7209 55.9136 59.8896 55.1867 59.9396 54.1225C59.9875 53.0559 60 52.7159 60 50C60 47.2841 59.9875 46.9433 59.9396 45.8766C59.8896 44.8121 59.7209 44.0854 59.475 43.4496C59.2188 42.7919 58.8771 42.234 58.3208 41.6781C57.7646 41.1219 57.2083 40.7802 56.5499 40.525C55.9124 40.2777 55.1854 40.1092 54.1208 40.0604C53.0541 40.0119 52.7145 40 49.9978 40H50.0009ZM49.1039 41.8021C49.3701 41.8017 49.6672 41.8021 50.0009 41.8021C52.6709 41.8021 52.9874 41.8117 54.0418 41.8596C55.0168 41.9042 55.546 42.0671 55.8985 42.204C56.3652 42.3852 56.6979 42.6019 57.0477 42.9519C57.3977 43.3019 57.6143 43.6352 57.796 44.1019C57.9329 44.454 58.096 44.9831 58.1404 45.9581C58.1883 47.0123 58.1987 47.3289 58.1987 49.9977C58.1987 52.6664 58.1883 52.9831 58.1404 54.0373C58.0958 55.0123 57.9329 55.5414 57.796 55.8935C57.6147 56.3602 57.3977 56.6925 57.0477 57.0423C56.6977 57.3923 56.3654 57.6089 55.8985 57.7902C55.5464 57.9277 55.0168 58.0902 54.0418 58.1348C52.9876 58.1827 52.6709 58.1931 50.0009 58.1931C47.3307 58.1931 47.0143 58.1827 45.9601 58.1348C44.9851 58.0898 44.4559 57.9269 44.1032 57.79C43.6365 57.6088 43.3032 57.3921 42.9532 57.0421C42.6032 56.6921 42.3865 56.3596 42.2048 55.8927C42.0679 55.5407 41.9048 55.0115 41.8604 54.0365C41.8125 52.9823 41.8029 52.6656 41.8029 49.9952C41.8029 47.3248 41.8125 47.0098 41.8604 45.9556C41.905 44.9806 42.0679 44.4515 42.2048 44.099C42.3861 43.6323 42.6032 43.299 42.9532 42.949C43.3032 42.599 43.6365 42.3823 44.1032 42.2006C44.4557 42.0631 44.9851 41.9006 45.9601 41.8558C46.8826 41.8142 47.2401 41.8017 49.1039 41.7996V41.8021ZM55.3389 43.4625C54.6764 43.4625 54.1389 43.9994 54.1389 44.6621C54.1389 45.3246 54.6764 45.8621 55.3389 45.8621C56.0014 45.8621 56.5389 45.3246 56.5389 44.6621C56.5389 43.9996 56.0014 43.4621 55.3389 43.4621V43.4625ZM50.0009 44.8646C47.1648 44.8646 44.8655 47.1639 44.8655 50C44.8655 52.8361 47.1648 55.1343 50.0009 55.1343C52.837 55.1343 55.1355 52.8361 55.1355 50C55.1355 47.1639 52.8368 44.8646 50.0007 44.8646H50.0009ZM50.0009 46.6666C51.8418 46.6666 53.3343 48.1589 53.3343 50C53.3343 51.8408 51.8418 53.3334 50.0009 53.3334C48.1599 53.3334 46.6676 51.8408 46.6676 50C46.6676 48.1589 48.1599 46.6666 50.0009 46.6666Z" fill="white"/>
</svg>
