<svg width="49" height="48" viewBox="0 0 49 48" fill="none" xmlns="http://www.w3.org/2000/svg">
<path d="M24.5119 0.363647C14.4368 0.363647 11.4902 0.373829 10.9174 0.420375C8.84981 0.588738 7.56323 0.907647 6.16157 1.59128C5.08138 2.11674 4.22947 2.72583 3.3887 3.57965C1.8575 5.13674 0.929494 7.05237 0.593557 9.32947C0.430229 10.4349 0.382715 10.6604 0.373064 16.3069C0.369352 18.1891 0.373064 20.6662 0.373064 23.9887C0.373064 33.8506 0.3842 36.7342 0.432456 37.2942C0.599497 39.2651 0.915017 40.5051 1.58318 41.8615C2.86011 44.4578 5.2989 46.4069 8.172 47.1342C9.16681 47.3851 10.2656 47.5233 11.6761 47.5887C12.2738 47.6142 18.3652 47.6324 24.4603 47.6324C30.5554 47.6324 36.6505 47.6251 37.2333 47.596C38.8666 47.5207 39.815 47.396 40.8637 47.1306C43.7553 46.3996 46.1496 44.4796 47.4525 41.8469C48.1076 40.5233 48.4399 39.236 48.5902 37.368C48.6229 36.9607 48.6366 30.4673 48.6366 23.9826C48.6366 17.4967 48.6218 11.0153 48.5891 10.608C48.4369 8.70983 48.1047 7.43347 47.4284 6.08438C46.8734 4.98001 46.2572 4.15528 45.3626 3.31201C43.7661 1.81819 41.8136 0.909102 39.4869 0.580375C38.3595 0.420738 38.135 0.373466 32.3665 0.363647H24.5119Z" fill="url(#paint0_radial_318_259)"/>
<path d="M24.5119 0.363647C14.4368 0.363647 11.4902 0.373829 10.9174 0.420375C8.84981 0.588738 7.56323 0.907647 6.16157 1.59128C5.08138 2.11674 4.22947 2.72583 3.3887 3.57965C1.8575 5.13674 0.929494 7.05237 0.593557 9.32947C0.430229 10.4349 0.382715 10.6604 0.373064 16.3069C0.369352 18.1891 0.373064 20.6662 0.373064 23.9887C0.373064 33.8506 0.3842 36.7342 0.432456 37.2942C0.599497 39.2651 0.915017 40.5051 1.58318 41.8615C2.86011 44.4578 5.2989 46.4069 8.172 47.1342C9.16681 47.3851 10.2656 47.5233 11.6761 47.5887C12.2738 47.6142 18.3652 47.6324 24.4603 47.6324C30.5554 47.6324 36.6505 47.6251 37.2333 47.596C38.8666 47.5207 39.815 47.396 40.8637 47.1306C43.7553 46.3996 46.1496 44.4796 47.4525 41.8469C48.1076 40.5233 48.4399 39.236 48.5902 37.368C48.6229 36.9607 48.6366 30.4673 48.6366 23.9826C48.6366 17.4967 48.6218 11.0153 48.5891 10.608C48.4369 8.70983 48.1047 7.43347 47.4284 6.08438C46.8734 4.98001 46.2572 4.15528 45.3626 3.31201C43.7661 1.81819 41.8136 0.909102 39.4869 0.580375C38.3595 0.420738 38.135 0.373466 32.3665 0.363647H24.5119Z" fill="url(#paint1_radial_318_259)"/>
<path d="M24.5007 6.54547C19.6618 6.54547 19.0545 6.5662 17.1539 6.65093C15.2571 6.73602 13.9623 7.0302 12.8294 7.46183C11.6576 7.90765 10.6635 8.50402 9.67312 9.47456C8.68201 10.4447 8.07324 11.4186 7.61666 12.5662C7.17494 13.6764 6.87426 14.9451 6.78889 16.8026C6.70388 18.6644 6.68161 19.2597 6.68161 24C6.68161 28.7404 6.70314 29.3335 6.78926 31.1953C6.87649 33.0535 7.17679 34.3218 7.61704 35.4317C8.0725 36.5797 8.68127 37.5535 9.672 38.5237C10.662 39.4946 11.6561 40.0924 12.8272 40.5382C13.9609 40.9698 15.256 41.264 17.1524 41.3491C19.053 41.4338 19.6599 41.4546 24.4985 41.4546C29.3379 41.4546 29.9433 41.4338 31.8438 41.3491C33.7407 41.264 35.0369 40.9698 36.1705 40.5382C37.3421 40.0924 38.3347 39.4946 39.3246 38.5237C40.3157 37.5535 40.9245 36.5797 41.3811 35.432C41.8191 34.3218 42.1198 33.0531 42.2089 31.1957C42.2942 29.3338 42.3165 28.7404 42.3165 24C42.3165 19.2597 42.2942 18.6647 42.2089 16.8029C42.1198 14.9447 41.8191 13.6764 41.3811 12.5666C40.9245 11.4186 40.3157 10.4447 39.3246 9.47456C38.3335 8.50365 37.3424 7.90729 36.1694 7.46183C35.0336 7.0302 33.7381 6.73602 31.8412 6.65093C29.9407 6.5662 29.3356 6.54547 24.4952 6.54547H24.5007ZM22.9023 9.69093C23.3767 9.6902 23.9061 9.69093 24.5007 9.69093C29.258 9.69093 29.8219 9.70765 31.7005 9.79129C33.4378 9.86911 34.3806 10.1535 35.0087 10.3924C35.8402 10.7087 36.433 11.0869 37.0562 11.6978C37.6799 12.3087 38.0659 12.8906 38.3896 13.7051C38.6335 14.3197 38.9241 15.2433 39.0032 16.9451C39.0886 18.7851 39.1071 19.3378 39.1071 23.996C39.1071 28.6542 39.0886 29.2069 39.0032 31.0469C38.9237 32.7487 38.6335 33.6724 38.3896 34.2869C38.0666 35.1015 37.6799 35.6815 37.0562 36.292C36.4326 36.9029 35.8405 37.2811 35.0087 37.5975C34.3814 37.8375 33.4378 38.1211 31.7005 38.1989C29.8223 38.2826 29.258 38.3007 24.5007 38.3007C19.7431 38.3007 19.1792 38.2826 17.3009 38.1989C15.5637 38.1204 14.6209 37.836 13.9924 37.5971C13.1609 37.2807 12.567 36.9026 11.9434 36.2917C11.3198 35.6807 10.9337 35.1004 10.61 34.2855C10.3661 33.6709 10.0755 32.7473 9.99643 31.0455C9.91106 29.2055 9.89398 28.6527 9.89398 23.9917C9.89398 19.3306 9.91106 18.7807 9.99643 16.9407C10.0759 15.2389 10.3661 14.3153 10.61 13.7C10.933 12.8855 11.3198 12.3037 11.9434 11.6927C12.567 11.0818 13.1609 10.7037 13.9924 10.3866C14.6205 10.1466 15.5637 9.86293 17.3009 9.78474C18.9446 9.71202 19.5816 9.6902 22.9023 9.68656V9.69093ZM34.0116 12.5891C32.8312 12.5891 31.8735 13.5262 31.8735 14.6829C31.8735 15.8393 32.8312 16.7775 34.0116 16.7775C35.1921 16.7775 36.1498 15.8393 36.1498 14.6829C36.1498 13.5266 35.1921 12.5884 34.0116 12.5884V12.5891ZM24.5007 15.0364C19.4476 15.0364 15.3506 19.0498 15.3506 24C15.3506 28.9502 19.4476 32.9618 24.5007 32.9618C29.5539 32.9618 33.6494 28.9502 33.6494 24C33.6494 19.0498 29.5535 15.0364 24.5004 15.0364H24.5007ZM24.5007 18.1818C27.7807 18.1818 30.4399 20.7866 30.4399 24C30.4399 27.2131 27.7807 29.8182 24.5007 29.8182C21.2204 29.8182 18.5615 27.2131 18.5615 24C18.5615 20.7866 21.2204 18.1818 24.5007 18.1818V18.1818Z" fill="white"/>
<defs>
<radialGradient id="paint0_radial_318_259" cx="0" cy="0" r="1" gradientUnits="userSpaceOnUse" gradientTransform="translate(13.1919 51.2731) rotate(-90) scale(46.8468 44.4897)">
<stop stop-color="#FFDD55"/>
<stop offset="0.1" stop-color="#FFDD55"/>
<stop offset="0.5" stop-color="#FF543E"/>
<stop offset="1" stop-color="#C837AB"/>
</radialGradient>
<radialGradient id="paint1_radial_318_259" cx="0" cy="0" r="1" gradientUnits="userSpaceOnUse" gradientTransform="translate(-7.71326 3.76881) rotate(78.4484) scale(20.9579 88.0659)">
<stop stop-color="#3771C8"/>
<stop offset="0.128" stop-color="#3771C8"/>
<stop offset="1" stop-color="#6600FF" stop-opacity="0"/>
</radialGradient>
</defs>
</svg>
