<svg width="50" height="50" viewBox="0 0 50 50" fill="none" xmlns="http://www.w3.org/2000/svg">
<g clip-path="url(#clip0_407_265)">
<path fill-rule="evenodd" clip-rule="evenodd" d="M0 24.25C0 10.3188 10.9187 0 25 0C39.0812 0 50 10.325 50 24.2563C50 38.1875 39.0812 48.5063 25 48.5063C22.4688 48.5063 20.0438 48.1688 17.7625 47.5438C17.3188 47.425 16.8438 47.4563 16.425 47.6438L11.4625 49.8313C11.1628 49.9635 10.8352 50.02 10.5085 49.996C10.1818 49.9719 9.86601 49.868 9.58889 49.6933C9.31177 49.5187 9.08179 49.2786 8.91917 48.9942C8.75655 48.7099 8.66626 48.3899 8.65625 48.0625L8.51875 43.6125C8.50625 43.0625 8.25625 42.55 7.85 42.1875C2.9875 37.8375 0 31.5375 0 24.25ZM17.3312 19.6937L9.98749 31.3437C9.28124 32.4625 10.6562 33.7187 11.7062 32.9187L19.5938 26.9312C19.8533 26.7341 20.1699 26.6269 20.4958 26.6258C20.8217 26.6246 21.1391 26.7297 21.4 26.925L27.2438 31.3062C27.6583 31.6175 28.1328 31.8395 28.6374 31.9581C29.142 32.0768 29.6657 32.0895 30.1755 31.9956C30.6853 31.9016 31.17 31.703 31.5992 31.4122C32.0283 31.1214 32.3925 30.7449 32.6688 30.3062L40.0188 18.6625C40.7188 17.5437 39.3438 16.2812 38.2938 17.0812L30.4063 23.0687C30.1467 23.2659 29.8301 23.3731 29.5042 23.3742C29.1783 23.3753 28.8609 23.2703 28.6 23.075L22.7563 18.6937C22.3418 18.3825 21.8672 18.1605 21.3626 18.0418C20.858 17.9232 20.3343 17.9104 19.8245 18.0044C19.3147 18.0984 18.83 18.297 18.4008 18.5878C17.9717 18.8785 17.6075 19.2551 17.3312 19.6937Z" fill="white"/>
</g>
<defs>
<clipPath id="clip0_407_265">
<rect width="50" height="50" fill="white"/>
</clipPath>
</defs>
</svg>
