<svg width="50" height="51" viewBox="0 0 50 51" fill="none" xmlns="http://www.w3.org/2000/svg">
<g clip-path="url(#clip0_288_434)">
<path d="M25 0.75C10.9187 0.75 0 11.0688 0 25C0 32.2875 2.9875 38.5875 7.85 42.9375C8.25625 43.3 8.50625 43.8125 8.51875 44.3625L8.65625 48.8125C8.66626 49.1399 8.75655 49.4599 8.91917 49.7442C9.08179 50.0286 9.31177 50.2687 9.58889 50.4433C9.86601 50.618 10.1818 50.7219 10.5085 50.746C10.8352 50.77 11.1628 50.7135 11.4625 50.5813L16.425 48.3938C16.8437 48.2063 17.3188 48.175 17.7625 48.2938C20.0438 48.9188 22.4688 49.2563 25 49.2563C39.0813 49.2563 50 38.9375 50 25.0063C50 11.075 39.0813 0.75 25 0.75Z" fill="url(#paint0_radial_288_434)"/>
<path d="M9.98751 32.0938L17.3313 20.4438C17.6075 20.0051 17.9717 19.6286 18.4009 19.3378C18.83 19.047 19.3148 18.8484 19.8245 18.7544C20.3343 18.6605 20.858 18.6732 21.3626 18.7919C21.8673 18.9105 22.3418 19.1325 22.7563 19.4438L28.6 23.825C28.8609 24.0203 29.1783 24.1254 29.5042 24.1242C29.8301 24.1231 30.1468 24.0159 30.4063 23.8188L38.2938 17.8313C39.3438 17.0313 40.7188 18.2938 40.0188 19.4125L32.6688 31.0563C32.3925 31.4949 32.0283 31.8714 31.5992 32.1622C31.17 32.453 30.6853 32.6516 30.1755 32.7456C29.6657 32.8395 29.142 32.8268 28.6374 32.7082C28.1328 32.5895 27.6583 32.3675 27.2438 32.0563L21.4 27.675C21.1391 27.4797 20.8217 27.3746 20.4958 27.3758C20.17 27.3769 19.8533 27.4841 19.5938 27.6813L11.7063 33.6688C10.6563 34.4688 9.28126 33.2125 9.98751 32.0938V32.0938Z" fill="white"/>
</g>
<defs>
<radialGradient id="paint0_radial_288_434" cx="0" cy="0" r="1" gradientUnits="userSpaceOnUse" gradientTransform="translate(8.375 50.75) scale(55)">
<stop stop-color="#0099FF"/>
<stop offset="0.6" stop-color="#A033FF"/>
<stop offset="0.9" stop-color="#FF5280"/>
<stop offset="1" stop-color="#FF7061"/>
</radialGradient>
<clipPath id="clip0_288_434">
<rect width="50" height="50" fill="white" transform="translate(0 0.75)"/>
</clipPath>
</defs>
</svg>
