<svg width="600" height="164" viewBox="0 0 600 164" fill="none" xmlns="http://www.w3.org/2000/svg">
<path d="M40 124V60.5M40 60.5L60 40.5H80L100 60.5M40 60.5V40.5M100 60.5V124M100 60.5L120 40.5H140L160 60.5V124" stroke="white" stroke-width="6" stroke-linecap="square"/>
<path d="M200 40.5V103L220 123H260L280 103M280 40.5V103M280 103V123" stroke="white" stroke-width="6"/>
<path d="M320 110.5L330 120.5H390L400 110.5V90.5L390 80.5H330L320 70.5L320 50.5L330 40.5H390L400 50.5" stroke="white" stroke-width="6"/>
<path d="M440 120.5V60.5M440 40.5V50.5" stroke="white" stroke-width="6" stroke-linecap="square"/>
<path d="M560 60.5L540 40.5H500L480 60.5V100.5L500 120.5H540L560 100.5" stroke="white" stroke-width="6"/>
</svg>
