<svg width="347" height="101" viewBox="0 0 347 101" fill="none" xmlns="http://www.w3.org/2000/svg">
<path d="M6.416 101H2.24C1.28 101 0.8 100.424 0.8 99.272V29.288C0.8 28.136 1.28 27.56 2.24 27.56H6.416C7.472 27.56 8 28.136 8 29.288V35.048H8.576C11.36 30.056 16.448 27.56 23.84 27.56H29.744C38.192 27.56 44.048 30.92 47.312 37.64C48.752 34.28 51.2 31.784 54.656 30.152C58.112 28.424 61.664 27.56 65.312 27.56H70.64C76.88 27.56 81.776 29.384 85.328 33.032C88.88 36.68 90.656 41.672 90.656 48.008V99.272C90.656 100.424 90.128 101 89.072 101H84.896C83.84 101 83.312 100.424 83.312 99.272V48.296C83.312 43.688 82.16 40.184 79.856 37.784C77.552 35.288 74.192 34.04 69.776 34.04H64.448C59.84 34.04 56.192 35.384 53.504 38.072C50.816 40.664 49.472 44.216 49.472 48.728V99.272C49.472 100.424 48.944 101 47.888 101H43.712C42.656 101 42.128 100.424 42.128 99.272V48.296C42.128 43.688 40.976 40.184 38.672 37.784C36.368 35.288 33.008 34.04 28.592 34.04H22.832C18.224 34.04 14.576 35.288 11.888 37.784C9.296 40.184 8 43.64 8 48.152V99.272C8 100.424 7.472 101 6.416 101ZM147.328 101H137.824C131.68 101 126.832 99.176 123.28 95.528C119.728 91.88 117.952 86.888 117.952 80.552V29.288C117.952 28.136 118.432 27.56 119.392 27.56H123.568C124.624 27.56 125.152 28.136 125.152 29.288V80.264C125.152 84.776 126.304 88.28 128.608 90.776C130.912 93.272 134.272 94.52 138.688 94.52H148.048C152.656 94.52 156.256 93.32 158.848 90.92C161.536 88.424 162.88 84.92 162.88 80.408V29.288C162.88 28.136 163.408 27.56 164.464 27.56H168.64C169.6 27.56 170.08 28.136 170.08 29.288V99.272C170.08 100.424 169.6 101 168.64 101H164.464C163.408 101 162.88 100.424 162.88 99.272V93.512H162.304C159.808 98.504 154.816 101 147.328 101ZM222.616 101H197.56C196.504 101 195.976 100.472 195.976 99.416V96.104C195.976 95.144 196.504 94.664 197.56 94.664H221.896C230.536 94.664 234.856 91.304 234.856 84.584V81.128C234.856 74.888 232.168 70.808 226.792 68.888L208.792 61.976C203.896 60.056 200.392 57.8 198.28 55.208C196.264 52.616 195.256 49.016 195.256 44.408C195.256 33.176 201.448 27.56 213.832 27.56H237.16C238.216 27.56 238.744 28.088 238.744 29.144V32.456C238.744 33.416 238.216 33.896 237.16 33.896H214.552C210.616 33.896 207.64 34.76 205.624 36.488C203.704 38.216 202.744 40.232 202.744 42.536V45.848C202.744 48.536 203.464 50.648 204.904 52.184C206.44 53.72 208.744 55.016 211.816 56.072L229.816 63.272C234.808 64.904 238.12 67.352 239.752 70.616C241.48 73.784 242.344 78.248 242.344 84.008C242.344 89.768 240.712 94.04 237.448 96.824C234.28 99.608 229.336 101 222.616 101ZM268.792 15.464V1.63999C268.792 0.583994 269.272 0.055995 270.232 0.055995H274.552C275.512 0.055995 275.992 0.583994 275.992 1.63999V15.464C275.992 16.616 275.512 17.192 274.552 17.192H270.232C269.272 17.192 268.792 16.616 268.792 15.464ZM268.792 99.272V29.288C268.792 28.136 269.272 27.56 270.232 27.56H274.408C275.464 27.56 275.992 28.136 275.992 29.288V99.272C275.992 100.424 275.512 101 274.552 101H270.232C269.272 101 268.792 100.424 268.792 99.272ZM346.546 96.104V99.416C346.546 100.472 346.018 101 344.962 101H324.226C317.986 101 313.042 99.176 309.394 95.528C305.842 91.88 304.066 86.888 304.066 80.552V48.008C304.066 41.672 305.842 36.68 309.394 33.032C313.042 29.384 317.986 27.56 324.226 27.56H344.962C346.018 27.56 346.546 28.088 346.546 29.144V32.6C346.546 33.56 346.018 34.04 344.962 34.04H324.802C320.386 34.04 317.026 35.288 314.722 37.784C312.418 40.28 311.266 43.784 311.266 48.296V80.264C311.266 84.776 312.418 88.28 314.722 90.776C317.026 93.272 320.386 94.52 324.802 94.52H344.962C346.018 94.52 346.546 95.048 346.546 96.104Z" fill="white"/>
</svg>
