<svg width="963" height="101" viewBox="0 0 963 101" fill="none" xmlns="http://www.w3.org/2000/svg">
<path d="M310.514 0.609741C327.082 0.609741 340.514 14.0412 340.514 30.6097V100.61H320.514V30.6097C320.514 25.0869 316.037 20.6097 310.514 20.6097C304.991 20.6097 300.514 25.0869 300.514 30.6097V100.61H280.514V30.6097C280.514 25.0869 276.037 20.6097 270.514 20.6097C264.991 20.6097 260.514 25.0869 260.514 30.6097V100.61H240.514V30.6097C240.514 14.0412 253.945 0.609741 270.514 0.609741C278.197 0.609741 285.206 3.49828 290.514 8.24868C295.821 3.49828 302.83 0.609741 310.514 0.609741Z" fill="white"/>
<path d="M460.514 50.6097C460.514 78.224 438.128 100.61 410.514 100.61C382.899 100.61 360.514 78.224 360.514 50.6097V0.609741H380.514V50.6097C380.514 67.1783 393.945 80.6097 410.514 80.6097C427.082 80.6097 440.514 67.1783 440.514 50.6097V0.609741H460.514V50.6097Z" fill="white"/>
<path d="M510.514 60.6097C493.945 60.6097 480.514 47.1783 480.514 30.6097C480.514 14.0412 493.945 0.609743 510.514 0.609744L580.514 0.609741V20.6097H510.514C504.991 20.6097 500.514 25.0869 500.514 30.6097C500.514 36.1326 504.991 40.6097 510.514 40.6097H550.514C567.082 40.6097 580.514 54.0412 580.514 70.6097C580.514 87.1783 567.082 100.61 550.514 100.61H480.514L480.514 80.6097L550.514 80.6097C556.037 80.6097 560.514 76.1326 560.514 70.6097C560.514 65.0869 556.037 60.6097 550.514 60.6097L510.514 60.6097Z" fill="white"/>
<rect width="20" height="100" transform="matrix(-1 0 0 1 620.514 0.609741)" fill="white"/>
<path d="M640.514 50.6097C640.514 78.224 662.899 100.61 690.514 100.61C702.819 100.61 714.087 96.1644 722.797 88.7919L709.125 74.14C704.011 78.1909 697.545 80.6097 690.514 80.6097C673.945 80.6097 660.514 67.1783 660.514 50.6097C660.514 34.0412 673.945 20.6097 690.514 20.6097C697.545 20.6097 704.011 23.0285 709.125 27.0795L722.797 12.4276C714.087 5.05511 702.819 0.609741 690.514 0.609741C662.899 0.609741 640.514 22.9955 640.514 50.6097Z" fill="white"/>
</svg>
