<svg width="1043" height="181" viewBox="0 0 1043 181" fill="none" xmlns="http://www.w3.org/2000/svg">
<path d="M300.514 145.61H305.514V140.61V70.6097C305.514 67.8483 307.752 65.6097 310.514 65.6097C313.275 65.6097 315.514 67.8483 315.514 70.6097V140.61V145.61H320.514H340.514H345.514V140.61V70.6097C345.514 67.8483 347.752 65.6097 350.514 65.6097C353.275 65.6097 355.514 67.8483 355.514 70.6097V140.61V145.61H360.514H380.514H385.514V140.61V70.6097C385.514 51.2798 369.844 35.6097 350.514 35.6097C343.081 35.6097 336.182 37.9311 330.514 41.8839C324.845 37.9311 317.946 35.6097 310.514 35.6097C291.184 35.6097 275.514 51.2798 275.514 70.6097V140.61V145.61H280.514H300.514Z" fill="white" stroke="white" stroke-width="10"/>
<path d="M400.514 35.6097H395.514V40.6097V90.6097C395.514 120.985 420.138 145.61 450.514 145.61C480.889 145.61 505.514 120.985 505.514 90.6097V40.6097V35.6097H500.514H480.514H475.514V40.6097V90.6097C475.514 104.417 464.321 115.61 450.514 115.61C436.707 115.61 425.514 104.417 425.514 90.6097V40.6097V35.6097H420.514H400.514Z" fill="white" stroke="white" stroke-width="10"/>
<path d="M515.514 140.61V145.61H520.514H590.514C609.844 145.61 625.514 129.94 625.514 110.61C625.514 91.2798 609.844 75.6097 590.514 75.6097H550.514C547.752 75.6097 545.514 73.3712 545.514 70.6097C545.514 67.8483 547.752 65.6097 550.514 65.6097H620.514H625.514V60.6097V40.6097V35.6097H620.514L550.514 35.6097C531.184 35.6097 515.514 51.2798 515.514 70.6097C515.514 89.9397 531.184 105.61 550.514 105.61L590.514 105.61C593.275 105.61 595.514 107.848 595.514 110.61C595.514 113.371 593.275 115.61 590.514 115.61L520.514 115.61H515.514V120.61L515.514 140.61Z" fill="white" stroke="white" stroke-width="10"/>
<rect x="5" y="-5" width="30" height="110" transform="matrix(-1 0 0 1 670.514 40.6097)" fill="white" stroke="white" stroke-width="10"/>
<path d="M746.021 70.999L749.635 73.8618L752.781 70.4906L766.453 55.8387L770.033 52.0016L766.027 48.611C756.448 40.5031 744.046 35.6097 730.514 35.6097C700.138 35.6097 675.514 60.2341 675.514 90.6097C675.514 120.985 700.138 145.61 730.514 145.61C744.046 145.61 756.448 140.716 766.027 132.608L770.033 129.218L766.453 125.381L752.781 110.729L749.635 107.358L746.021 110.221C741.758 113.597 736.378 115.61 730.514 115.61C716.707 115.61 705.514 104.417 705.514 90.6097C705.514 76.8026 716.707 65.6097 730.514 65.6097C736.378 65.6097 741.758 67.6227 746.021 70.999Z" fill="white" stroke="white" stroke-width="10"/>
</svg>
