<svg width="1312" height="232" viewBox="0 0 1312 232" fill="none" xmlns="http://www.w3.org/2000/svg">
<path d="M315 91V141C315 163.5 297 181 275 181C253 181 235 163.5 235 141V91" stroke="white" stroke-width="6" stroke-linecap="square"/>
<path d="M435 94H438V88H435V94ZM355 178H352V184H355V178ZM352 113.5C352 127.246 362.025 139 375 139V133C365.975 133 358 124.607 358 113.5L352 113.5ZM375 139H395V133H375V139ZM358 113.5C358 102.393 365.975 94 375 94V88C362.025 88 352 99.754 352 113.5L358 113.5ZM375 94H435V88H375V94ZM438 158.5C438 144.754 427.975 133 415 133V139C424.025 139 432 147.393 432 158.5L438 158.5ZM415 133H395V139H415V133ZM432 158.5C432 169.607 424.025 178 415 178V184C427.975 184 438 172.246 438 158.5L432 158.5ZM415 178H355V184H415V178Z" fill="white"/>
<path d="M477 181L477 91" stroke="white" stroke-width="6" stroke-linecap="square"/>
<path d="M597 107.875C588.766 97.5873 576.114 91 561.926 91C537.114 91 517 111.147 517 136C517 160.853 537.114 181 561.926 181C576.114 181 588.766 174.413 597 164.125" stroke="white" stroke-width="6"/>
<path d="M757 181V131C757 109 739 91 717 91C695 91 677 109 677 131V181" stroke="white" stroke-width="6" stroke-linecap="square"/>
<path d="M916.999 94H919.999V88H916.999V94ZM837 178H834V184H837V178ZM834 113.5C834 127.246 844.024 139 857 139V133C847.975 133 840 124.607 840 113.5L834 113.5ZM857 139H877V133H857V139ZM840 113.5C840 102.393 847.975 94 857 94V88C844.024 88 834 99.754 834 113.5L840 113.5ZM857 94H916.999V88H857V94ZM919.999 158.5C919.999 144.754 909.975 133 896.999 133V139C906.024 139 913.999 147.393 913.999 158.5L919.999 158.5ZM896.999 133H877V139H896.999V133ZM913.999 158.5C913.999 169.607 906.024 178 896.999 178V184C909.975 184 919.999 172.246 919.999 158.5L913.999 158.5ZM896.999 178H837V184H896.999V178Z" fill="white"/>
<path d="M957 41V91.5M997 181C974 181 957 162 957 141V91.5M997 91.5H957" stroke="white" stroke-width="6" stroke-linecap="square"/>
<path d="M1117 91V141C1117 163 1099 181 1077 181C1055 181 1037 163 1037 141V91" stroke="white" stroke-width="6" stroke-linecap="square"/>
<path d="M1197 41C1172 41 1157 61 1157 81V91M1157 181V91M1197 91C1181.38 91 1157 91 1157 91" stroke="white" stroke-width="6" stroke-linecap="square"/>
<path d="M1277 41C1252 41 1237 61 1237 81V91M1237 181V91M1277 91C1261.38 91 1237 91 1237 91" stroke="white" stroke-width="6" stroke-linecap="square"/>
<path d="M116.001 131C116.001 108.5 98.0005 91 76.0005 91C54.0005 91 36 108.5 36 131V181M116.001 131V181M116.001 131C116.001 108.5 134 91 156 91C178 91 196 108.5 196 131V181" stroke="white" stroke-width="6"/>
</svg>
