<svg width="100" height="100" viewBox="0 0 100 100" fill="none" xmlns="http://www.w3.org/2000/svg">
<path fill-rule="evenodd" clip-rule="evenodd" d="M50.4743 37.3419L49.5 37.5L49.5 46.747L49.5 54.5975C48.5046 53.184 46.8602 52.2606 45 52.2606C41.9624 52.2606 39.5 54.723 39.5 57.7606C39.5 60.7981 41.9624 63.2606 45 63.2606C48.0376 63.2606 50.5 60.7981 50.5 57.7606V53.2397V39.4417C51.157 40.2864 52.0164 40.9975 52.9275 41.5521C54.423 42.4624 56.1371 43 57.5 43H58V42H57.5C56.3629 42 54.827 41.5376 53.4475 40.6979C52.0677 39.858 50.9236 38.6895 50.4743 37.3419ZM49.5 57.7606C49.5 55.2753 47.4853 53.2606 45 53.2606C42.5147 53.2606 40.5 55.2753 40.5 57.7606C40.5 60.2458 42.5147 62.2606 45 62.2606C47.4853 62.2606 49.5 60.2458 49.5 57.7606Z" fill="black"/>
</svg>
