<svg width="862" height="240" viewBox="0 0 862 240" fill="none" xmlns="http://www.w3.org/2000/svg">
<path d="M351 99.9995V7.86522e-06M351 99.9995V119.999V133.786C351 137.764 349.42 141.58 346.607 144.393L335.393 155.606C332.58 158.419 328.765 159.999 324.787 159.999H311H297.213C293.235 159.999 289.42 158.419 286.607 155.606L281 149.999L275.393 144.393C272.58 141.58 271 137.764 271 133.786L271 119.999L271 106.213C271 102.234 272.58 98.419 275.393 95.6059L286.607 84.3928C289.42 81.5798 293.235 79.9994 297.213 79.9994L311 79.9995L324.787 79.9995C328.765 79.9995 332.58 81.5799 335.393 84.3929L341 89.9994L351 99.9995Z" stroke="white" stroke-width="6"/>
<path d="M231 99.9995V7.86522e-06M231 99.9995V119.999V133.786C231 137.764 229.42 141.58 226.607 144.393L215.393 155.606C212.58 158.419 208.765 159.999 204.787 159.999H191H177.213C173.235 159.999 169.42 158.419 166.607 155.606L161 149.999L155.393 144.393C152.58 141.58 151 137.764 151 133.786L151 119.999L151 106.213C151 102.234 152.58 98.419 155.393 95.6059L166.607 84.3928C169.42 81.5798 173.235 79.9994 177.213 79.9994L191 79.9995L204.787 79.9995C208.765 79.9995 212.58 81.5799 215.393 84.3929L221 89.9994L231 99.9995Z" stroke="white" stroke-width="6"/>
<path d="M71 159.999H84.7868C88.7651 159.999 92.5804 158.419 95.3934 155.606L106.607 144.393C109.42 141.58 111 137.764 111 133.786V119.999V106.213C111 102.235 109.42 98.4192 106.607 95.6061L101 89.9995L95.3934 84.393C92.5803 81.5799 88.765 79.9996 84.7868 79.9996L71 79.9995L57.2132 79.9995C53.2349 79.9995 49.4196 81.5799 46.6066 84.3929L35.3934 95.606C32.5804 98.4191 31 102.234 31 106.213L31 119.999L31 133.786C31 137.764 32.5804 141.58 35.3934 144.393L41 149.999L46.6066 155.606C49.4197 158.419 53.235 159.999 57.2132 159.999H71Z" stroke="white" stroke-width="6"/>
<path d="M391 99.9995V7.86522e-06M391 99.9995L406.607 84.3929C409.42 81.5799 413.235 79.9995 417.213 79.9995L431 79.9995L444.787 79.9994C448.765 79.9994 452.58 81.5798 455.393 84.3928L461 89.9994L466.607 95.6059C469.42 98.419 471 102.234 471 106.213L471 119.999L471 133.786C471 137.764 469.42 141.58 466.607 144.393L455.393 155.606C452.58 158.419 448.765 159.999 444.787 159.999H431H417.213C413.235 159.999 409.42 158.419 406.607 155.606L400.5 149.5L395.393 144.393C392.58 141.58 391 137.765 391 133.786V119.999V99.9995Z" stroke="white" stroke-width="6" stroke-linejoin="round"/>
<path d="M751 140V239.999M751 140V120V106.213C751 102.235 752.58 98.4196 755.393 95.6066L766.607 84.3935C769.42 81.5804 773.235 80.0001 777.213 80.0001H791H804.787C808.765 80.0001 812.58 81.5804 815.393 84.3935L821 89.9999L826.607 95.6066C829.42 98.4197 831 102.235 831 106.213L831 120L831 133.787C831 137.765 829.42 141.58 826.607 144.393L815.393 155.606C812.58 158.419 808.765 160 804.787 160L791 160L777.213 160C773.235 160 769.42 158.419 766.607 155.606L751 140Z" stroke="white" stroke-width="6"/>
<path d="M631 120V133.703C631 137.731 632.62 141.589 635.494 144.41L646.624 155.331C649.429 158.083 653.201 159.625 657.13 159.625H671H685.456C689.034 159.625 692.494 158.346 695.212 156.019L711 142.5M631 120V106.213C631 102.235 632.58 98.4197 635.393 95.6066L646.607 84.3934C649.42 81.5804 653.235 80.0001 657.213 80.0001L671 80L684.787 80C688.765 80 692.58 81.5804 695.393 84.3934L701 90L706.858 95.8578C709.51 98.5099 711 102.107 711 105.858V105.858C711 113.668 704.668 120 696.858 120L691 120L671 120L651 120H631Z" stroke="white" stroke-width="6"/>
<path d="M511 120V133.703C511 137.731 512.62 141.589 515.494 144.41L526.624 155.331C529.429 158.083 533.201 159.625 537.13 159.625H551H565.456C569.034 159.625 572.494 158.346 575.212 156.019L591 142.5M511 120V106.213C511 102.235 512.58 98.4197 515.393 95.6066L526.607 84.3934C529.42 81.5804 533.235 80.0001 537.213 80.0001L551 80L564.787 80C568.765 80 572.58 81.5804 575.393 84.3934L581 90L586.858 95.8578C589.51 98.5099 591 102.107 591 105.858V105.858C591 113.668 584.668 120 576.858 120L571 120L551 120L531 120H511Z" stroke="white" stroke-width="6"/>
</svg>
