<svg width="901" height="250" viewBox="0 0 901 250" fill="none" xmlns="http://www.w3.org/2000/svg">
<path d="M90.6555 195C121.031 195 145.656 170.376 145.656 140C145.656 109.624 121.031 85 90.6555 85C60.2799 85 35.6555 109.624 35.6555 140C35.6555 170.376 60.2799 195 90.6555 195ZM115.656 140C115.656 153.807 104.463 165 90.6555 165C76.8484 165 65.6555 153.807 65.6555 140C65.6555 126.193 76.8484 115 90.6555 115C104.463 115 115.656 126.193 115.656 140Z" fill="white" stroke="white" stroke-width="10"/>
<path d="M235.656 40V35H240.656H260.656H265.656V40V140C265.656 170.376 241.031 195 210.656 195C180.28 195 155.656 170.376 155.656 140C155.656 109.624 180.28 85 210.656 85C219.653 85 228.153 87.1637 235.656 90.9984V40ZM210.656 165C224.463 165 235.656 153.807 235.656 140C235.656 126.193 224.463 115 210.656 115C196.848 115 185.656 126.193 185.656 140C185.656 153.807 196.848 165 210.656 165Z" fill="white" stroke="white" stroke-width="10"/>
<path d="M355.656 40V35H360.656H380.656H385.656V40V140C385.656 170.376 361.031 195 330.656 195C300.28 195 275.656 170.376 275.656 140C275.656 109.624 300.28 85 330.656 85C339.653 85 348.153 87.1637 355.656 90.9984V40ZM330.656 165C344.463 165 355.656 153.807 355.656 140C355.656 126.193 344.463 115 330.656 115C316.848 115 305.656 126.193 305.656 140C305.656 153.807 316.848 165 330.656 165Z" fill="white" stroke="white" stroke-width="10"/>
<path d="M425.656 40V35H420.656H400.656H395.656V40V140C395.656 170.376 420.28 195 450.656 195C481.031 195 505.656 170.376 505.656 140C505.656 109.624 481.031 85 450.656 85C441.658 85 433.158 87.1637 425.656 90.9984V40ZM450.656 165C436.848 165 425.656 153.807 425.656 140C425.656 126.193 436.848 115 450.656 115C464.463 115 475.656 126.193 475.656 140C475.656 153.807 464.463 165 450.656 165Z" fill="white" stroke="white" stroke-width="10"/>
<path d="M785.656 240V245H780.656H760.656H755.656V240V140C755.656 109.624 780.28 85 810.656 85C841.031 85 865.656 109.624 865.656 140C865.656 170.376 841.031 195 810.656 195C801.658 195 793.158 192.836 785.656 189.002V240ZM810.656 115C796.848 115 785.656 126.193 785.656 140C785.656 153.807 796.848 165 810.656 165C824.463 165 835.656 153.807 835.656 140C835.656 126.193 824.463 115 810.656 115Z" fill="white" stroke="white" stroke-width="10"/>
<path d="M620 155H624.087L624.9 150.995C625.622 147.438 626 143.761 626 140C626 109.624 601.376 84.9999 571 84.9999C540.625 84.9999 516 109.624 516 140C516 170.376 540.625 195 571 195C584.532 195 596.934 190.107 606.514 181.999L610.52 178.608L606.939 174.771L593.268 160.119L590.122 156.748L586.508 159.611C582.245 162.987 576.865 165 571 165C562.826 165 555.56 161.075 550.997 155H620ZM550.997 125C555.56 118.925 562.826 115 571 115C579.175 115 586.44 118.925 591.003 125H550.997Z" fill="white" stroke="white" stroke-width="10"/>
<path d="M740 155H744.087L744.9 150.995C745.622 147.438 746 143.761 746 140C746 109.624 721.376 84.9999 691 84.9999C660.625 84.9999 636 109.624 636 140C636 170.376 660.625 195 691 195C704.532 195 716.934 190.107 726.514 181.999L730.52 178.608L726.939 174.771L713.268 160.119L710.122 156.748L706.508 159.611C702.245 162.987 696.865 165 691 165C682.826 165 675.56 161.075 670.997 155H740ZM670.997 125C675.56 118.925 682.826 115 691 115C699.175 115 706.44 118.925 711.003 125H670.997Z" fill="white" stroke="white" stroke-width="10"/>
</svg>
