<svg width="816" height="191" viewBox="0 0 816 191" fill="none" xmlns="http://www.w3.org/2000/svg">
<path d="M8 95C8 117.091 25.9086 135 48 135C70.0914 135 88 117.091 88 95C88 72.9086 70.0914 55 48 55C25.9086 55 8 72.9086 8 95Z" stroke="white" stroke-width="6"/>
<path d="M128 95L125 95.0001L128 95ZM208 95L211 95.0001L208 95ZM205 5V2H211V5H205ZM168 138C144.252 138 125.001 118.748 125 95.0001L131 94.9999C131.001 115.435 147.566 132 168 132V138ZM125 95.0001C124.999 71.251 144.251 51.9963 168 51.9963V57.9963C147.565 57.9963 130.999 74.5642 131 94.9999L125 95.0001ZM168 51.9963C191.749 51.9963 211.001 71.251 211 95.0001L205 94.9999C205.001 74.5642 188.435 57.9963 168 57.9963V51.9963ZM211 95.0001C210.999 118.748 191.748 138 168 138V132C188.434 132 204.999 115.435 205 94.9999L211 95.0001ZM205 95V5H211V95H205Z" fill="white"/>
<path d="M248 95L245 95.0001L248 95ZM328 95L331 95.0001L328 95ZM325 5V2H331V5H325ZM288 138C264.252 138 245.001 118.748 245 95.0001L251 94.9999C251.001 115.435 267.566 132 288 132V138ZM245 95.0001C244.999 71.251 264.251 51.9963 288 51.9963V57.9963C267.565 57.9963 250.999 74.5642 251 94.9999L245 95.0001ZM288 51.9963C311.749 51.9963 331.001 71.251 331 95.0001L325 94.9999C325.001 74.5642 308.435 57.9963 288 57.9963V51.9963ZM331 95.0001C330.999 118.748 311.748 138 288 138V132C308.434 132 324.999 115.435 325 94.9999L331 95.0001ZM325 95V5H331V95H325Z" fill="white"/>
<path d="M448 95L451 95.0001L448 95ZM368 95L365 95.0001L368 95ZM371 5V2H365V5H371ZM408 138C431.748 138 450.999 118.748 451 95.0001L445 94.9999C444.999 115.435 428.434 132 408 132V138ZM451 95.0001C451.001 71.251 431.749 51.9963 408 51.9963V57.9963C428.435 57.9963 445.001 74.5642 445 94.9999L451 95.0001ZM408 51.9963C384.251 51.9963 364.999 71.251 365 95.0001L371 94.9999C370.999 74.5642 387.565 57.9963 408 57.9963V51.9963ZM365 95.0001C365.001 118.748 384.252 138 408 138V132C387.566 132 371.001 115.435 371 94.9999L365 95.0001ZM371 95V5H365V95H371Z" fill="white"/>
<path d="M488 95C488 72.9086 505.909 55 528 55C550.091 55 568 72.9086 568 95H488ZM488 95C488 117.091 505.909 135 528 135C540.632 135 551.896 129.145 559.227 120" stroke="white" stroke-width="6"/>
<path d="M608 95C608 72.9086 625.909 55 648 55C670.091 55 688 72.9086 688 95H608ZM608 95C608 117.091 625.909 135 648 135C660.632 135 671.896 129.145 679.227 120" stroke="white" stroke-width="6"/>
<path d="M808 95L811 94.9999L808 95ZM728 95L725 94.9999L728 95ZM731 185V188H725V185H731ZM768 52C791.748 52 810.999 71.2519 811 94.9999L805 95.0001C804.999 74.5654 788.434 58 768 58V52ZM811 94.9999C811.001 118.749 791.749 138.004 768 138.004V132.004C788.435 132.004 805.001 115.436 805 95.0001L811 94.9999ZM768 138.004C744.251 138.004 724.999 118.749 725 94.9999L731 95.0001C730.999 115.436 747.565 132.004 768 132.004V138.004ZM725 94.9999C725.001 71.2519 744.252 52 768 52V58C747.566 58 731.001 74.5654 731 95.0001L725 94.9999ZM731 95V185H725V95H731Z" fill="white"/>
</svg>
