<svg width="821" height="200" viewBox="0 0 821 200" fill="none" xmlns="http://www.w3.org/2000/svg">
<path fill-rule="evenodd" clip-rule="evenodd" d="M50.6555 150C78.2697 150 100.655 127.614 100.655 100C100.655 72.3858 78.2697 50 50.6555 50C23.0412 50 0.655457 72.3858 0.655457 100C0.655457 127.614 23.0412 150 50.6555 150ZM50.6555 130C67.224 130 80.6555 116.569 80.6555 100C80.6555 83.4315 67.224 70 50.6555 70C34.0869 70 20.6555 83.4315 20.6555 100C20.6555 116.569 34.0869 130 50.6555 130Z" fill="white"/>
<path fill-rule="evenodd" clip-rule="evenodd" d="M220.655 100C220.655 127.614 198.27 150 170.655 150C143.041 150 120.655 127.614 120.655 100C120.655 72.3858 143.041 50 170.655 50C181.912 50 192.299 53.7194 200.655 59.9963V0H220.655V100ZM170.655 130C187.224 130 200.655 116.569 200.655 100C200.655 83.4315 187.224 70 170.655 70C154.087 70 140.655 83.4315 140.655 100C140.655 116.569 154.087 130 170.655 130Z" fill="white"/>
<path fill-rule="evenodd" clip-rule="evenodd" d="M340.655 100C340.655 127.614 318.27 150 290.655 150C263.041 150 240.655 127.614 240.655 100C240.655 72.3858 263.041 50 290.655 50C301.912 50 312.299 53.7194 320.655 59.9963V0H340.655V100ZM290.655 130C307.224 130 320.655 116.569 320.655 100C320.655 83.4315 307.224 70 290.655 70C274.087 70 260.655 83.4315 260.655 100C260.655 116.569 274.087 130 290.655 130Z" fill="white"/>
<path fill-rule="evenodd" clip-rule="evenodd" d="M360.655 100C360.655 127.614 383.041 150 410.655 150C438.27 150 460.655 127.614 460.655 100C460.655 72.3858 438.27 50 410.655 50C399.399 50 389.012 53.7194 380.655 59.9963V0H360.655V100ZM410.655 130C394.087 130 380.655 116.569 380.655 100C380.655 83.4315 394.087 70 410.655 70C427.224 70 440.655 83.4315 440.655 100C440.655 116.569 427.224 130 410.655 130Z" fill="white"/>
<path fill-rule="evenodd" clip-rule="evenodd" d="M530.656 150C503.041 150 480.656 127.614 480.656 100C480.656 72.3858 503.041 50 530.656 50C558.27 50 580.656 72.3858 580.656 100C580.656 103.425 580.311 106.769 579.655 110H502.363C506.481 121.652 517.593 130 530.656 130C536.789 130 542.493 128.159 547.244 125H573.966C565.321 139.945 549.163 150 530.656 150ZM530.656 70C517.593 70 506.481 78.3481 502.363 90H558.948C554.83 78.3481 543.718 70 530.656 70Z" fill="white"/>
<path fill-rule="evenodd" clip-rule="evenodd" d="M650.656 150C623.041 150 600.656 127.614 600.656 100C600.656 72.3858 623.041 50 650.656 50C678.27 50 700.656 72.3858 700.656 100C700.656 103.425 700.311 106.769 699.655 110H622.363C626.481 121.652 637.593 130 650.656 130C656.789 130 662.493 128.159 667.244 125H693.966C685.321 139.945 669.163 150 650.656 150ZM650.656 70C637.593 70 626.481 78.3481 622.363 90H678.948C674.83 78.3481 663.718 70 650.656 70Z" fill="white"/>
<path fill-rule="evenodd" clip-rule="evenodd" d="M720.656 100C720.656 72.3858 743.041 50 770.656 50C798.27 50 820.656 72.3858 820.656 100C820.656 127.614 798.27 150 770.656 150C759.399 150 749.012 146.281 740.656 140.004V200H720.656V100ZM770.656 70C754.087 70 740.656 83.4315 740.656 100C740.656 116.569 754.087 130 770.656 130C787.224 130 800.656 116.569 800.656 100C800.656 83.4315 787.224 70 770.656 70Z" fill="white"/>
</svg>
