<svg width="157" height="40" viewBox="0 0 157 40" fill="none" xmlns="http://www.w3.org/2000/svg">
<g clip-path="url(#clip0_35_543)">
<path fill-rule="evenodd" clip-rule="evenodd" d="M14.5219 15.3612C13.2732 14.1125 11.6366 13.4882 9.99999 13.4882C8.36338 13.4882 6.72676 14.1125 5.47806 15.3612L5.36121 15.4781C4.11251 16.7268 3.48816 18.3634 3.48817 20C3.48818 21.6366 4.11252 23.2732 5.36121 24.5219L5.47807 24.6388C6.72676 25.8875 8.36338 26.5118 9.99999 26.5118C11.6366 26.5118 13.2732 25.8875 14.5219 24.6388L14.6388 24.5219C15.8875 23.2732 16.5118 21.6366 16.5118 20C16.5118 18.3634 15.8875 16.7268 14.6388 15.4781L14.5219 15.3612ZM3.01156 12.8947C4.94136 10.9649 7.47067 10 9.99999 10C12.5293 10 15.0586 10.9649 16.9884 12.8947L17.1053 13.0116C19.0351 14.9414 20 17.4707 20 20C20 22.5293 19.0351 25.0586 17.1053 26.9884L16.9884 27.1053C15.0586 29.0351 12.5293 30 9.99999 30C7.47068 30 4.94136 29.0351 3.01156 27.1053L2.89471 26.9884C0.964911 25.0586 7.35178e-06 22.5293 0 20C-7.35174e-06 17.4707 0.964893 14.9414 2.8947 13.0116L3.01156 12.8947Z" fill="white" stroke="black" stroke-width="2" stroke-linecap="round" stroke-linejoin="round"/>
<path fill-rule="evenodd" clip-rule="evenodd" d="M24.8947 13.0116L25.0116 12.8947C26.9414 10.9649 29.4707 10 32 10C34.326 10 36.6521 10.816 38.5118 12.4481L38.5118 0H42L42 20C42 22.5293 41.0351 25.0586 39.1053 26.9884L38.9884 27.1053C37.0586 29.0351 34.5293 30 32 30C29.4707 30 26.9414 29.0351 25.0116 27.1053L24.8947 26.9884C22.9649 25.0586 22 22.5293 22 20C22 17.4707 22.9649 14.9414 24.8947 13.0116ZM36.5219 15.3612L36.6388 15.4781C37.8875 16.7268 38.5118 18.3634 38.5118 20C38.5118 21.6366 37.8875 23.2732 36.6388 24.5219L36.5219 24.6388C35.2732 25.8875 33.6366 26.5118 32 26.5118C30.3634 26.5118 28.7268 25.8875 27.4781 24.6388L27.3612 24.5219C26.1125 23.2732 25.4882 21.6366 25.4882 20C25.4882 18.3634 26.1125 16.7268 27.3612 15.4781L27.4781 15.3612C28.7268 14.1125 30.3634 13.4882 32 13.4882C33.6366 13.4882 35.2732 14.1125 36.5219 15.3612Z" fill="white" stroke="black" stroke-width="2" stroke-linecap="round"/>
<path fill-rule="evenodd" clip-rule="evenodd" d="M46.8947 13.0116L47.0116 12.8947C48.9414 10.9649 51.4707 10 54 10C56.326 10 58.6521 10.816 60.5118 12.4481L60.5118 0H64L64 20C64 22.5293 63.0351 25.0586 61.1053 26.9884L60.9884 27.1053C59.0586 29.0351 56.5293 30 54 30C51.4707 30 48.9414 29.0351 47.0116 27.1053L46.8947 26.9884C44.9649 25.0586 44 22.5293 44 20C44 17.4707 44.9649 14.9414 46.8947 13.0116ZM58.5219 15.3612L58.6388 15.4781C59.8875 16.7268 60.5118 18.3634 60.5118 20C60.5118 21.6366 59.8875 23.2732 58.6388 24.5219L58.5219 24.6388C57.2732 25.8875 55.6366 26.5118 54 26.5118C52.3634 26.5118 50.7268 25.8875 49.4781 24.6388L49.3612 24.5219C48.1125 23.2732 47.4882 21.6366 47.4882 20C47.4882 18.3634 48.1125 16.7268 49.3612 15.4781L49.4781 15.3612C50.7268 14.1125 52.3634 13.4882 54 13.4882C55.6366 13.4882 57.2732 14.1125 58.5219 15.3612Z" fill="white" stroke="black" stroke-width="2" stroke-linecap="round"/>
<path fill-rule="evenodd" clip-rule="evenodd" d="M88.5935 13.0116L88.4766 12.8947C86.5468 10.9649 84.0175 10 81.4881 10C79.1621 10 76.8361 10.816 74.9763 12.4481L74.9763 0H71.4882L71.4882 20C71.4882 22.5293 72.4531 25.0586 74.3829 26.9884L74.4997 27.1053C76.4295 29.0351 78.9588 30 81.4881 30C84.0175 30 86.5468 29.0351 88.4766 27.1053L88.5935 26.9884C90.5233 25.0586 91.4882 22.5293 91.4882 20C91.4882 17.4707 90.5233 14.9414 88.5935 13.0116ZM76.9662 15.3612L76.8494 15.4781C75.6007 16.7268 74.9763 18.3634 74.9763 20C74.9763 21.6366 75.6007 23.2732 76.8494 24.5219L76.9662 24.6388C78.2149 25.8875 79.8515 26.5118 81.4881 26.5118C83.1248 26.5118 84.7614 25.8875 86.0101 24.6388L86.1269 24.5219C87.3756 23.2732 88 21.6366 88 20C88 18.3634 87.3756 16.7268 86.1269 15.4781L86.0101 15.3612C84.7614 14.1125 83.1248 13.4882 81.4881 13.4882C79.8515 13.4882 78.2149 14.1125 76.9662 15.3612Z" fill="white" stroke="black" stroke-width="2" stroke-linecap="round"/>
<path fill-rule="evenodd" clip-rule="evenodd" d="M113.488 20C113.488 20.5858 113.436 21.1716 113.333 21.75H97.2192C97.507 22.7651 98.0504 23.7229 98.8494 24.5219L98.9662 24.6388C100.215 25.8875 101.852 26.5118 103.488 26.5118C104.831 26.5118 106.175 26.0912 107.304 25.25H111.981C111.593 25.8673 111.131 26.4511 110.593 26.9884L110.477 27.1053C108.547 29.0351 106.017 30 103.488 30C100.959 30 98.4295 29.0351 96.4997 27.1053L96.3829 26.9884C94.4531 25.0586 93.4882 22.5293 93.4882 20C93.4882 17.4707 94.4531 14.9414 96.3829 13.0116L96.4997 12.8947C98.4295 10.9649 100.959 10 103.488 10C106.017 10 108.547 10.9649 110.477 12.8947L110.593 13.0116C112.523 14.9414 113.488 17.4707 113.488 20ZM103.488 13.4882C105.125 13.4882 106.761 14.1125 108.01 15.3612L108.127 15.4781C108.926 16.2771 109.469 17.2349 109.757 18.25H97.2192C97.507 17.2349 98.0503 16.2771 98.8494 15.4781L98.9662 15.3612C100.215 14.1125 101.852 13.4882 103.488 13.4882Z" fill="white" stroke="black" stroke-width="2" stroke-linecap="round" stroke-linejoin="round"/>
<path fill-rule="evenodd" clip-rule="evenodd" d="M135.488 20C135.488 20.5858 135.436 21.1716 135.333 21.75H119.219C119.507 22.7651 120.05 23.7229 120.849 24.5219L120.966 24.6388C122.215 25.8875 123.852 26.5118 125.488 26.5118C126.831 26.5118 128.175 26.0912 129.304 25.25H133.981C133.593 25.8673 133.131 26.4511 132.593 26.9884L132.477 27.1053C130.547 29.0351 128.017 30 125.488 30C122.959 30 120.43 29.0351 118.5 27.1053L118.383 26.9884C116.453 25.0586 115.488 22.5293 115.488 20C115.488 17.4707 116.453 14.9414 118.383 13.0116L118.5 12.8947C120.43 10.9649 122.959 10 125.488 10C128.017 10 130.547 10.9649 132.477 12.8947L132.593 13.0116C134.523 14.9414 135.488 17.4707 135.488 20ZM125.488 13.4882C127.125 13.4882 128.761 14.1125 130.01 15.3612L130.127 15.4781C130.926 16.2771 131.469 17.2349 131.757 18.25H119.219C119.507 17.2349 120.05 16.2771 120.849 15.4781L120.966 15.3612C122.215 14.1125 123.852 13.4882 125.488 13.4882Z" fill="white" stroke="black" stroke-width="2" stroke-linecap="round" stroke-linejoin="round"/>
<path fill-rule="evenodd" clip-rule="evenodd" d="M154.593 26.9884L154.477 27.1053C152.547 29.0351 150.017 30 147.488 30C145.162 30 142.836 29.184 140.976 27.5519L140.976 40H137.488L137.488 20C137.488 17.4707 138.453 14.9414 140.383 13.0116L140.5 12.8947C142.429 10.9649 144.959 10 147.488 10C150.017 10 152.547 10.9649 154.477 12.8947L154.593 13.0116C156.523 14.9414 157.488 17.4707 157.488 20C157.488 22.5293 156.523 25.0586 154.593 26.9884ZM142.966 24.6388L142.849 24.5219C141.601 23.2732 140.976 21.6366 140.976 20C140.976 18.3634 141.601 16.7268 142.849 15.4781L142.966 15.3612C144.215 14.1125 145.851 13.4882 147.488 13.4882C149.125 13.4882 150.761 14.1125 152.01 15.3612L152.127 15.4781C153.376 16.7268 154 18.3634 154 20C154 21.6366 153.376 23.2732 152.127 24.5219L152.01 24.6388C150.761 25.8875 149.125 26.5118 147.488 26.5118C145.851 26.5118 144.215 25.8875 142.966 24.6388Z" fill="white" stroke="black" stroke-width="2" stroke-linecap="round"/>
</g>
<defs>
<clipPath id="clip0_35_543">
<rect width="157" height="40" fill="white"/>
</clipPath>
</defs>
</svg>
