<svg width="821" height="200" viewBox="0 0 821 200" fill="none" xmlns="http://www.w3.org/2000/svg">
<path fill-rule="evenodd" clip-rule="evenodd" d="M50.6553 150C78.2695 150 100.655 127.614 100.655 100C100.655 72.3858 78.2695 50.0001 50.6553 50.0001C23.041 50.0001 0.655273 72.3858 0.655273 100C0.655273 127.614 23.041 150 50.6553 150ZM50.6553 130C67.2238 130 80.6553 116.569 80.6553 100C80.6553 83.4315 67.2238 70.0001 50.6553 70.0001C34.0867 70.0001 20.6553 83.4315 20.6553 100C20.6553 116.569 34.0867 130 50.6553 130Z" fill="#101010"/>
<path fill-rule="evenodd" clip-rule="evenodd" d="M220.655 100C220.655 127.614 198.27 150 170.655 150C143.041 150 120.655 127.614 120.655 100C120.655 72.3858 143.041 50.0001 170.655 50.0001C181.911 50.0001 192.299 53.7195 200.655 59.9964V6.10352e-05H220.655V100ZM170.655 130C187.224 130 200.655 116.569 200.655 100C200.655 83.4315 187.224 70.0001 170.655 70.0001C154.087 70.0001 140.655 83.4315 140.655 100C140.655 116.569 154.087 130 170.655 130Z" fill="#101010"/>
<path fill-rule="evenodd" clip-rule="evenodd" d="M340.655 100C340.655 127.614 318.27 150 290.655 150C263.041 150 240.655 127.614 240.655 100C240.655 72.3858 263.041 50.0001 290.655 50.0001C301.911 50.0001 312.299 53.7195 320.655 59.9964V6.10352e-05H340.655V100ZM290.655 130C307.224 130 320.655 116.569 320.655 100C320.655 83.4315 307.224 70.0001 290.655 70.0001C274.087 70.0001 260.655 83.4315 260.655 100C260.655 116.569 274.087 130 290.655 130Z" fill="#101010"/>
<path fill-rule="evenodd" clip-rule="evenodd" d="M360.655 100C360.655 127.614 383.041 150 410.655 150C438.27 150 460.655 127.614 460.655 100C460.655 72.3858 438.27 50.0001 410.655 50.0001C399.399 50.0001 389.012 53.7195 380.655 59.9964V6.10352e-05H360.655V100ZM410.655 130C394.087 130 380.655 116.569 380.655 100C380.655 83.4315 394.087 70.0001 410.655 70.0001C427.224 70.0001 440.655 83.4315 440.655 100C440.655 116.569 427.224 130 410.655 130Z" fill="#101010"/>
<path fill-rule="evenodd" clip-rule="evenodd" d="M720.655 100C720.655 72.3858 743.041 50.0001 770.655 50.0001C798.27 50.0001 820.655 72.3858 820.655 100C820.655 127.614 798.27 150 770.655 150C759.399 150 749.012 146.281 740.655 140.004V200H720.655V100ZM770.655 70.0001C754.087 70.0001 740.655 83.4315 740.655 100C740.655 116.569 754.087 130 770.655 130C787.224 130 800.655 116.569 800.655 100C800.655 83.4315 787.224 70.0001 770.655 70.0001Z" fill="#101010"/>
<path fill-rule="evenodd" clip-rule="evenodd" d="M531 150C503.386 150 481 127.614 481 100C481 72.3858 503.386 50 531 50C558.614 50 581 72.3858 581 100C581 103.425 580.656 106.769 580 110H502.707C506.825 121.652 517.938 130 531 130C538.031 130 544.497 127.581 549.612 123.53L563.284 138.182C554.573 145.555 543.306 150 531 150ZM531 70C517.938 70 506.825 78.3481 502.707 90H559.293C555.175 78.3481 544.062 70 531 70Z" fill="#101010"/>
<path fill-rule="evenodd" clip-rule="evenodd" d="M651 150C623.386 150 601 127.614 601 100C601 72.3858 623.386 50 651 50C678.614 50 701 72.3858 701 100C701 103.425 700.656 106.769 700 110H622.707C626.825 121.652 637.938 130 651 130C658.031 130 664.497 127.581 669.612 123.53L683.284 138.182C674.573 145.555 663.306 150 651 150ZM651 70C637.938 70 626.825 78.3481 622.707 90H679.293C675.175 78.3481 664.062 70 651 70Z" fill="#101010"/>
</svg>
