<svg width="816" height="191" viewBox="0 0 816 191" fill="none" xmlns="http://www.w3.org/2000/svg">
<path fill-rule="evenodd" clip-rule="evenodd" d="M48 58C27.5655 58 11 74.5655 11 95C11 115.435 27.5655 132 48 132C68.4345 132 85 115.435 85 95C85 74.5655 68.4345 58 48 58ZM5 95C5 71.2518 24.2518 52 48 52C71.7482 52 91 71.2518 91 95C91 118.748 71.7482 138 48 138C24.2518 138 5 118.748 5 95Z" fill="black"/>
<path fill-rule="evenodd" clip-rule="evenodd" d="M205 2V73.0754C197.507 60.4554 183.742 51.9963 168 51.9963C144.251 51.9963 124.999 71.251 125 95.0001C125.001 118.748 144.252 138 168 138C191.748 138 210.999 118.748 211 95.0001C211 95.0001 211 95.0002 211 95.0001C211 94.9988 211 94.9974 211 94.9961V2H205ZM205 95C204.999 115.435 188.434 132 168 132C147.566 132 131.001 115.435 131 94.9999C130.999 74.5642 147.565 57.9963 168 57.9963C188.434 57.9963 204.999 74.5623 205 94.9964C205 94.9976 205 94.9988 205 95C205 95 205 95 205 95Z" fill="black"/>
<path fill-rule="evenodd" clip-rule="evenodd" d="M325 2V73.0754C317.507 60.4554 303.742 51.9963 288 51.9963C264.251 51.9963 244.999 71.251 245 95.0001C245.001 118.748 264.252 138 288 138C311.748 138 330.999 118.748 331 95.0001C331 95.0001 331 95.0002 331 95.0001C331 94.9988 331 94.9974 331 94.9961V2H325ZM325 95C324.999 115.435 308.434 132 288 132C267.566 132 251.001 115.435 251 94.9999C250.999 74.5642 267.565 57.9963 288 57.9963C308.434 57.9963 324.999 74.5623 325 94.9964C325 94.9976 325 94.9988 325 95C325 95 325 95 325 95Z" fill="black"/>
<path fill-rule="evenodd" clip-rule="evenodd" d="M371 2V73.0754C378.493 60.4554 392.258 51.9963 408 51.9963C431.749 51.9963 451.001 71.251 451 95.0001C450.999 118.748 431.748 138 408 138C384.252 138 365.001 118.748 365 95.0001C365 95.0001 365 95.0002 365 95.0001C365 94.9988 365 94.9974 365 94.9961V2H371ZM371 95C371.001 115.435 387.566 132 408 132C428.434 132 444.999 115.435 445 94.9999C445.001 74.5642 428.435 57.9963 408 57.9963C387.566 57.9963 371.001 74.5623 371 94.9964C371 94.9976 371 94.9988 371 95C371 95 371 95 371 95Z" fill="black"/>
<path fill-rule="evenodd" clip-rule="evenodd" d="M491.12 98H571V95C571 71.2518 551.748 52 528 52C504.252 52 485 71.2518 485 95C485 118.748 504.252 138 528 138C541.581 138 553.692 131.701 561.568 121.876L556.886 118.124C550.1 126.588 539.683 132 528 132C508.575 132 492.647 117.032 491.12 98ZM528 58C508.575 58 492.647 72.9685 491.12 92H564.88C563.353 72.9685 547.425 58 528 58Z" fill="black"/>
<path fill-rule="evenodd" clip-rule="evenodd" d="M611.12 98H691V95C691 71.2518 671.748 52 648 52C624.252 52 605 71.2518 605 95C605 118.748 624.252 138 648 138C661.581 138 673.692 131.701 681.568 121.876L676.886 118.124C670.1 126.588 659.683 132 648 132C628.575 132 612.647 117.032 611.12 98ZM648 58C628.575 58 612.647 72.9685 611.12 92H684.88C683.353 72.9685 667.425 58 648 58Z" fill="black"/>
<path fill-rule="evenodd" clip-rule="evenodd" d="M731 188V116.925C738.493 129.545 752.258 138.004 768 138.004C791.749 138.004 811.001 118.749 811 94.9999C810.999 71.2519 791.748 52 768 52C744.252 52 725.001 71.2519 725 94.9999C725 94.9999 725 94.9998 725 94.9999C725 95.0012 725 95.0026 725 95.0039V188H731ZM731 95C731.001 74.5653 747.566 58 768 58C788.434 58 804.999 74.5654 805 95.0001C805.001 115.436 788.435 132.004 768 132.004C747.566 132.004 731.001 115.438 731 95.0036C731 95.0024 731 95.0012 731 95C731 95 731 95 731 95Z" fill="black"/>
</svg>
