<svg width="220" height="40" viewBox="0 0 220 40" fill="none" xmlns="http://www.w3.org/2000/svg">
<g clip-path="url(#clip0_35_901)">
<path fill-rule="evenodd" clip-rule="evenodd" d="M17.1053 26.9886L16.9884 27.1055C15.0586 29.0353 12.5293 30.0002 9.99999 30.0002C7.67396 30.0002 5.34793 29.1841 3.48816 27.5521L3.48816 40.0002H-5.72205e-06L0 20.0002C7.35174e-06 17.4708 0.96491 14.9415 2.89471 13.0117L3.01156 12.8949C4.94136 10.9651 7.47068 10.0002 9.99999 10.0002C12.5293 10.0002 15.0586 10.9651 16.9884 12.8949L17.1053 13.0117C19.0351 14.9415 20 17.4708 20 20.0002C20 22.5295 19.0351 25.0588 17.1053 26.9886ZM5.47806 24.639L5.36121 24.5221C4.11251 23.2734 3.48816 21.6368 3.48817 20.0002C3.48818 18.3635 4.11252 16.7269 5.36121 15.4782L5.47807 15.3614C6.72676 14.1127 8.36338 13.4884 9.99999 13.4884C11.6366 13.4883 13.2732 14.1127 14.5219 15.3614L14.6388 15.4783C15.8875 16.7269 16.5118 18.3635 16.5118 20.0002C16.5118 21.6368 15.8875 23.2734 14.6388 24.5221L14.5219 24.639C13.2732 25.8877 11.6366 26.512 9.99999 26.512C8.36338 26.512 6.72676 25.8877 5.47806 24.639Z" fill="white" stroke="black" stroke-width="2" stroke-linecap="round"/>
<path d="M25.5076 20.5H25.5V27.5623L25.5118 30L22 30V10L22 0H25.4882L25.4882 10V12.4481C27.3479 10.816 29.674 9.99999 32 9.99999C34.5293 9.99999 37.0586 10.9649 38.9884 12.8947L39.1053 13.0116C41.0351 14.9413 42 17.4707 42 20L42 30.0002H38.5118L38.5118 20C38.5118 18.3634 37.8875 16.7267 36.6388 15.4781L36.5219 15.3612C35.2732 14.1125 33.6366 13.4882 32 13.4882C30.3634 13.4882 28.7268 14.1125 27.4781 15.3612L27.3612 15.4781C26.1125 16.7268 25.4882 18.3634 25.4882 20C25.4882 20.1668 25.4947 20.3336 25.5076 20.5Z" fill="white"/>
<path d="M38.4924 20.5C38.5053 20.3336 38.5118 20.1668 38.5118 20M38.5118 20C38.5118 18.3634 37.8875 16.7267 36.6388 15.4781L36.5219 15.3612C35.2732 14.1125 33.6366 13.4882 32 13.4882C30.3634 13.4882 28.7268 14.1125 27.4781 15.3612L27.3612 15.4781C26.1125 16.7268 25.4882 18.3634 25.4882 20C25.4882 20.1668 25.4947 20.3336 25.5076 20.5H25.5V27.5623L25.5118 30L22 30V10L22 0H25.4882M38.5118 20L38.5118 30.0002H42L42 20C42 17.4707 41.0351 14.9413 39.1053 13.0116L38.9884 12.8947C37.0586 10.9649 34.5293 9.99999 32 9.99999C29.674 9.99999 27.3479 10.816 25.4882 12.4481M25.4882 0L25.4882 12.4481M25.4882 0L25.4882 10V12.4481" stroke="black" stroke-width="2" stroke-linecap="round"/>
<path fill-rule="evenodd" clip-rule="evenodd" d="M58.5219 15.3614C57.2732 14.1127 55.6366 13.4883 54 13.4884C52.3634 13.4884 50.7268 14.1127 49.4781 15.3614L49.3612 15.4783C48.1125 16.727 47.4882 18.3636 47.4882 20.0002C47.4882 21.6368 48.1125 23.2734 49.3612 24.5221L49.4781 24.639C50.7268 25.8877 52.3634 26.512 54 26.512C55.6366 26.512 57.2732 25.8877 58.5219 24.639L58.6388 24.5221C59.8875 23.2734 60.5118 21.6368 60.5118 20.0002C60.5118 18.3636 59.8875 16.727 58.6388 15.4782L58.5219 15.3614ZM47.0116 12.8949C48.9414 10.9651 51.4707 10.0002 54 10.0002C56.5293 10.0002 59.0586 10.9651 60.9884 12.8949L61.1053 13.0117C63.0351 14.9416 64 17.4709 64 20.0002C64 22.5295 63.0351 25.0588 61.1053 26.9886L60.9884 27.1055C59.0586 29.0353 56.5293 30.0002 54 30.0002C51.4707 30.0002 48.9414 29.0353 47.0116 27.1055L46.8947 26.9886C44.9649 25.0588 44 22.5295 44 20.0002C44 17.4709 44.9649 14.9416 46.8947 13.0117L47.0116 12.8949Z" fill="white" stroke="black" stroke-width="2" stroke-linecap="round" stroke-linejoin="round"/>
<path d="M66 20.0002C66 22.5295 66.9649 25.0588 68.8947 26.9886L69.0116 27.1055C70.9414 29.0353 73.4707 30.0002 76 30.0002V26.512C74.3634 26.512 72.7268 25.8877 71.4781 24.639L71.3612 24.5221C70.1125 23.2734 69.4882 21.6368 69.4882 20.0002C69.4882 20.0002 69.4882 20.0002 69.4882 20.0002L69.4882 13.4883H76V10.0002L69.4882 10.0002L69.4882 0.000183105H66V10.0002V13.4883L66 20.0002Z" fill="white"/>
<path d="M66 20.0002C66 22.5295 66.9649 25.0588 68.8947 26.9886L69.0116 27.1055C70.9414 29.0353 73.4707 30.0002 76 30.0002V26.512C74.3634 26.512 72.7268 25.8877 71.4781 24.639L71.3612 24.5221C70.1125 23.2734 69.4882 21.6368 69.4882 20.0002M66 20.0002L66 0.000183105M66 20.0002L66 13.4883V10.0002V0.000183105M69.4882 20.0002C69.4882 19.8334 69.4947 19.6666 69.5076 19.5002M69.4882 20.0002L69.4882 13.4883H76V10.0002L69.4882 10.0002L69.4882 0.000183105H66M69.4882 20.0002C69.4882 20.0002 69.4882 20.0002 69.4882 20.0002Z" stroke="black" stroke-width="2" stroke-linecap="round"/>
<path fill-rule="evenodd" clip-rule="evenodd" d="M92.5219 15.3614C91.2732 14.1127 89.6366 13.4883 88 13.4884C86.3634 13.4884 84.7268 14.1127 83.4781 15.3614L83.3612 15.4783C82.1125 16.727 81.4882 18.3636 81.4882 20.0002C81.4882 21.6368 82.1125 23.2734 83.3612 24.5221L83.4781 24.639C84.7268 25.8877 86.3634 26.512 88 26.512C89.6366 26.512 91.2732 25.8877 92.5219 24.639L92.6388 24.5221C93.8875 23.2734 94.5118 21.6368 94.5118 20.0002C94.5118 18.3636 93.8875 16.727 92.6388 15.4782L92.5219 15.3614ZM81.0116 12.8949C82.9414 10.9651 85.4707 10.0002 88 10.0002C90.5293 10.0002 93.0586 10.9651 94.9884 12.8949L95.1053 13.0117C97.0351 14.9416 98 17.4709 98 20.0002C98 22.5295 97.0351 25.0588 95.1053 26.9886L94.9884 27.1055C93.0586 29.0353 90.5293 30.0002 88 30.0002C85.4707 30.0002 82.9414 29.0353 81.0116 27.1055L80.8947 26.9886C78.9649 25.0588 78 22.5295 78 20.0002C78 17.4709 78.9649 14.9416 80.8947 13.0117L81.0116 12.8949Z" fill="white" stroke="black" stroke-width="2" stroke-linecap="round" stroke-linejoin="round"/>
<path fill-rule="evenodd" clip-rule="evenodd" d="M116.512 30.0002C116.512 31.6368 115.887 33.2734 114.639 34.5221L114.522 34.639C113.273 35.8877 111.637 36.512 110 36.512V40.0002C112.529 40.0002 115.059 39.0353 116.988 37.1055L117.105 36.9886C119.035 35.0588 120 32.5295 120 30.0002L120 20.0002C120 17.4709 119.035 14.9416 117.105 13.0117L116.988 12.8949C115.059 10.9651 112.529 10.0002 110 10.0002C107.471 10.0002 104.941 10.9651 103.012 12.8949L102.895 13.0117C100.965 14.9416 100 17.4709 100 20.0002C100 22.5295 100.965 25.0588 102.895 26.9886L103.012 27.1055C104.941 29.0353 107.471 30.0002 110 30.0002C112.326 30.0002 114.652 29.1842 116.512 27.5521V30.0002ZM110 13.4884C108.363 13.4883 106.727 14.1127 105.478 15.3614L105.361 15.4782C104.113 16.727 103.488 18.3636 103.488 20.0002C103.488 21.6368 104.113 23.2734 105.361 24.5221L105.478 24.639C106.727 25.8877 108.363 26.512 110 26.512C111.637 26.512 113.273 25.8877 114.522 24.639L114.639 24.5221C115.887 23.2734 116.512 21.6368 116.512 20.0002C116.512 18.3636 115.887 16.727 114.639 15.4783L114.522 15.3614C113.273 14.1127 111.637 13.4884 110 13.4884Z" fill="white"/>
<path d="M116.492 29.5002C116.505 29.6666 116.512 29.8334 116.512 30.0002M116.512 30.0002C116.512 31.6368 115.887 33.2734 114.639 34.5221L114.522 34.639C113.273 35.8877 111.637 36.512 110 36.512V40.0002C112.529 40.0002 115.059 39.0353 116.988 37.1055L117.105 36.9886C119.035 35.0588 120 32.5295 120 30.0002L120 20.0002C120 17.4709 119.035 14.9416 117.105 13.0117L116.988 12.8949C115.059 10.9651 112.529 10.0002 110 10.0002C107.471 10.0002 104.941 10.9651 103.012 12.8949L102.895 13.0117C100.965 14.9416 100 17.4709 100 20.0002C100 22.5295 100.965 25.0588 102.895 26.9886L103.012 27.1055C104.941 29.0353 107.471 30.0002 110 30.0002C112.326 30.0002 114.652 29.1842 116.512 27.5521V30.0002ZM105.478 15.3614C106.727 14.1127 108.363 13.4883 110 13.4884C111.637 13.4884 113.273 14.1127 114.522 15.3614L114.639 15.4783C115.887 16.727 116.512 18.3636 116.512 20.0002C116.512 21.6368 115.887 23.2734 114.639 24.5221L114.522 24.639C113.273 25.8877 111.637 26.512 110 26.512C108.363 26.512 106.727 25.8877 105.478 24.639L105.361 24.5221C104.113 23.2734 103.488 21.6368 103.488 20.0002C103.488 18.3636 104.113 16.727 105.361 15.4782L105.478 15.3614Z" stroke="black" stroke-width="2" stroke-linecap="round"/>
<path d="M132 13.4884V10.0002C129.674 10.0002 127.348 10.8162 125.488 12.4483V10.0002H122V30.0002H125.488C125.475 29.8338 125.488 20.167 125.488 20.0002C125.488 18.3635 126.112 16.7269 127.361 15.4782L127.478 15.3614C128.727 14.1127 130.363 13.4884 132 13.4884Z" fill="white" stroke="black" stroke-width="2" stroke-linecap="round"/>
<path fill-rule="evenodd" clip-rule="evenodd" d="M150.988 12.8949L151.105 13.0117C153.035 14.9415 154 17.4708 154 20.0002L154 30.0001H150.5V27.5624C148.642 29.1876 146.321 30.0002 144 30.0002C141.471 30.0002 138.941 29.0353 137.012 27.1055L136.895 26.9886C134.965 25.0588 134 22.5295 134 20.0002C134 17.4708 134.965 14.9415 136.895 13.0117L137.012 12.8949C138.941 10.9651 141.471 10.0002 144 10.0002C146.529 10.0002 149.059 10.9651 150.988 12.8949ZM139.478 24.639L139.361 24.5221C138.113 23.2734 137.488 21.6368 137.488 20.0002C137.488 18.3635 138.113 16.7269 139.361 15.4782L139.478 15.3614C140.727 14.1127 142.363 13.4884 144 13.4884C145.637 13.4883 147.273 14.1127 148.522 15.3614L148.639 15.4783C149.887 16.7269 150.512 18.3635 150.512 20.0002C150.512 21.6368 149.887 23.2734 148.639 24.5221L148.522 24.639C147.273 25.8877 145.637 26.512 144 26.512C142.363 26.512 140.727 25.8877 139.478 24.639Z" fill="white" stroke="black" stroke-width="2" stroke-linecap="round"/>
<path fill-rule="evenodd" clip-rule="evenodd" d="M173.105 26.9886L172.988 27.1055C171.059 29.0353 168.529 30.0002 166 30.0002C163.674 30.0002 161.348 29.1841 159.488 27.5521L159.488 40.0002H156L156 20.0002C156 17.4708 156.965 14.9415 158.895 13.0117L159.012 12.8949C160.941 10.9651 163.471 10.0002 166 10.0002C168.529 10.0002 171.059 10.9651 172.988 12.8949L173.105 13.0117C175.035 14.9415 176 17.4708 176 20.0002C176 22.5295 175.035 25.0588 173.105 26.9886ZM161.478 24.639L161.361 24.5221C160.113 23.2734 159.488 21.6368 159.488 20.0002C159.488 18.3635 160.113 16.7269 161.361 15.4782L161.478 15.3614C162.727 14.1127 164.363 13.4884 166 13.4884C167.637 13.4883 169.273 14.1127 170.522 15.3614L170.639 15.4783C171.887 16.7269 172.512 18.3635 172.512 20.0002C172.512 21.6368 171.887 23.2734 170.639 24.5221L170.522 24.639C169.273 25.8877 167.637 26.512 166 26.512C164.363 26.512 162.727 25.8877 161.478 24.639Z" fill="white" stroke="black" stroke-width="2" stroke-linecap="round"/>
<path d="M181.508 20.5H181.5V27.5623L181.512 30L178 30V10L178 0H181.488L181.488 10V12.4481C183.348 10.816 185.674 9.99999 188 9.99999C190.529 9.99999 193.059 10.9649 194.988 12.8947L195.105 13.0116C197.035 14.9413 198 17.4707 198 20L198 30.0002H194.512L194.512 20C194.512 18.3634 193.887 16.7267 192.639 15.4781L192.522 15.3612C191.273 14.1125 189.637 13.4882 188 13.4882C186.363 13.4882 184.727 14.1125 183.478 15.3612L183.361 15.4781C182.113 16.7268 181.488 18.3634 181.488 20C181.488 20.1668 181.495 20.3336 181.508 20.5Z" fill="white"/>
<path d="M194.492 20.5C194.505 20.3336 194.512 20.1668 194.512 20M194.512 20C194.512 18.3634 193.887 16.7267 192.639 15.4781L192.522 15.3612C191.273 14.1125 189.637 13.4882 188 13.4882C186.363 13.4882 184.727 14.1125 183.478 15.3612L183.361 15.4781C182.113 16.7268 181.488 18.3634 181.488 20C181.488 20.1668 181.495 20.3336 181.508 20.5H181.5V27.5623L181.512 30L178 30V10L178 0H181.488M194.512 20L194.512 30.0002H198L198 20C198 17.4707 197.035 14.9413 195.105 13.0116L194.988 12.8947C193.059 10.9649 190.529 9.99999 188 9.99999C185.674 9.99999 183.348 10.816 181.488 12.4481M181.488 0L181.488 12.4481M181.488 0L181.488 10V12.4481" stroke="black" stroke-width="2" stroke-linecap="round"/>
<path d="M216.512 30.0002C216.512 31.6368 215.888 33.2734 214.639 34.5221L214.522 34.639C213.273 35.8877 211.637 36.512 210 36.512V40.0002C212.529 40.0002 215.059 39.0353 216.988 37.1055L217.105 36.9886C219.035 35.0588 220 32.5295 220 30.0002L220 10.0002H216.512L216.512 20.0002C216.512 21.6368 215.888 23.2734 214.639 24.5221L214.522 24.639C213.273 25.8877 211.637 26.512 210 26.512C208.363 26.512 206.727 25.8877 205.478 24.639L205.361 24.5221C204.114 23.2747 203.489 21.64 203.488 20.005V10.0002H200V20.0109C200.003 22.5366 200.968 25.0615 202.895 26.9886L203.012 27.1055C204.941 29.0353 207.471 30.0002 210 30.0002C212.326 30.0002 214.652 29.1842 216.512 27.5521L216.512 30.0002Z" fill="white"/>
<path d="M216.492 29.5002C216.505 29.6666 216.512 29.8334 216.512 30.0002M216.512 30.0002C216.512 31.6368 215.888 33.2734 214.639 34.5221L214.522 34.639C213.273 35.8877 211.637 36.512 210 36.512V40.0002C212.529 40.0002 215.059 39.0353 216.988 37.1055L217.105 36.9886C219.035 35.0588 220 32.5295 220 30.0002L220 10.0002H216.512L216.512 20.0002C216.512 21.6368 215.888 23.2734 214.639 24.5221L214.522 24.639C213.273 25.8877 211.637 26.512 210 26.512C208.363 26.512 206.727 25.8877 205.478 24.639L205.361 24.5221C204.114 23.2747 203.489 21.64 203.488 20.005M216.512 30.0002L216.512 27.5521C214.652 29.1842 212.326 30.0002 210 30.0002C207.471 30.0002 204.941 29.0353 203.012 27.1055L202.895 26.9886C200.968 25.0615 200.003 22.5366 200 20.0109M200 20.0002C200 20.0038 200 20.0073 200 20.0109M203.488 20.0002C203.488 20.0018 203.488 20.0034 203.488 20.005M203.488 20.5002V20.005M200 20.5002V20.0109M203.488 20.005V10.0002H200V20.0109" stroke="black" stroke-width="2" stroke-linecap="round"/>
</g>
<defs>
<clipPath id="clip0_35_901">
<rect width="220" height="40" fill="white"/>
</clipPath>
</defs>
</svg>
