<svg width="1223" height="234" viewBox="0 0 1223 234" fill="none" xmlns="http://www.w3.org/2000/svg">
<path fill-rule="evenodd" clip-rule="evenodd" d="M15 228V139.925C22.493 152.545 36.2585 161.004 52 161.004C75.7495 161.004 95.0011 141.749 95 118C94.9989 94.2518 75.7484 75 52 75C28.2516 75 9.00109 94.2518 9 118C9 118 9 118 9 118C9 118.001 9 118.003 9 118.004V228H15ZM15 118C15.001 97.5653 31.5656 81 52 81C72.4344 81 88.9991 97.5654 89 118C89.0009 138.436 72.4353 155.004 52 155.004C31.5658 155.004 15.0009 138.438 15 118.004C15 118.002 15 118.001 15 118C15 118 15 118 15 118Z" fill="black"/>
<path fill-rule="evenodd" clip-rule="evenodd" d="M895 228V139.925C902.493 152.545 916.258 161.004 932 161.004C955.749 161.004 975.001 141.749 975 118C974.999 94.2518 955.748 75 932 75C908.252 75 889.001 94.2518 889 118C889 118 889 118 889 118C889 118.001 889 118.003 889 118.004V228H895ZM895 118C895.001 97.5653 911.566 81 932 81C952.434 81 968.999 97.5654 969 118C969.001 138.436 952.435 155.004 932 155.004C911.566 155.004 895.001 138.438 895 118.004C895 118.002 895 118.001 895 118C895 118 895 118 895 118Z" fill="black"/>
<path fill-rule="evenodd" clip-rule="evenodd" d="M129 8H135V89.0746C142.493 76.455 156.259 67.9963 172 67.9963C195.749 67.9963 215.002 87.2508 215 111C215 111 215 111 215 111V161H209V111C209.002 90.5646 192.435 73.9963 172 73.9963C151.567 73.9963 135.002 90.5604 135 110.993C135 110.993 135 110.992 135 110.993V161H129V8Z" fill="black"/>
<path fill-rule="evenodd" clip-rule="evenodd" d="M1009 8H1015V89.0746C1022.49 76.455 1036.26 67.9963 1052 67.9963C1075.75 67.9963 1095 87.2508 1095 111C1095 111 1095 111 1095 111V161H1089V111C1089 90.5646 1072.44 73.9963 1052 73.9963C1031.57 73.9963 1015 90.5604 1015 110.993C1015 110.993 1015 110.992 1015 110.993V161H1009V8Z" fill="black"/>
<path fill-rule="evenodd" clip-rule="evenodd" d="M292 81C271.565 81 255 97.5655 255 118C255 138.435 271.565 155 292 155C312.435 155 329 138.435 329 118C329 97.5655 312.435 81 292 81ZM249 118C249 94.2518 268.252 75 292 75C315.748 75 335 94.2518 335 118C335 141.748 315.748 161 292 161C268.252 161 249 141.748 249 118Z" fill="black"/>
<path fill-rule="evenodd" clip-rule="evenodd" d="M369 8H375V75H412V81H375V118C375 137.441 390.754 155 412 155V161C387.246 161 369 140.559 369 118V8Z" fill="black"/>
<path fill-rule="evenodd" clip-rule="evenodd" d="M492 81C471.565 81 455 97.5655 455 118C455 138.435 471.565 155 492 155C512.435 155 529 138.435 529 118C529 97.5655 512.435 81 492 81ZM449 118C449 94.2518 468.252 75 492 75C515.748 75 535 94.2518 535 118C535 141.748 515.748 161 492 161C468.252 161 449 141.748 449 118Z" fill="black"/>
<path fill-rule="evenodd" clip-rule="evenodd" d="M569 118C569.001 94.2519 588.252 75 612 75C635.748 75 654.999 94.2519 655 118C655 118 655 118 655 118C655 118.001 655 118.003 655 118.004V185C655 208.748 635.748 228 612 228C597.379 228 584.463 220.7 576.699 209.559L581.621 206.128C588.312 215.728 599.424 222 612 222C632.435 222 649 205.435 649 185V139.925C641.507 152.545 627.742 161.004 612 161.004C588.251 161.004 568.999 141.749 569 118ZM649 118.004C649 118.002 649 118.001 649 118C648.999 97.5654 632.434 81 612 81C591.566 81 575.001 97.5654 575 118C574.999 138.436 591.565 155.004 612 155.004C632.434 155.004 648.999 138.438 649 118.004Z" fill="black"/>
<path fill-rule="evenodd" clip-rule="evenodd" d="M689 75H695V96.1158C702.603 83.3627 716.586 75 732 75V81C712.108 81 695 97.2054 695 118V161H689V75Z" fill="black"/>
<path fill-rule="evenodd" clip-rule="evenodd" d="M769 118C769.001 94.2519 788.252 75 812 75C835.748 75 854.999 94.2519 855 118C855 118 855 118 855 118C855 118.001 855 118.003 855 118.004V161.004H849V139.925C841.507 152.545 827.742 161.004 812 161.004C788.251 161.004 768.999 141.749 769 118ZM849 118.004C849 118.002 849 118.001 849 118C848.999 97.5654 832.434 81 812 81C791.566 81 775.001 97.5654 775 118C774.999 138.436 791.565 155.004 812 155.004C832.434 155.004 848.999 138.438 849 118.004Z" fill="black"/>
<path d="M1172 155.004C1151.56 155.004 1135 138.435 1135 118V72H1129V118C1129 141.749 1148.25 161.004 1172 161.004C1187.74 161.004 1201.51 152.545 1209 139.925V182C1209 202.435 1192.43 219 1172 219C1161.78 219 1152.54 214.862 1145.84 208.163L1141.59 212.406C1149.37 220.184 1160.13 225 1172 225C1195.75 225 1215 205.748 1215 182V72H1209V118.007C1209 138.44 1192.43 155.004 1172 155.004Z" fill="black"/>
</svg>
