<svg width="1201" height="200" viewBox="0 0 1201 200" fill="none" xmlns="http://www.w3.org/2000/svg">
<path fill-rule="evenodd" clip-rule="evenodd" d="M0.655457 100C0.655457 72.3858 23.0412 50 50.6555 50C78.2697 50 100.655 72.3858 100.655 100C100.655 127.614 78.2697 150 50.6555 150C39.3994 150 29.0121 146.281 20.6555 140.004V200H0.655457V100ZM50.6555 70C34.0869 70 20.6555 83.4315 20.6555 100C20.6555 116.569 34.0869 130 50.6555 130C67.224 130 80.6555 116.569 80.6555 100C80.6555 83.4315 67.224 70 50.6555 70Z" fill="black"/>
<path d="M220.655 100C220.655 72.3858 198.27 50 170.655 50C159.399 50 149.012 53.7194 140.655 59.9963V0H120.655V150H140.655V100C140.655 83.4315 154.087 70 170.655 70C187.224 70 200.655 83.4315 200.655 100V150H220.655V100Z" fill="black"/>
<path fill-rule="evenodd" clip-rule="evenodd" d="M290.655 150C318.27 150 340.655 127.614 340.655 100C340.655 72.3858 318.27 50 290.655 50C263.041 50 240.655 72.3858 240.655 100C240.655 127.614 263.041 150 290.655 150ZM290.655 130C307.224 130 320.655 116.569 320.655 100C320.655 83.4315 307.224 70 290.655 70C274.087 70 260.655 83.4315 260.655 100C260.655 116.569 274.087 130 290.655 130Z" fill="black"/>
<path d="M360.655 100C360.655 106.566 361.949 113.068 364.461 119.134C366.974 125.2 370.657 130.712 375.3 135.355C379.943 139.998 385.455 143.681 391.521 146.194C397.588 148.707 404.089 150 410.655 150L410.655 130C406.716 130 402.815 129.224 399.175 127.716C395.535 126.209 392.228 123.999 389.442 121.213C386.656 118.427 384.447 115.12 382.939 111.48C381.431 107.841 380.655 103.94 380.655 100V70H410.655V50H380.655V0H360.655V100Z" fill="black"/>
<path fill-rule="evenodd" clip-rule="evenodd" d="M480.655 150C508.27 150 530.655 127.614 530.655 100C530.655 72.3858 508.27 50 480.655 50C453.041 50 430.655 72.3858 430.655 100C430.655 127.614 453.041 150 480.655 150ZM480.655 130C497.224 130 510.655 116.569 510.655 100C510.655 83.4315 497.224 70 480.655 70C464.087 70 450.655 83.4315 450.655 100C450.655 116.569 464.087 130 480.655 130Z" fill="black"/>
<path fill-rule="evenodd" clip-rule="evenodd" d="M650.655 150C650.655 159.889 647.723 169.556 642.229 177.779C636.735 186.001 628.926 192.41 619.79 196.194C610.653 199.978 600.6 200.969 590.901 199.039C581.202 197.11 572.293 192.348 565.3 185.355L579.442 171.213C583.638 175.409 588.983 178.266 594.803 179.424C600.622 180.581 606.654 179.987 612.136 177.716C617.618 175.446 622.303 171.601 625.6 166.667C628.896 161.734 630.655 155.933 630.655 150V140.004C622.299 146.281 611.912 150 600.655 150C573.041 150 550.655 127.614 550.655 100C550.655 72.3858 573.041 50 600.655 50C628.27 50 650.655 72.3858 650.655 100V150ZM600.655 70C617.224 70 630.655 83.4315 630.655 100C630.655 116.569 617.224 130 600.655 130C584.087 130 570.655 116.569 570.655 100C570.655 83.4315 584.087 70 600.655 70Z" fill="black"/>
<path d="M701.521 53.806C707.588 51.2933 714.089 50 720.656 50L720.656 70C716.716 70 712.815 70.776 709.175 72.2836C705.535 73.7913 702.228 76.001 699.442 78.7868C696.657 81.5726 694.447 84.8797 692.939 88.5195C691.431 92.1593 690.656 96.0603 690.656 100V150H670.656V50H690.656V60C693.997 57.4943 697.646 55.4113 701.521 53.806Z" fill="black"/>
<path fill-rule="evenodd" clip-rule="evenodd" d="M790.656 150C763.041 150 740.656 127.614 740.656 100C740.656 72.3858 763.041 50 790.656 50C818.27 50 840.656 72.3858 840.656 100V150H820.656V140.004C812.299 146.281 801.912 150 790.656 150ZM790.656 130C807.224 130 820.656 116.569 820.656 100C820.656 83.4315 807.224 70 790.656 70C774.087 70 760.656 83.4315 760.656 100C760.656 116.569 774.087 130 790.656 130Z" fill="black"/>
<path fill-rule="evenodd" clip-rule="evenodd" d="M860.656 100C860.656 72.3858 883.041 50 910.656 50C938.27 50 960.656 72.3858 960.656 100C960.656 127.614 938.27 150 910.656 150C899.399 150 889.012 146.281 880.656 140.004V200H860.656V100ZM910.656 70C894.087 70 880.656 83.4315 880.656 100C880.656 116.569 894.087 130 910.656 130C927.224 130 940.656 116.569 940.656 100C940.656 83.4315 927.224 70 910.656 70Z" fill="black"/>
<path d="M1080.66 100C1080.66 72.3858 1058.27 50 1030.66 50C1019.4 50 1009.01 53.7194 1000.66 59.9963V0H980.656V150H1000.66V100C1000.66 83.4315 1014.09 70 1030.66 70C1047.22 70 1060.66 83.4315 1060.66 100V150H1080.66V100Z" fill="black"/>
<path d="M1200.66 150C1200.66 159.889 1197.72 169.556 1192.23 177.779C1186.73 186.001 1178.93 192.41 1169.79 196.194C1160.65 199.978 1150.6 200.969 1140.9 199.039C1131.2 197.11 1122.29 192.348 1115.3 185.355L1129.44 171.213C1133.64 175.409 1138.98 178.266 1144.8 179.424C1150.62 180.581 1156.65 179.987 1162.14 177.716C1167.62 175.446 1172.3 171.601 1175.6 166.667C1178.9 161.734 1180.66 155.933 1180.66 150V140.004C1172.3 146.281 1161.91 150 1150.66 150C1123.04 150 1100.66 127.614 1100.66 100V50H1120.66V100C1120.66 116.569 1134.09 130 1150.66 130C1167.22 130 1180.66 116.569 1180.66 100V50H1200.66V100V150Z" fill="black"/>
</svg>
