<svg width="1281" height="250" viewBox="0 0 1281 250" fill="none" xmlns="http://www.w3.org/2000/svg">
<path d="M65.6555 240V245H60.6555H40.6555H35.6555V240V140C35.6555 109.624 60.2799 85 90.6555 85C121.031 85 145.656 109.624 145.656 140C145.656 170.376 121.031 195 90.6555 195C81.658 195 73.1581 192.836 65.6555 189.002V240ZM90.6555 115C76.8484 115 65.6555 126.193 65.6555 140C65.6555 153.807 76.8484 165 90.6555 165C104.463 165 115.656 153.807 115.656 140C115.656 126.193 104.463 115 90.6555 115Z" fill="black" stroke="black" stroke-width="10"/>
<path d="M185.656 40V35H180.656H160.656H155.656V40V190V195H160.656H180.656H185.656V190V140C185.656 126.193 196.848 115 210.656 115C224.463 115 235.656 126.193 235.656 140V190V195H240.656H260.656H265.656V190V140C265.656 109.624 241.031 85 210.656 85C201.658 85 193.158 87.1637 185.656 90.9984V40Z" fill="black" stroke="black" stroke-width="10"/>
<path d="M330.656 195C361.031 195 385.656 170.376 385.656 140C385.656 109.624 361.031 85 330.656 85C300.28 85 275.656 109.624 275.656 140C275.656 170.376 300.28 195 330.656 195ZM355.656 140C355.656 153.807 344.463 165 330.656 165C316.848 165 305.656 153.807 305.656 140C305.656 126.193 316.848 115 330.656 115C344.463 115 355.656 126.193 355.656 140Z" fill="black" stroke="black" stroke-width="10"/>
<path d="M450.656 195H455.656V190L455.656 170V165H450.656C447.372 165 444.122 164.353 441.088 163.097C438.055 161.841 435.299 159.999 432.978 157.678C430.656 155.356 428.815 152.6 427.559 149.567C426.302 146.534 425.656 143.283 425.656 140V115H450.656H455.656V110V90V85H450.656H425.656V40V35H420.656H400.656H395.656V40V140C395.656 147.223 397.078 154.375 399.842 161.048C402.606 167.72 406.657 173.784 411.765 178.891C416.872 183.998 422.935 188.049 429.608 190.813C436.281 193.577 443.433 195 450.656 195Z" fill="black" stroke="black" stroke-width="10"/>
<path d="M520.656 195C551.031 195 575.656 170.376 575.656 140C575.656 109.624 551.031 85 520.656 85C490.28 85 465.656 109.624 465.656 140C465.656 170.376 490.28 195 520.656 195ZM545.656 140C545.656 153.807 534.463 165 520.656 165C506.848 165 495.656 153.807 495.656 140C495.656 126.193 506.848 115 520.656 115C534.463 115 545.656 126.193 545.656 140Z" fill="black" stroke="black" stroke-width="10"/>
<path d="M601.765 221.82L598.229 225.355L601.765 228.891C609.457 236.583 619.257 241.821 629.926 243.943C640.595 246.065 651.653 244.976 661.703 240.813C671.753 236.651 680.343 229.601 686.386 220.556C692.43 211.512 695.656 200.878 695.656 190V140C695.656 109.624 671.031 85 640.656 85C610.28 85 585.656 109.624 585.656 140C585.656 170.376 610.28 195 640.656 195C649.653 195 658.153 192.836 665.656 189.002V190C665.656 194.945 664.189 199.778 661.442 203.889C658.695 208 654.791 211.205 650.223 213.097C645.654 214.989 640.628 215.484 635.778 214.52C630.929 213.555 626.474 211.174 622.978 207.678L619.442 204.142L615.907 207.678L601.765 221.82ZM640.656 115C654.463 115 665.656 126.193 665.656 140C665.656 153.807 654.463 165 640.656 165C626.848 165 615.656 153.807 615.656 140C615.656 126.193 626.848 115 640.656 115Z" fill="black" stroke="black" stroke-width="10"/>
<path d="M765.656 90V85H760.656C753.433 85 746.281 86.4226 739.608 89.1866C738.265 89.743 736.946 90.3514 735.656 91.0102V90V85H730.656H710.656H705.656V90V190V195H710.656H730.656H735.656V190V140C735.656 136.717 736.302 133.466 737.559 130.433C738.815 127.4 740.656 124.644 742.978 122.322C745.299 120.001 748.055 118.159 751.088 116.903C754.122 115.647 757.372 115 760.656 115H765.656V110L765.656 90Z" fill="black" stroke="black" stroke-width="10"/>
<path d="M880.656 195H885.656V190V140C885.656 109.624 861.031 85 830.656 85C800.28 85 775.656 109.624 775.656 140C775.656 170.376 800.28 195 830.656 195C839.653 195 848.153 192.836 855.656 189.002V190V195H860.656H880.656ZM855.656 140C855.656 153.807 844.463 165 830.656 165C816.848 165 805.656 153.807 805.656 140C805.656 126.193 816.848 115 830.656 115C844.463 115 855.656 126.193 855.656 140Z" fill="black" stroke="black" stroke-width="10"/>
<path d="M925.656 240V245H920.656H900.656H895.656V240V140C895.656 109.624 920.28 85 950.656 85C981.031 85 1005.66 109.624 1005.66 140C1005.66 170.376 981.031 195 950.656 195C941.658 195 933.158 192.836 925.656 189.002V240ZM950.656 115C936.848 115 925.656 126.193 925.656 140C925.656 153.807 936.848 165 950.656 165C964.463 165 975.656 153.807 975.656 140C975.656 126.193 964.463 115 950.656 115Z" fill="black" stroke="black" stroke-width="10"/>
<path d="M1045.66 40V35H1040.66H1020.66H1015.66V40V190V195H1020.66H1040.66H1045.66V190V140C1045.66 126.193 1056.85 115 1070.66 115C1084.46 115 1095.66 126.193 1095.66 140V190V195H1100.66H1120.66H1125.66V190V140C1125.66 109.624 1101.03 85 1070.66 85C1061.66 85 1053.16 87.1637 1045.66 90.9984V40Z" fill="black" stroke="black" stroke-width="10"/>
<path d="M1151.76 221.82L1148.23 225.355L1151.76 228.891C1159.46 236.583 1169.26 241.821 1179.93 243.943C1190.59 246.065 1201.65 244.976 1211.7 240.813C1221.75 236.651 1230.34 229.601 1236.39 220.556C1242.43 211.512 1245.66 200.878 1245.66 190V140V90V85H1240.66H1220.66H1215.66V90V140C1215.66 153.807 1204.46 165 1190.66 165C1176.85 165 1165.66 153.807 1165.66 140V90V85H1160.66H1140.66H1135.66V90V140C1135.66 170.376 1160.28 195 1190.66 195C1199.65 195 1208.15 192.836 1215.66 189.002V190C1215.66 194.945 1214.19 199.778 1211.44 203.889C1208.7 208 1204.79 211.205 1200.22 213.097C1195.65 214.989 1190.63 215.484 1185.78 214.52C1180.93 213.555 1176.47 211.174 1172.98 207.678L1169.44 204.142L1165.91 207.678L1151.76 221.82Z" fill="black" stroke="black" stroke-width="10"/>
</svg>
