<svg width="55" height="50" viewBox="0 0 55 50" fill="none" xmlns="http://www.w3.org/2000/svg">
<path d="M55 25.4429C55 22.0472 52.2935 19.2913 48.9587 19.2913C47.3155 19.2913 45.8656 19.9311 44.8023 21.0138C40.6942 18.0118 34.9912 16.0433 28.7083 15.7972L31.4631 2.65748L40.4042 4.57677C40.5009 6.88976 42.3858 8.75984 44.7056 8.75984C47.0738 8.75984 49.007 6.79134 49.007 4.37993C49.007 1.96851 47.0738 0 44.7056 0C43.0141 0 41.5641 0.984252 40.8875 2.46063L30.8831 0.295279C30.5931 0.246066 30.3032 0.295276 30.0615 0.442914C29.8199 0.590552 29.6749 0.836616 29.5782 1.13189L26.5334 15.7972C20.1054 15.9941 14.3541 17.9134 10.1977 21.0138C9.13445 19.9803 7.6362 19.2913 6.0413 19.2913C2.7065 19.2913 0 22.0472 0 25.4429C0 27.9528 1.44991 30.0689 3.57645 31.0532C3.47979 31.6437 3.43146 32.2835 3.43146 32.9232C3.43146 42.372 14.2091 50 27.5483 50C40.8875 50 51.6652 42.372 51.6652 32.9232C51.6652 32.2835 51.6169 31.6929 51.5202 31.1024C53.5018 30.1181 55 27.9528 55 25.4429ZM13.6775 29.8228C13.6775 27.4114 15.6107 25.4429 17.9789 25.4429C20.3471 25.4429 22.2803 27.4114 22.2803 29.8228C22.2803 32.2343 20.3471 34.2028 17.9789 34.2028C15.6107 34.2028 13.6775 32.2343 13.6775 29.8228ZM37.6977 41.3878C34.7496 44.3898 29.1432 44.5866 27.5 44.5866C25.8568 44.5866 20.2021 44.3406 17.3023 41.3878C16.8673 40.9449 16.8673 40.2067 17.3023 39.7638C17.7373 39.3209 18.4622 39.3209 18.8972 39.7638C20.7337 41.6339 24.6968 42.3228 27.5483 42.3228C30.3998 42.3228 34.3146 41.6339 36.1995 39.7638C36.6344 39.3209 37.3594 39.3209 37.7944 39.7638C38.1327 40.2559 38.1327 40.9449 37.6977 41.3878ZM36.9244 34.2028C34.5562 34.2028 32.623 32.2343 32.623 29.8228C32.623 27.4114 34.5562 25.4429 36.9244 25.4429C39.2926 25.4429 41.2258 27.4114 41.2258 29.8228C41.2258 32.2343 39.2926 34.2028 36.9244 34.2028Z" fill="white"/>
</svg>
