<svg width="100" height="100" viewBox="0 0 100 100" fill="none" xmlns="http://www.w3.org/2000/svg">
<path fill-rule="evenodd" clip-rule="evenodd" d="M50 40.5C44.7761 40.5 40.5 44.7761 40.5 50C40.5 55.2239 44.7761 59.5 50 59.5C53.4952 59.5 56.5686 57.5856 58.2191 54.7486L58.4705 54.3164L59.3349 54.8192L59.0835 55.2514C57.2628 58.381 53.8686 60.5 50 60.5C44.2239 60.5 39.5 55.7761 39.5 50C39.5 44.2239 44.2239 39.5 50 39.5C53.2824 39.5 56.2233 41.0255 58.1513 43.3994V39.5H59.1513V45C59.1513 45.2761 58.9274 45.5 58.6513 45.5H53V44.5H57.7335C56.0053 42.0816 53.1769 40.5 50 40.5Z" fill="black"/>
</svg>
