<svg width="100" height="100" viewBox="0 0 100 100" fill="none" xmlns="http://www.w3.org/2000/svg">
<path d="M49.5 37.5L50.4743 37.3419C50.9236 38.6895 52.0677 39.858 53.4475 40.6979C54.827 41.5376 56.3629 42 57.5 42H58V43H57.5C56.1371 43 54.423 42.4624 52.9275 41.5521C52.0164 40.9975 51.157 40.2864 50.5 39.4417L50.5001 47.5C50.5001 47.5784 50.482 47.6526 50.4498 47.7186L49.5 46.747L49.5 37.5Z" fill="black"/>
<path fill-rule="evenodd" clip-rule="evenodd" d="M49.5 52.2167V54.5975C48.5046 53.184 46.8602 52.2606 45 52.2606C41.9624 52.2606 39.5 54.723 39.5 57.7606C39.5 60.7981 41.9624 63.2606 45 63.2606C48.0376 63.2606 50.5 60.7981 50.5 57.7606V53.2397L49.5 52.2167ZM49.5 57.7606C49.5 55.2753 47.4853 53.2606 45 53.2606C42.5147 53.2606 40.5 55.2753 40.5 57.7606C40.5 60.2458 42.5147 62.2606 45 62.2606C47.4853 62.2606 49.5 60.2458 49.5 57.7606Z" fill="black"/>
<path d="M60.5 60H59.0858L39.5355 40H40.9497L60.5 60Z" fill="black"/>
</svg>
