<svg width="100" height="100" viewBox="0 0 100 100" fill="none" xmlns="http://www.w3.org/2000/svg">
<path d="M50.6777 49.8388L53.1777 49.8388L53.1777 49.8388L50.6777 49.8388ZM50.6777 63.981L48.9099 65.7487C49.6249 66.4637 50.7002 66.6776 51.6344 66.2907C52.5686 65.9037 53.1777 64.9921 53.1777 63.981L50.6777 63.981ZM50.6777 35.6967L53.1777 35.6967C53.1777 34.6856 52.5686 33.774 51.6344 33.387C50.7002 33.0001 49.6249 33.2139 48.9099 33.9289L50.6777 35.6967ZM41.8388 44.5355V47.0355C42.5019 47.0355 43.1378 46.7721 43.6066 46.3033L41.8388 44.5355ZM38.3033 44.5355V42.0355C36.9226 42.0355 35.8033 43.1548 35.8033 44.5355H38.3033ZM38.3033 55.1421H35.8033C35.8033 55.8052 36.0667 56.4411 36.5355 56.9099C37.0044 57.3788 37.6403 57.6421 38.3033 57.6421L38.3033 55.1421ZM41.8388 55.1421L43.6066 53.3744C43.1378 52.9055 42.5019 52.6421 41.8388 52.6421L41.8388 55.1421ZM58.0313 52.4576C56.9923 53.3669 56.8871 54.9463 57.7964 55.9853C58.7057 57.0243 60.2851 57.1295 61.3241 56.2202L58.0313 52.4576ZM71.4707 46.5809C72.4329 45.5906 72.41 44.0079 71.4198 43.0457C70.4295 42.0836 68.8467 42.1064 67.8846 43.0967L71.4707 46.5809ZM67.9788 56.1729C68.9917 57.1112 70.5734 57.0507 71.5117 56.0378C72.45 55.0249 72.3895 53.4432 71.3766 52.5049L67.9788 56.1729ZM61.4205 43.0465C60.4306 42.084 58.8479 42.1061 57.8853 43.096C56.9228 44.0859 56.945 45.6687 57.9349 46.6312L61.4205 43.0465ZM48.1777 49.8388L48.1777 63.981L53.1777 63.981L53.1777 49.8388L48.1777 49.8388ZM53.1777 49.8388L53.1777 35.6967L48.1777 35.6967L48.1777 49.8388L53.1777 49.8388ZM48.9099 33.9289L40.0711 42.7678L43.6066 46.3033L52.4454 37.4645L48.9099 33.9289ZM41.8388 42.0355H38.3033V47.0355H41.8388V42.0355ZM38.3033 57.6421L41.8388 57.6421L41.8388 52.6421L38.3033 52.6421L38.3033 57.6421ZM40.0711 56.9099L48.9099 65.7487L52.4454 62.2132L43.6066 53.3744L40.0711 56.9099ZM35.8033 44.5355V55.1421H40.8033V44.5355H35.8033ZM63.1734 47.9575L58.0313 52.4576L61.3241 56.2202L66.4662 51.7202L63.1734 47.9575ZM66.6129 51.5809L71.4707 46.5809L67.8846 43.0967L63.0267 48.0968L66.6129 51.5809ZM63.1209 51.6729L67.9788 56.1729L71.3766 52.5049L66.5187 48.0048L63.1209 51.6729ZM66.5626 48.0465L61.4205 43.0465L57.9349 46.6312L63.077 51.6312L66.5626 48.0465Z" fill="white"/>
</svg>
