<svg width="100" height="100" viewBox="0 0 100 100" fill="none" xmlns="http://www.w3.org/2000/svg">
<path d="M48.2322 48.2322C47.2559 49.2085 47.2559 50.7915 48.2322 51.7678C49.2085 52.7441 50.7915 52.7441 51.7678 51.7678L48.2322 48.2322ZM60 40H62.5C62.5 38.6193 61.3807 37.5 60 37.5V40ZM40 40V37.5C38.6193 37.5 37.5 38.6193 37.5 40H40ZM40 60H37.5C37.5 61.3807 38.6193 62.5 40 62.5V60ZM60 60V62.5C61.3807 62.5 62.5 61.3807 62.5 60H60ZM42.5 42.5H45V37.5H42.5V42.5ZM62.5 57.5V55H57.5V57.5H62.5ZM52.5 37.5H50V42.5H52.5V37.5ZM57.5 47.5V50H62.5V47.5H57.5ZM51.7678 51.7678L61.7678 41.7678L58.2322 38.2322L48.2322 48.2322L51.7678 51.7678ZM37.5 40V60H42.5V40H37.5ZM40 62.5H60V57.5H40V62.5ZM42.5 37.5H40V42.5H42.5V37.5ZM62.5 60V57.5H57.5V60H62.5ZM60 37.5H52.5V42.5H60V37.5ZM57.5 40V47.5H62.5V40H57.5Z" fill="white"/>
</svg>
