<svg width="22" height="22" viewBox="0 0 22 22" fill="none" xmlns="http://www.w3.org/2000/svg">
<path fill-rule="evenodd" clip-rule="evenodd" d="M0.5 1C0.5 0.723858 0.723858 0.5 1 0.5H4V1.5H1.5V20.5H20.5V18H21.5V21C21.5 21.2761 21.2761 21.5 21 21.5H1C0.723858 21.5 0.5 21.2761 0.5 21V1ZM13 0.5H21C21.2761 0.5 21.5 0.723858 21.5 1V9H20.5V2.20711L11.3536 11.3536C11.1583 11.5488 10.8417 11.5488 10.6464 11.3536C10.4512 11.1583 10.4512 10.8417 10.6464 10.6464L19.7929 1.5H13V0.5Z" fill="white"/>
<path fill-rule="evenodd" clip-rule="evenodd" d="M0.5 1C0.5 0.723858 0.723858 0.5 1 0.5H4V1.5H1.5V20.5H20.5V18H21.5V21C21.5 21.2761 21.2761 21.5 21 21.5H1C0.723858 21.5 0.5 21.2761 0.5 21V1ZM13 0.5H21C21.2761 0.5 21.5 0.723858 21.5 1V9H20.5V2.20711L11.3536 11.3536C11.1583 11.5488 10.8417 11.5488 10.6464 11.3536C10.4512 11.1583 10.4512 10.8417 10.6464 10.6464L19.7929 1.5H13V0.5Z" fill="black"/>
</svg>
