<svg width="100" height="100" viewBox="0 0 100 100" fill="none" xmlns="http://www.w3.org/2000/svg">
<path fill-rule="evenodd" clip-rule="evenodd" d="M39.5 40C39.5 39.7239 39.7239 39.5 40 39.5H43V40.5H40.5V59.5H59.5V57H60.5V60C60.5 60.2761 60.2761 60.5 60 60.5H40C39.7239 60.5 39.5 60.2761 39.5 60V40ZM52 39.5H60C60.2761 39.5 60.5 39.7239 60.5 40V48H59.5V41.2071L50.3536 50.3536C50.1583 50.5488 49.8417 50.5488 49.6464 50.3536C49.4512 50.1583 49.4512 49.8417 49.6464 49.6464L58.7929 40.5H52V39.5Z" fill="white"/>
<path fill-rule="evenodd" clip-rule="evenodd" d="M39.5 40C39.5 39.7239 39.7239 39.5 40 39.5H43V40.5H40.5V59.5H59.5V57H60.5V60C60.5 60.2761 60.2761 60.5 60 60.5H40C39.7239 60.5 39.5 60.2761 39.5 60V40ZM52 39.5H60C60.2761 39.5 60.5 39.7239 60.5 40V48H59.5V41.2071L50.3536 50.3536C50.1583 50.5488 49.8417 50.5488 49.6464 50.3536C49.4512 50.1583 49.4512 49.8417 49.6464 49.6464L58.7929 40.5H52V39.5Z" fill="black"/>
</svg>
