<svg width="1130" height="233" viewBox="0 0 1130 233" fill="none" xmlns="http://www.w3.org/2000/svg">
<path d="M40 133H110C121 133 130 124.046 130 113C130 101.954 121 93 110 93M110 93C121 93 130 84 130 73C130 62 121 53 110 53H40M110 93H40" stroke="white" stroke-width="6"/>
<path d="M170 93L167 93.0001L167 93.0001L170 93ZM250 93L253 93.0001L253 93.0001L250 93ZM247 3V0H253V3H247ZM210 136C186.252 136 167.001 116.748 167 93.0001L173 92.9999C173.001 113.435 189.566 130 210 130V136ZM167 93.0001C166.999 69.251 186.251 49.9963 210 49.9963V55.9963C189.565 55.9963 172.999 72.5642 173 92.9999L167 93.0001ZM210 49.9963C233.749 49.9963 253.001 69.251 253 93.0001L247 92.9999C247.001 72.5642 230.435 55.9963 210 55.9963V49.9963ZM253 93.0001C252.999 116.748 233.748 136 210 136V130C230.434 130 246.999 113.435 247 92.9999L253 93.0001ZM247 93V3H253V93H247Z" fill="white"/>
<path d="M290 130H370V136H290V130Z" fill="white"/>
<path d="M490 93L493 92.9999L493 92.9999L490 93ZM410 93L407 92.9999L407 92.9999L410 93ZM413 183V186H407V183H413ZM450 50C473.748 50 492.999 69.2519 493 92.9999L487 93.0001C486.999 72.5654 470.434 56 450 56V50ZM493 92.9999C493.001 116.749 473.749 136.004 450 136.004V130.004C470.435 130.004 487.001 113.436 487 93.0001L493 92.9999ZM450 136.004C426.251 136.004 406.999 116.749 407 92.9999L413 93.0001C412.999 113.436 429.565 130.004 450 130.004V136.004ZM407 92.9999C407.001 69.2519 426.252 50 450 50V56C429.566 56 413.001 72.5654 413 93.0001L407 92.9999ZM413 93V183H407V93H413Z" fill="white"/>
<path d="M530 133V89.1111M530 54L530 89.1111M570 54C548.5 54 530 69.3611 530 89.1111" stroke="white" stroke-width="6" stroke-linecap="square"/>
<path d="M610 133L610 54" stroke="white" stroke-width="6" stroke-linecap="square"/>
<path d="M730 133V89.1111C730 69.8 712 54 690 54C668 54 650 69.8 650 89.1111V133" stroke="white" stroke-width="6" stroke-linecap="square"/>
<path d="M770 9V53.7286M810 133C787 133 770 116.171 770 97.5714V53.7286M810 53.7286H770" stroke="white" stroke-width="6" stroke-linecap="square"/>
<path d="M850 138V49" stroke="white" stroke-width="6" stroke-linecap="square"/>
<path d="M970 133V89.1111C970 69.8 952 54 930 54C908 54 890 69.8 890 89.1111V133" stroke="white" stroke-width="6" stroke-linecap="square"/>
<path d="M1090 93C1090 70.9086 1072.09 53 1050 53C1027.91 53 1010 70.9086 1010 93C1010 115.092 1027.91 133.004 1050 133.004C1072.09 133.004 1090 115.092 1090 93ZM1090 93V143C1090 165.091 1072.09 183 1050 183C1036.4 183 1024.39 176.214 1017.16 165.844" stroke="white" stroke-width="6"/>
</svg>
