<svg width="705" height="123" viewBox="0 0 705 123" fill="none" xmlns="http://www.w3.org/2000/svg">
<path d="M23.8609 51.176H32.5009C41.6209 51.176 46.1809 46.616 46.1809 37.496V28.568C46.1809 19.352 41.6209 14.744 32.5009 14.744H21.4129C12.2929 14.744 7.73294 19.352 7.73294 28.568V33.752C7.73294 34.808 7.25294 35.336 6.29294 35.336H2.11694C1.06094 35.336 0.532938 34.808 0.532938 33.752V28.424C0.532938 22.184 2.35694 17.288 6.00494 13.736C9.65294 10.184 14.5969 8.408 20.8369 8.408H33.0769C39.3169 8.408 44.2609 10.184 47.9089 13.736C51.5569 17.288 53.3809 22.184 53.3809 28.424V37.64C53.3809 46.472 49.3969 52.04 41.4289 54.344C49.3969 56.552 53.3809 62.168 53.3809 71.192V80.984C53.3809 87.224 51.5569 92.12 47.9089 95.672C44.2609 99.224 39.3169 101 33.0769 101H20.8369C14.5969 101 9.65294 99.224 6.00494 95.672C2.35694 92.12 0.532938 87.224 0.532938 80.984V74.504C0.532938 73.352 1.06094 72.776 2.11694 72.776H6.29294C7.25294 72.776 7.73294 73.352 7.73294 74.504V80.84C7.73294 90.056 12.2929 94.664 21.4129 94.664H32.5009C41.6209 94.664 46.1809 90.056 46.1809 80.84V71.336C46.1809 62.12 41.6209 57.512 32.5009 57.512H23.8609C22.8049 57.512 22.2769 56.984 22.2769 55.928V52.76C22.2769 51.704 22.8049 51.176 23.8609 51.176ZM90.9784 94.52H118.626C123.042 94.52 126.402 93.32 128.706 90.92C131.106 88.424 132.306 84.872 132.306 80.264V29.144C132.306 24.536 131.106 21.032 128.706 18.632C126.402 16.136 123.042 14.888 118.626 14.888H90.9784C90.0184 14.888 89.5384 15.32 89.5384 16.184V93.224C89.5384 94.088 90.0184 94.52 90.9784 94.52ZM82.3384 99.272V10.136C82.3384 8.984 82.8184 8.408 83.7784 8.408H119.346C125.586 8.408 130.482 10.232 134.034 13.88C137.682 17.528 139.506 22.52 139.506 28.856V80.552C139.506 86.888 137.682 91.88 134.034 95.528C130.482 99.176 125.586 101 119.346 101H83.7784C82.8184 101 82.3384 100.424 82.3384 99.272ZM209.295 115.256H159.183C158.031 115.256 157.455 114.728 157.455 113.672V111.512C157.455 110.552 158.031 110.072 159.183 110.072H209.295C210.447 110.072 211.023 110.552 211.023 111.512V113.672C211.023 114.728 210.447 115.256 209.295 115.256ZM234.649 122.456H230.473C229.513 122.456 229.033 121.928 229.033 120.872V29.288C229.033 28.136 229.513 27.56 230.473 27.56H234.649C235.705 27.56 236.233 28.136 236.233 29.288V35.048H236.809C239.497 30.056 244.489 27.56 251.785 27.56H261.577C267.721 27.56 272.569 29.384 276.121 33.032C279.673 36.68 281.449 41.672 281.449 48.008V80.552C281.449 86.888 279.673 91.88 276.121 95.528C272.569 99.176 267.721 101 261.577 101H251.785C244.489 101 239.497 98.504 236.809 93.512H236.233V120.872C236.233 121.928 235.705 122.456 234.649 122.456ZM251.065 94.52H260.569C264.985 94.52 268.345 93.32 270.649 90.92C273.049 88.424 274.249 84.872 274.249 80.264V48.296C274.249 43.688 273.049 40.184 270.649 37.784C268.345 35.288 264.985 34.04 260.569 34.04H251.065C246.457 34.04 242.809 35.288 240.121 37.784C237.529 40.184 236.233 43.64 236.233 48.152V80.408C236.233 84.92 237.529 88.424 240.121 90.92C242.809 93.32 246.457 94.52 251.065 94.52ZM314.411 101H310.235C309.275 101 308.795 100.424 308.795 99.272V29.288C308.795 28.136 309.275 27.56 310.235 27.56H314.411C315.467 27.56 315.995 28.136 315.995 29.288V35.336H316.571C317.627 33.32 319.499 31.544 322.187 30.008C324.875 28.376 328.187 27.56 332.123 27.56H337.739C338.795 27.56 339.323 28.088 339.323 29.144V32.6C339.323 33.656 338.795 34.136 337.739 34.04H330.971C326.267 34.04 322.571 35.48 319.883 38.36C317.291 41.24 315.995 45.128 315.995 50.024V99.272C315.995 100.424 315.467 101 314.411 101ZM361.856 15.464V1.63999C361.856 0.583994 362.336 0.055995 363.296 0.055995H367.616C368.576 0.055995 369.056 0.583994 369.056 1.63999V15.464C369.056 16.616 368.576 17.192 367.616 17.192H363.296C362.336 17.192 361.856 16.616 361.856 15.464ZM361.856 99.272V29.288C361.856 28.136 362.336 27.56 363.296 27.56H367.472C368.528 27.56 369.056 28.136 369.056 29.288V99.272C369.056 100.424 368.576 101 367.616 101H363.296C362.336 101 361.856 100.424 361.856 99.272ZM404.186 101H400.01C399.05 101 398.57 100.424 398.57 99.272V29.288C398.57 28.136 399.05 27.56 400.01 27.56H404.186C405.242 27.56 405.77 28.136 405.77 29.288V35.048H406.346C409.034 30.056 414.026 27.56 421.322 27.56H430.826C436.97 27.56 441.818 29.384 445.37 33.032C448.922 36.68 450.698 41.672 450.698 48.008V99.272C450.698 100.424 450.218 101 449.258 101H445.082C444.026 101 443.498 100.424 443.498 99.272V48.296C443.498 43.784 442.346 40.28 440.042 37.784C437.738 35.288 434.378 34.04 429.962 34.04H420.602C415.994 34.04 412.346 35.288 409.658 37.784C407.066 40.184 405.77 43.64 405.77 48.152V99.272C405.77 100.424 405.242 101 404.186 101ZM481.923 34.04H473.139C472.083 34.04 471.555 33.56 471.555 32.6V29.144C471.555 28.088 472.083 27.56 473.139 27.56H481.923C482.787 27.56 483.219 27.128 483.219 26.264V14.6C483.219 13.448 483.747 12.872 484.803 12.872H488.979C490.035 12.872 490.563 13.448 490.563 14.6V26.264C490.563 27.128 490.995 27.56 491.859 27.56H508.995C510.051 27.56 510.579 28.088 510.579 29.144V32.6C510.579 33.56 510.051 34.04 508.995 34.04H491.859C490.995 34.04 490.563 34.472 490.563 35.336V80.696C490.563 85.112 491.811 88.52 494.307 90.92C496.803 93.32 500.307 94.52 504.819 94.52H510.435C511.491 94.52 512.019 95.048 512.019 96.104V99.416C512.019 100.472 511.491 101 510.435 101H504.243C497.907 101 492.819 99.224 488.979 95.672C485.139 92.12 483.219 87.224 483.219 80.984V35.336C483.219 34.472 482.787 34.04 481.923 34.04ZM536.597 15.464V1.63999C536.597 0.583994 537.077 0.055995 538.037 0.055995H542.357C543.317 0.055995 543.797 0.583994 543.797 1.63999V15.464C543.797 16.616 543.317 17.192 542.357 17.192H538.037C537.077 17.192 536.597 16.616 536.597 15.464ZM536.597 99.272V29.288C536.597 28.136 537.077 27.56 538.037 27.56H542.213C543.269 27.56 543.797 28.136 543.797 29.288V99.272C543.797 100.424 543.317 101 542.357 101H538.037C537.077 101 536.597 100.424 536.597 99.272ZM578.927 101H574.751C573.791 101 573.311 100.424 573.311 99.272V29.288C573.311 28.136 573.791 27.56 574.751 27.56H578.927C579.983 27.56 580.511 28.136 580.511 29.288V35.048H581.087C583.775 30.056 588.767 27.56 596.063 27.56H605.567C611.711 27.56 616.559 29.384 620.111 33.032C623.663 36.68 625.439 41.672 625.439 48.008V99.272C625.439 100.424 624.959 101 623.999 101H619.823C618.767 101 618.239 100.424 618.239 99.272V48.296C618.239 43.784 617.087 40.28 614.783 37.784C612.479 35.288 609.119 34.04 604.703 34.04H595.343C590.735 34.04 587.087 35.288 584.399 37.784C581.807 40.184 580.511 43.64 580.511 48.152V99.272C580.511 100.424 579.983 101 578.927 101ZM682.007 96.824H672.647C666.503 96.824 661.607 95 657.959 91.352C654.407 87.704 652.631 82.76 652.631 76.52V48.008C652.631 41.672 654.407 36.68 657.959 33.032C661.607 29.384 666.551 27.56 672.791 27.56H703.319C704.375 27.56 704.903 28.136 704.903 29.288V100.712C704.903 107.048 703.079 112.04 699.431 115.688C695.783 119.336 690.839 121.16 684.599 121.16H658.391C657.335 121.16 656.807 120.632 656.807 119.576V116.12C656.807 115.16 657.335 114.68 658.391 114.68H684.023C688.439 114.68 691.799 113.432 694.103 110.936C696.407 108.536 697.559 105.032 697.559 100.424V89.336H696.983C694.583 94.328 689.591 96.824 682.007 96.824ZM697.559 76.232V35.336C697.559 34.472 697.127 34.04 696.263 34.04H673.511C669.095 34.04 665.687 35.288 663.287 37.784C660.983 40.184 659.831 43.688 659.831 48.296V76.232C659.831 80.744 660.983 84.248 663.287 86.744C665.687 89.144 669.095 90.344 673.511 90.344H682.727C687.335 90.344 690.935 89.144 693.527 86.744C696.215 84.248 697.559 80.744 697.559 76.232Z" fill="white"/>
</svg>
