<svg width="1027" height="250" viewBox="0 0 1027 250" fill="none" xmlns="http://www.w3.org/2000/svg">
<path d="M70.3103 125L65.3117 125L65.3117 120C65.3117 117.238 67.5498 115 70.3104 115L96.9995 115C99.761 115 102 117.239 102 120C102 122.761 99.761 125 96.9995 125L70.3103 125ZM65.3103 125L65.3103 130L65.3103 150L65.3103 155L60.3115 155L40.3115 155L35.3115 155L35.3115 160C35.3115 179.33 50.9816 195 70.3115 195L96.9995 195C116.329 195 132 179.33 132 160C132 152.567 129.678 145.669 125.725 140C129.678 134.331 132 127.433 132 120C132 100.67 116.329 85 96.9995 85L70.3116 85.0001C50.9817 85.0001 35.3117 100.67 35.3117 120L35.3117 125L40.3117 125L60.3117 125L65.3103 125ZM65.3115 155L70.3103 155L96.9995 155C99.761 155 102 157.239 102 160C102 162.761 99.761 165 96.9995 165L70.3103 165C67.5497 165 65.3115 162.762 65.3115 160L65.3115 155Z" fill="black" stroke="black" stroke-width="10"/>
<mask id="path-2-outside-1_154_670" maskUnits="userSpaceOnUse" x="137" y="30" width="120" height="170" fill="black">
<rect fill="white" x="137" y="30" width="120" height="170"/>
<path fill-rule="evenodd" clip-rule="evenodd" d="M247 140C247 167.614 224.614 190 197 190C169.385 190 147 167.614 147 140C147 112.386 169.385 90 197 90C208.256 90 218.643 93.7194 227 99.9963V40H247V140ZM197 170C213.568 170 227 156.569 227 140C227 123.431 213.568 110 197 110C180.431 110 167 123.431 167 140C167 156.569 180.431 170 197 170Z"/>
</mask>
<path fill-rule="evenodd" clip-rule="evenodd" d="M247 140C247 167.614 224.614 190 197 190C169.385 190 147 167.614 147 140C147 112.386 169.385 90 197 90C208.256 90 218.643 93.7194 227 99.9963V40H247V140ZM197 170C213.568 170 227 156.569 227 140C227 123.431 213.568 110 197 110C180.431 110 167 123.431 167 140C167 156.569 180.431 170 197 170Z" fill="black"/>
<path d="M227 40V30H217V40H227ZM247 40H257V30H247V40ZM227 99.9963L220.994 107.992L237 120.014V99.9963H227ZM237 140C237 162.091 219.091 180 197 180V200C230.137 200 257 173.137 257 140H237ZM197 180C174.908 180 157 162.091 157 140H137C137 173.137 163.862 200 197 200V180ZM157 140C157 117.909 174.908 100 197 100V80C163.862 80 137 106.863 137 140H157ZM217 140C217 151.046 208.045 160 197 160V180C219.091 180 237 162.091 237 140H217ZM197 160C185.954 160 177 151.046 177 140H157C157 162.091 174.908 180 197 180V160ZM177 140C177 128.954 185.954 120 197 120V100C174.908 100 157 117.909 157 140H177ZM197 120C208.045 120 217 128.954 217 140H237C237 117.909 219.091 100 197 100V120ZM227 50H247V30H227V50ZM237 40V140H257V40H237ZM237 99.9963V40H217V99.9963H237ZM197 100C206.016 100 214.309 102.971 220.994 107.992L233.005 92.0007C222.976 84.4677 210.495 80 197 80V100Z" fill="black" mask="url(#path-2-outside-1_154_670)"/>
<path d="M332.312 240V245H327.312H307.312H302.312V240V140C302.312 109.624 326.936 85 357.312 85C387.687 85 412.312 109.624 412.312 140C412.312 170.376 387.687 195 357.312 195C348.314 195 339.814 192.836 332.312 189.002V240ZM357.312 115C343.504 115 332.312 126.193 332.312 140C332.312 153.807 343.504 165 357.312 165C371.119 165 382.312 153.807 382.312 140C382.312 126.193 371.119 115 357.312 115Z" fill="black" stroke="black" stroke-width="10"/>
<path d="M482 90V85H477C469.777 85 462.625 86.4226 455.952 89.1866C454.609 89.743 453.291 90.3514 452 91.0102V90V85H447H427H422V90V190V195H427H447H452V190V140C452 136.717 452.646 133.466 453.903 130.433C455.159 127.4 457 124.644 459.322 122.322C461.643 120.001 464.399 118.159 467.433 116.903C470.466 115.647 473.717 115 477 115H482V110L482 90Z" fill="black" stroke="black" stroke-width="10"/>
<rect x="5" y="-5" width="30" height="110" transform="matrix(-1 0 0 1 527 90)" fill="black" stroke="black" stroke-width="10"/>
<path d="M532 190V195H537H557H562V190V140C562 126.193 573.193 115 587 115C600.807 115 612 126.193 612 140V190V195H617H637H642V190V140C642 109.624 617.375 85 587 85C556.624 85 532 109.624 532 140V190Z" fill="black" stroke="black" stroke-width="10"/>
<path d="M707 195H712V190L712 170V165H707C703.717 165 700.466 164.353 697.433 163.097C694.399 161.841 691.643 159.999 689.322 157.678C687 155.356 685.159 152.6 683.903 149.567C682.646 146.534 682 143.283 682 140V115H707H712V110V90V85H707H682V40V35H677H657H652V40V140C652 147.223 653.422 154.375 656.186 161.048C658.95 167.72 663.002 173.784 668.109 178.891C673.216 183.998 679.279 188.049 685.952 190.813C692.625 193.577 699.777 195 707 195Z" fill="black" stroke="black" stroke-width="10"/>
<rect x="5" y="-5" width="30" height="110" transform="matrix(-1 0 0 1 757 90)" fill="black" stroke="black" stroke-width="10"/>
<path d="M762 190V195H767H787H792V190V140C792 126.193 803.193 115 817 115C830.807 115 842 126.193 842 140V190V195H847H867H872V190V140C872 109.624 847.375 85 817 85C786.624 85 762 109.624 762 140V190Z" fill="black" stroke="black" stroke-width="10"/>
<path d="M898.421 221.82L894.885 225.355L898.421 228.891C906.113 236.583 915.913 241.821 926.582 243.943C937.251 246.065 948.309 244.976 958.359 240.813C968.409 236.651 976.999 229.601 983.042 220.556C989.086 211.512 992.312 200.878 992.312 190V140C992.312 109.624 967.687 85 937.312 85C906.936 85 882.312 109.624 882.312 140C882.312 170.376 906.936 195 937.312 195C946.309 195 954.809 192.836 962.312 189.002V190C962.312 194.945 960.845 199.778 958.098 203.889C955.351 208 951.447 211.205 946.879 213.097C942.31 214.989 937.284 215.484 932.434 214.52C927.585 213.555 923.13 211.174 919.634 207.678L916.098 204.142L912.563 207.678L898.421 221.82ZM937.312 115C951.119 115 962.312 126.193 962.312 140C962.312 153.807 951.119 165 937.312 165C923.504 165 912.312 153.807 912.312 140C912.312 126.193 923.504 115 937.312 115Z" fill="black" stroke="black" stroke-width="10"/>
</svg>
