<svg width="948" height="200" viewBox="0 0 948 200" fill="none" xmlns="http://www.w3.org/2000/svg">
<path d="M56.9995 150C73.5681 150 86.9996 136.569 86.9996 120C86.9996 112.316 84.1111 105.308 79.3607 100C84.1111 94.6925 86.9996 87.6836 86.9996 80C86.9996 63.4315 73.5681 50 56.9995 50L30.3117 50.0001C13.7431 50.0001 0.311663 63.4315 0.311662 80.0001L20.3117 80.0001C20.3117 74.4772 24.7876 70 30.3104 70L56.9995 70C62.5224 70 66.9996 74.4772 66.9996 80C66.9996 85.5229 62.5224 90 56.9995 90L30.3103 90L30.3103 110L56.9995 110C62.5224 110 66.9996 114.477 66.9996 120C66.9996 125.523 62.5224 130 56.9995 130L30.3103 130C24.7874 130 20.3115 125.523 20.3115 120L0.311522 120C0.311523 136.568 13.743 150 30.3115 150L56.9995 150Z" fill="#101010"/>
<path fill-rule="evenodd" clip-rule="evenodd" d="M207 100C207 127.614 184.614 150 157 150C129.385 150 107 127.614 107 100C107 72.3858 129.385 50 157 50C168.256 50 178.643 53.7194 187 59.9963V0H207V100ZM157 130C173.568 130 187 116.569 187 100C187 83.4315 173.568 70 157 70C140.431 70 127 83.4315 127 100C127 116.569 140.431 130 157 130Z" fill="#101010"/>
<path fill-rule="evenodd" clip-rule="evenodd" d="M267.312 100C267.312 72.3858 289.697 50 317.312 50C344.926 50 367.312 72.3858 367.312 100C367.312 127.614 344.926 150 317.312 150C306.055 150 295.668 146.281 287.312 140.004V200H267.312V100ZM317.312 70C300.743 70 287.312 83.4315 287.312 100C287.312 116.569 300.743 130 317.312 130C333.88 130 347.312 116.569 347.312 100C347.312 83.4315 333.88 70 317.312 70Z" fill="#101010"/>
<path d="M417.865 53.806C423.932 51.2933 430.433 50 437 50L437 70C433.06 70 429.159 70.776 425.519 72.2836C421.879 73.7913 418.572 76.001 415.786 78.7868C413.001 81.5726 410.791 84.8797 409.283 88.5195C407.775 92.1593 407 96.0603 407 100V150H387V50H407V60C410.341 57.4943 413.99 55.4113 417.865 53.806Z" fill="#101010"/>
<rect width="20" height="100" transform="matrix(-1 0 0 1 477 50)" fill="#101010"/>
<path d="M597 100C597 72.3858 574.614 50 547 50C519.385 50 497 72.3858 497 100V150H517V100C517 83.4315 530.431 70 547 70C563.568 70 577 83.4315 577 100V150H597V100Z" fill="#101010"/>
<path d="M617 100C617 106.566 618.293 113.068 620.806 119.134C623.318 125.2 627.001 130.712 631.644 135.355C636.287 139.998 641.799 143.681 647.865 146.194C653.932 148.707 660.433 150 667 150L667 130C663.06 130 659.159 129.224 655.519 127.716C651.879 126.209 648.572 123.999 645.786 121.213C643.001 118.427 640.791 115.12 639.283 111.48C637.775 107.841 637 103.94 637 100V70H667V50H637V0H617V100Z" fill="#101010"/>
<rect width="20" height="100" transform="matrix(-1 0 0 1 707 50)" fill="#101010"/>
<path d="M827 100C827 72.3858 804.614 50 777 50C749.385 50 727 72.3858 727 100V150H747V100C747 83.4315 760.431 70 777 70C793.568 70 807 83.4315 807 100V150H827V100Z" fill="#101010"/>
<path fill-rule="evenodd" clip-rule="evenodd" d="M947.312 150C947.312 159.889 944.379 169.556 938.885 177.779C933.391 186.001 925.582 192.41 916.446 196.194C907.309 199.978 897.256 200.969 887.557 199.039C877.858 197.11 868.949 192.348 861.956 185.355L876.098 171.213C880.294 175.409 885.639 178.266 891.459 179.424C897.278 180.581 903.31 179.987 908.792 177.716C914.274 175.446 918.959 171.601 922.256 166.667C925.552 161.734 927.312 155.933 927.312 150V140.004C918.955 146.281 908.568 150 897.312 150C869.697 150 847.312 127.614 847.312 100C847.312 72.3858 869.697 50 897.312 50C924.926 50 947.312 72.3858 947.312 100V150ZM897.312 70C913.88 70 927.312 83.4315 927.312 100C927.312 116.569 913.88 130 897.312 130C880.743 130 867.312 116.569 867.312 100C867.312 83.4315 880.743 70 897.312 70Z" fill="#101010"/>
</svg>
