<svg width="50" height="50" viewBox="0 0 50 50" fill="none" xmlns="http://www.w3.org/2000/svg">
<g clip-path="url(#clip0_407_268)">
<path fill-rule="evenodd" clip-rule="evenodd" d="M50.0208 25.0104C50.0208 38.8233 38.8233 50.0208 25.0104 50.0208C11.1975 50.0208 0 38.8233 0 25.0104C0 11.1975 11.1975 0 25.0104 0C38.8233 0 50.0208 11.1975 50.0208 25.0104ZM25.8851 18.4506C23.4486 19.4711 18.5965 21.5743 11.3078 24.7397C10.1416 25.2187 9.51691 25.6768 9.45443 26.1349C9.36221 26.9096 10.3319 27.2105 11.6399 27.6165C11.8087 27.6688 11.9831 27.723 12.1616 27.7801C13.4528 28.1966 15.1604 28.6755 16.0558 28.6964C16.868 28.7172 17.7635 28.384 18.7631 27.6968C25.5727 23.0945 29.0713 20.7622 29.3003 20.7205C29.4669 20.6789 29.6752 20.6372 29.8209 20.7622C29.9667 20.8871 29.9667 21.137 29.9459 21.1995C29.8465 21.6135 25.7841 25.3849 23.9354 27.1011C23.4591 27.5433 23.1297 27.8491 23.0529 27.9259C22.8576 28.1269 22.6587 28.3173 22.4675 28.5003C21.2722 29.6445 20.3751 30.5031 22.5115 31.9034C23.4827 32.5445 24.266 33.079 25.0374 33.6053C25.9697 34.2414 26.8846 34.8655 28.0925 35.6518C28.3771 35.8387 28.6495 36.0325 28.9153 36.2216C29.9527 36.9596 30.8888 37.6255 32.0492 37.526C32.7156 37.4636 33.4028 36.8388 33.7568 34.9646C34.5898 30.5498 36.2141 20.9496 36.589 16.9929C36.6306 16.6597 36.589 16.2224 36.5473 16.0142C36.5057 15.8059 36.4432 15.5352 36.1933 15.3269C35.8809 15.0771 35.4228 15.0354 35.2145 15.0354C34.2774 15.0562 32.8197 15.556 25.8851 18.4506Z" fill="white"/>
</g>
<defs>
<clipPath id="clip0_407_268">
<rect width="50" height="50" fill="white"/>
</clipPath>
</defs>
</svg>
