<svg width="50" height="51" viewBox="0 0 50 51" fill="none" xmlns="http://www.w3.org/2000/svg">
<g clip-path="url(#clip0_288_463)">
<path d="M25.0104 50.2708C38.8233 50.2708 50.0208 39.0733 50.0208 25.2604C50.0208 11.4475 38.8233 0.25 25.0104 0.25C11.1975 0.25 0 11.4475 0 25.2604C0 39.0733 11.1975 50.2708 25.0104 50.2708Z" fill="url(#paint0_linear_288_463)"/>
<path fill-rule="evenodd" clip-rule="evenodd" d="M11.3078 24.9897C18.5964 21.8243 23.4486 19.7211 25.8851 18.7006C32.8197 15.806 34.2774 15.3062 35.2145 15.2854C35.4227 15.2854 35.8809 15.3271 36.1933 15.5769C36.4432 15.7852 36.5056 16.0559 36.5473 16.2642C36.5889 16.4724 36.6306 16.9097 36.5889 17.2429C36.2141 21.1996 34.5898 30.7998 33.7568 35.2146C33.4028 37.0888 32.7155 37.7136 32.0492 37.776C30.5914 37.901 29.4877 36.8181 28.0925 35.9018C25.8851 34.4649 24.6564 33.5694 22.5115 32.1534C20.0333 30.529 21.6368 29.6336 23.0529 28.1759C23.4277 27.801 29.8209 21.9701 29.9459 21.4495C29.9667 21.387 29.9667 21.1371 29.8209 21.0122C29.6751 20.8872 29.4669 20.9289 29.3003 20.9705C29.0712 21.0122 25.5727 23.3445 18.763 27.9468C17.7634 28.634 16.868 28.9672 16.0558 28.9464C15.1604 28.9255 13.4527 28.4466 12.1616 28.0301C10.5998 27.5303 9.35028 27.2596 9.4544 26.3849C9.51688 25.9268 10.1416 25.4687 11.3078 24.9897Z" fill="white"/>
</g>
<defs>
<linearGradient id="paint0_linear_288_463" x1="24.9896" y1="0.25" x2="24.9896" y2="49.8752" gradientUnits="userSpaceOnUse">
<stop stop-color="#2AABEE"/>
<stop offset="1" stop-color="#229ED9"/>
</linearGradient>
<clipPath id="clip0_288_463">
<rect width="50" height="50" fill="white" transform="translate(0 0.25)"/>
</clipPath>
</defs>
</svg>
