<svg width="47" height="50" viewBox="0 0 47 50" fill="none" xmlns="http://www.w3.org/2000/svg">
<path d="M24.6878 0.0421897C27.6379 0 30.571 0.0250013 33.5008 0C33.6783 3.18923 34.9192 6.43784 37.4449 8.69265C39.9655 11.0037 43.5309 12.0615 47 12.4194V20.809C43.749 20.7105 40.4829 20.0855 37.5328 18.7916C36.2479 18.2541 35.0511 17.5619 33.8795 16.8541C33.8643 22.9419 33.9065 29.0219 33.8372 35.0847C33.6614 37.9974 32.6216 40.896 30.7891 43.2961C27.8408 47.2916 22.7234 49.8964 17.4674 49.9777C14.2435 50.148 11.023 49.3355 8.27578 47.8385C3.72307 45.3571 0.519443 40.8147 0.0528457 35.9394C-0.00125253 34.8972 -0.0198488 33.8566 0.0257965 32.8393C0.431534 28.875 2.5532 25.0826 5.84644 22.5028C9.57921 19.4979 14.8082 18.0666 19.704 18.9135C19.7496 21.9997 19.6162 25.0826 19.6162 28.1688C17.3795 27.4999 14.7659 27.6875 12.8116 28.9422C11.3847 29.7969 10.3011 31.1064 9.73644 32.5877C9.26983 33.644 9.4034 34.8175 9.43044 35.9394C9.96635 39.3584 13.5233 42.232 17.3203 41.921C19.8376 41.8961 22.25 40.546 23.5619 38.5692C23.9862 37.8771 24.4613 37.1692 24.4866 36.355C24.7081 32.6283 24.6202 28.9171 24.6473 25.1904C24.6658 16.7915 24.6202 8.41608 24.6896 0.0437524L24.6878 0.0421897Z" fill="white"/>
</svg>
