<svg width="100" height="100" viewBox="0 0 100 100" fill="none" xmlns="http://www.w3.org/2000/svg">
<path d="M49.9296 40.0169C50.9967 40 52.0576 40.01 53.1173 40C53.1815 41.2757 53.6303 42.5751 54.5439 43.4771C55.4556 44.4015 56.7452 44.8246 58 44.9678V48.3236C56.8241 48.2842 55.6427 48.0342 54.5757 47.5167C54.111 47.3016 53.678 47.0247 53.2543 46.7416C53.2488 49.1767 53.2641 51.6087 53.239 54.0339C53.1754 55.1989 52.7993 56.3584 52.1365 57.3184C51.0701 58.9166 49.2191 59.9586 47.318 59.9911C46.1519 60.0592 44.987 59.7342 43.9934 59.1354C42.3466 58.1428 41.1879 56.3259 41.0191 54.3758C40.9995 53.9589 40.9928 53.5426 41.0093 53.1357C41.1561 51.55 41.9235 50.033 43.1147 49.0011C44.4648 47.7992 46.3561 47.2266 48.127 47.5654C48.1435 48.7998 48.0952 50.033 48.0952 51.2675C47.2862 51 46.3409 51.075 45.634 51.5769C45.1179 51.9188 44.7259 52.4425 44.5217 53.0351C44.3529 53.4576 44.4012 53.927 44.411 54.3758C44.6049 55.7433 45.8914 56.8928 47.2648 56.7684C48.1753 56.7584 49.0479 56.2184 49.5224 55.4277C49.6759 55.1508 49.8477 54.8677 49.8569 54.542C49.937 53.0513 49.9052 51.5669 49.915 50.0762C49.9217 46.7166 49.9052 43.3664 49.9303 40.0175L49.9296 40.0169Z" fill="white"/>
</svg>
