<svg width="1038" height="249" viewBox="0 0 1038 249" fill="none" xmlns="http://www.w3.org/2000/svg">
<path fill-rule="evenodd" clip-rule="evenodd" d="M29 184C19.6156 184 12 176.348 12 167V104H6V167C6 179.652 16.293 190 29 190C37.5743 190 45.0494 185.289 49.0048 178.337C52.9711 185.29 60.4587 190 69 190C81.6569 190 92 179.657 92 167V104H86V167C86 176.343 78.3431 184 69 184C59.6569 184 52 176.343 52 167V104H46V167C46 176.348 38.3844 184 29 184Z" fill="white"/>
<path fill-rule="evenodd" clip-rule="evenodd" d="M132.12 150H212V147C212 123.252 192.748 104 169 104C145.252 104 126 123.252 126 147C126 170.748 145.252 190 169 190C182.581 190 194.692 183.701 202.568 173.876L197.886 170.124C191.1 178.588 180.683 184 169 184C149.575 184 133.647 169.032 132.12 150ZM169 110C149.575 110 133.647 124.968 132.12 144H205.88C204.353 124.968 188.425 110 169 110Z" fill="white"/>
<path fill-rule="evenodd" clip-rule="evenodd" d="M252 54V125.075C259.493 112.455 273.258 103.996 289 103.996C312.749 103.996 332.001 123.251 332 147C331.999 170.748 312.748 190 289 190C265.252 190 246.001 170.748 246 147C246 147 246 147 246 147C246 146.999 246 146.997 246 146.996V54H252ZM252 147C252.001 167.435 268.566 184 289 184C309.434 184 325.999 167.435 326 147C326.001 126.564 309.435 109.996 289 109.996C268.566 109.996 252.001 126.562 252 146.996C252 146.998 252 146.999 252 147C252 147 252 147 252 147Z" fill="white"/>
<path fill-rule="evenodd" clip-rule="evenodd" d="M486 54V125.075C478.507 112.455 464.742 103.996 449 103.996C425.251 103.996 405.999 123.251 406 147C406.001 170.748 425.252 190 449 190C472.748 190 491.999 170.748 492 147C492 147 492 147 492 147C492 146.999 492 146.997 492 146.996V54H486ZM486 147C485.999 167.435 469.434 184 449 184C428.566 184 412.001 167.435 412 147C411.999 126.564 428.565 109.996 449 109.996C469.434 109.996 485.999 126.562 486 146.996C486 146.998 486 146.999 486 147C486 147 486 147 486 147Z" fill="white"/>
<path fill-rule="evenodd" clip-rule="evenodd" d="M532.12 150H612V147C612 123.252 592.748 104 569 104C545.252 104 526 123.252 526 147C526 170.748 545.252 190 569 190C582.581 190 594.692 183.701 602.568 173.876L597.886 170.124C591.1 178.588 580.683 184 569 184C549.575 184 533.647 169.032 532.12 150ZM569 110C549.575 110 533.647 124.968 532.12 144H605.88C604.353 124.968 588.425 110 569 110Z" fill="white"/>
<path fill-rule="evenodd" clip-rule="evenodd" d="M679 110C669.652 110 662 117.616 662 127C662 136.384 669.652 144 679 144H719C731.652 144 742 154.293 742 167C742 179.707 731.652 190 719 190H658.5V184H719C728.348 184 736 176.384 736 167C736 157.616 728.348 150 719 150H679C666.348 150 656 139.707 656 127C656 114.293 666.348 104 679 104H742V110H679Z" fill="white"/>
<path fill-rule="evenodd" clip-rule="evenodd" d="M792 104V190H786V104H792Z" fill="white"/>
<path fill-rule="evenodd" clip-rule="evenodd" d="M826 147C826.001 123.252 845.252 104 869 104C892.748 104 911.999 123.252 912 147C912 147 912 147 912 147C912 147.001 912 147.003 912 147.004V197C912 220.748 892.748 240 869 240C854.379 240 841.463 232.7 833.699 221.559L838.621 218.128C845.312 227.728 856.424 234 869 234C889.435 234 906 217.435 906 197V168.925C898.507 181.545 884.742 190.004 869 190.004C845.251 190.004 825.999 170.749 826 147ZM906 147.004C906 147.002 906 147.001 906 147C905.999 126.565 889.434 110 869 110C848.566 110 832.001 126.565 832 147C831.999 167.436 848.565 184.004 869 184.004C889.434 184.004 905.999 167.438 906 147.004Z" fill="white"/>
<path fill-rule="evenodd" clip-rule="evenodd" d="M989 110C968.657 110 952 126.657 952 147V190H946V147C946 123.343 965.343 104 989 104C1012.66 104 1032 123.343 1032 147V190H1026V147C1026 126.657 1009.34 110 989 110Z" fill="white"/>
</svg>
