<svg width="180" height="40" viewBox="0 0 180 40" fill="none" xmlns="http://www.w3.org/2000/svg">
<g clip-path="url(#clip0_34_188)">
<path d="M5.88684 25.99C4.57516 25.99 3.51184 24.9267 3.51184 23.615L3.5105 10H0.010498L0.0118408 23.9865H0.0131445C0.012277 24.028 0.0118408 24.0697 0.0118408 24.1115C0.0118408 27.3561 2.64217 29.9865 5.88684 29.9865C7.49435 29.9865 8.95107 29.3408 10.0118 28.2948C11.0726 29.3408 12.5293 29.9865 14.1368 29.9865C17.3815 29.9865 20.0118 27.3561 20.0118 24.1115C20.0118 24.0697 20.0114 24.028 20.0105 23.9865H20.0118L20.0105 10H16.5105L16.5118 23.615C16.5118 24.9267 15.4485 25.99 14.1368 25.99C12.8252 25.99 11.7618 24.9267 11.7618 23.615V20.365V20.0135L11.7606 10H8.26063L8.26184 20.0135V20.365V23.615C8.26184 24.9267 7.19852 25.99 5.88684 25.99Z" fill="white"/>
<path d="M8.26184 23.615C8.26184 24.9267 7.19852 25.99 5.88684 25.99C4.57516 25.99 3.51184 24.9267 3.51184 23.615L3.5105 10H0.010498L0.0118408 23.9865H0.0131445C0.012277 24.028 0.0118408 24.0697 0.0118408 24.1115C0.0118408 27.3561 2.64217 29.9865 5.88684 29.9865C7.49435 29.9865 8.95107 29.3408 10.0118 28.2948C11.0726 29.3408 12.5293 29.9865 14.1368 29.9865C17.3815 29.9865 20.0118 27.3561 20.0118 24.1115C20.0118 24.0697 20.0114 24.028 20.0105 23.9865H20.0118L20.0105 10H16.5105L16.5118 23.615C16.5118 24.9267 15.4485 25.99 14.1368 25.99C12.8252 25.99 11.7618 24.9267 11.7618 23.615M8.26184 23.615V20.0135M8.26184 23.615V20.365M8.26184 20.0135H8.26307M8.26184 20.0135L8.26063 10H11.7606L11.7618 20.0135M8.26184 20.0135V20.365M11.7618 20.365V23.99H11.7606C11.7614 24.0304 11.7618 24.0709 11.7618 24.1115M11.7618 20.365V23.615M11.7618 20.365V20.0135M11.7618 23.615V20.0135M8.26184 20.365V23.99H8.26307C8.26225 24.0304 8.26184 24.0709 8.26184 24.1115" stroke="black" stroke-width="2" stroke-linecap="round" stroke-linejoin="round"/>
<path fill-rule="evenodd" clip-rule="evenodd" d="M42 20C42 20.5858 41.9482 21.1716 41.8447 21.75H25.7311C26.0188 22.7651 26.5622 23.7229 27.3612 24.5219L27.4781 24.6388C28.7268 25.8875 30.3634 26.5118 32 26.5118C33.3433 26.5118 34.6866 26.0912 35.8154 25.25H40.4928C40.1051 25.8673 39.6426 26.4511 39.1053 26.9884L38.9884 27.1053C37.0586 29.0351 34.5293 30 32 30C29.4707 30 26.9414 29.0351 25.0116 27.1053L24.8947 26.9884C22.9649 25.0586 22 22.5293 22 20C22 17.4707 22.9649 14.9414 24.8947 13.0116L25.0116 12.8947C26.9414 10.9649 29.4707 10 32 10C34.5293 10 37.0586 10.9649 38.9884 12.8947L39.1053 13.0116C41.0351 14.9414 42 17.4707 42 20ZM32 13.4882C33.6366 13.4882 35.2732 14.1125 36.5219 15.3612L36.6388 15.4781C37.4378 16.2771 37.9812 17.2349 38.2689 18.25H25.7311C26.0188 17.2349 26.5622 16.2771 27.3612 15.4781L27.4781 15.3612C28.7268 14.1125 30.3634 13.4882 32 13.4882Z" fill="white" stroke="black" stroke-width="2" stroke-linecap="round"/>
<path fill-rule="evenodd" clip-rule="evenodd" d="M61.1053 13.0116L60.9884 12.8947C59.0586 10.9649 56.5293 10 54 10C51.674 10 49.3479 10.816 47.4882 12.4481L47.4882 0H44L44 20C44 22.5293 44.9649 25.0586 46.8947 26.9884L47.0116 27.1053C48.9414 29.0351 51.4707 30 54 30C56.5293 30 59.0586 29.0351 60.9884 27.1053L61.1053 26.9884C63.0351 25.0586 64 22.5293 64 20C64 17.4707 63.0351 14.9414 61.1053 13.0116ZM49.4781 15.3612L49.3612 15.4781C48.1125 16.7268 47.4882 18.3634 47.4882 20C47.4882 21.6366 48.1125 23.2732 49.3612 24.5219L49.4781 24.6388C50.7268 25.8875 52.3634 26.5118 54 26.5118C55.6366 26.5118 57.2732 25.8875 58.5219 24.6388L58.6388 24.5219C59.8875 23.2732 60.5118 21.6366 60.5118 20C60.5118 18.3634 59.8875 16.7268 58.6388 15.4781L58.5219 15.3612C57.2732 14.1125 55.6366 13.4882 54 13.4882C52.3634 13.4882 50.7268 14.1125 49.4781 15.3612Z" fill="white" stroke="black" stroke-width="2" stroke-linecap="round"/>
<path fill-rule="evenodd" clip-rule="evenodd" d="M74.3829 13.0116L74.4997 12.8947C76.4295 10.9649 78.9588 10 81.4882 10C83.8142 10 86.1402 10.816 88 12.4481L88 0H91.4882L91.4882 20C91.4882 22.5293 90.5232 25.0586 88.5935 26.9884L88.4766 27.1053C86.5468 29.0351 84.0175 30 81.4882 30C78.9588 30 76.4295 29.0351 74.4997 27.1053L74.3829 26.9884C72.4531 25.0586 71.4882 22.5293 71.4882 20C71.4882 17.4707 72.4531 14.9414 74.3829 13.0116ZM86.0101 15.3612L86.1269 15.4781C87.3757 16.7268 88 18.3634 88 20C88 21.6366 87.3756 23.2732 86.1269 24.5219L86.0101 24.6388C84.7614 25.8875 83.1248 26.5118 81.4882 26.5118C79.8515 26.5118 78.2149 25.8875 76.9662 24.6388L76.8494 24.5219C75.6007 23.2732 74.9763 21.6366 74.9763 20C74.9763 18.3634 75.6007 16.7268 76.8494 15.4781L76.9662 15.3612C78.2149 14.1125 79.8515 13.4882 81.4882 13.4882C83.1248 13.4882 84.7614 14.1125 86.0101 15.3612Z" fill="white" stroke="black" stroke-width="2" stroke-linecap="round"/>
<path fill-rule="evenodd" clip-rule="evenodd" d="M113.488 20C113.488 20.5858 113.436 21.1716 113.333 21.75H97.2192C97.507 22.7651 98.0504 23.7229 98.8494 24.5219L98.9662 24.6388C100.215 25.8875 101.852 26.5118 103.488 26.5118C104.831 26.5118 106.175 26.0912 107.304 25.25H111.981C111.593 25.8673 111.131 26.4511 110.593 26.9884L110.477 27.1053C108.547 29.0351 106.017 30 103.488 30C100.959 30 98.4295 29.0351 96.4997 27.1053L96.3829 26.9884C94.4531 25.0586 93.4882 22.5293 93.4882 20C93.4882 17.4707 94.4531 14.9414 96.3829 13.0116L96.4997 12.8947C98.4295 10.9649 100.959 10 103.488 10C106.017 10 108.547 10.9649 110.477 12.8947L110.593 13.0116C112.523 14.9414 113.488 17.4707 113.488 20ZM103.488 13.4882C105.125 13.4882 106.761 14.1125 108.01 15.3612L108.127 15.4781C108.926 16.2771 109.469 17.2349 109.757 18.25H97.2192C97.507 17.2349 98.0503 16.2771 98.8494 15.4781L98.9662 15.3612C100.215 14.1125 101.852 13.4882 103.488 13.4882Z" fill="white" stroke="black" stroke-width="2" stroke-linecap="round"/>
<path d="M131.024 13.5H121.395C120.083 13.5 119.02 14.5633 119.02 15.875C119.02 17.1867 120.083 18.25 121.395 18.25H124.996V18.2512C128.185 18.3159 130.75 20.9209 130.75 24.125C130.75 27.3279 128.187 29.9322 125 29.9987V30H115V26.5H124.645C125.957 26.5 127.02 25.4367 127.02 24.125C127.02 22.8133 125.957 21.75 124.645 21.75H121.02V21.7488C120.98 21.7496 120.939 21.75 120.899 21.75C117.654 21.75 115.024 19.1197 115.024 15.875C115.024 12.6303 117.654 10 120.899 10C120.94 10 120.982 10.0004 121.024 10.0013V10H131.024V13.5Z" fill="white" stroke="black" stroke-width="2" stroke-linecap="round"/>
<path d="M136.488 10V30H133V10H136.488Z" fill="white" stroke="black" stroke-width="2" stroke-linecap="round" stroke-linejoin="round"/>
<path fill-rule="evenodd" clip-rule="evenodd" d="M154.512 30C154.512 31.6366 153.887 33.2733 152.639 34.5219L152.522 34.6388C151.273 35.8875 149.637 36.5118 148 36.5118V40C150.529 40 153.059 39.0351 154.988 37.1053L155.105 36.9885C157.035 35.0587 158 32.5294 158 30L158 20C158 17.4707 157.035 14.9414 155.105 13.0116L154.988 12.8947C153.059 10.9649 150.529 10 148 10C145.471 10 142.941 10.9649 141.012 12.8947L140.895 13.0116C138.965 14.9414 138 17.4707 138 20C138 22.5293 138.965 25.0586 140.895 26.9884L141.012 27.1053C142.941 29.0351 145.471 30 148 30C150.326 30 152.652 29.184 154.512 27.5519V30ZM148 13.4882C146.363 13.4882 144.727 14.1125 143.478 15.3612L143.361 15.4781C142.113 16.7268 141.488 18.3634 141.488 20C141.488 21.6366 142.113 23.2732 143.361 24.5219L143.478 24.6388C144.727 25.8875 146.363 26.5118 148 26.5118C149.637 26.5118 151.273 25.8875 152.522 24.6388L152.639 24.5219C153.887 23.2732 154.512 21.6366 154.512 20C154.512 18.3634 153.887 16.7268 152.639 15.4781L152.522 15.3612C151.273 14.1125 149.637 13.4882 148 13.4882Z" fill="white"/>
<path d="M154.492 29.5C154.505 29.6664 154.512 29.8332 154.512 30M154.512 30C154.512 31.6366 153.887 33.2733 152.639 34.5219L152.522 34.6388C151.273 35.8875 149.637 36.5118 148 36.5118V40C150.529 40 153.059 39.0351 154.988 37.1053L155.105 36.9885C157.035 35.0587 158 32.5294 158 30L158 20C158 17.4707 157.035 14.9414 155.105 13.0116L154.988 12.8947C153.059 10.9649 150.529 10 148 10C145.471 10 142.941 10.9649 141.012 12.8947L140.895 13.0116C138.965 14.9414 138 17.4707 138 20C138 22.5293 138.965 25.0586 140.895 26.9884L141.012 27.1053C142.941 29.0351 145.471 30 148 30C150.326 30 152.652 29.184 154.512 27.5519V30ZM143.478 15.3612C144.727 14.1125 146.363 13.4882 148 13.4882C149.637 13.4882 151.273 14.1125 152.522 15.3612L152.639 15.4781C153.887 16.7268 154.512 18.3634 154.512 20C154.512 21.6366 153.887 23.2732 152.639 24.5219L152.522 24.6388C151.273 25.8875 149.637 26.5118 148 26.5118C146.363 26.5118 144.727 25.8875 143.478 24.6388L143.361 24.5219C142.113 23.2732 141.488 21.6366 141.488 20C141.488 18.3634 142.113 16.7268 143.361 15.4781L143.478 15.3612Z" stroke="black" stroke-width="2" stroke-linecap="round"/>
<path d="M165.361 15.4781L165.478 15.3612C166.727 14.1125 168.363 13.4882 170 13.4882C171.637 13.4882 173.273 14.1125 174.522 15.3612L174.639 15.4781C175.887 16.7268 176.512 18.3634 176.512 20L176.5 30H180V20C180 17.4707 179.035 14.9414 177.105 13.0116L176.988 12.8947C175.059 10.9649 172.529 10 170 10C167.679 10 165.358 10.8126 163.5 12.4377V10H160V30H163.5L163.488 20C163.488 18.3634 164.113 16.7268 165.361 15.4781Z" fill="white" stroke="black" stroke-width="2" stroke-linecap="round" stroke-linejoin="round"/>
</g>
<defs>
<clipPath id="clip0_34_188">
<rect width="180" height="40" fill="white"/>
</clipPath>
</defs>
</svg>
