<svg width="1021" height="200" viewBox="0 0 1021 200" fill="none" xmlns="http://www.w3.org/2000/svg">
<path d="M30.6555 150C14.0869 150 0.655457 136.569 0.655457 120V50H20.6555V120C20.6555 125.523 25.1326 130 30.6555 130C36.1783 130 40.6555 125.523 40.6555 120V50H60.6555V120C60.6555 125.523 65.1326 130 70.6555 130C76.1783 130 80.6555 125.523 80.6555 120V50H100.655V120C100.655 136.569 87.224 150 70.6555 150C62.9719 150 55.963 147.111 50.6555 142.361C45.3479 147.111 38.339 150 30.6555 150Z" fill="black"/>
<path fill-rule="evenodd" clip-rule="evenodd" d="M170.655 150C143.041 150 120.655 127.614 120.655 100C120.655 72.3858 143.041 50 170.655 50C198.27 50 220.655 72.3858 220.655 100C220.655 103.425 220.311 106.769 219.655 110H142.363C146.481 121.652 157.593 130 170.655 130C176.789 130 182.493 128.159 187.244 125H213.966C205.321 139.945 189.163 150 170.655 150ZM170.655 70C157.593 70 146.481 78.3481 142.363 90H198.948C194.83 78.3481 183.718 70 170.655 70Z" fill="black"/>
<path fill-rule="evenodd" clip-rule="evenodd" d="M240.655 100C240.655 127.614 263.041 150 290.655 150C318.27 150 340.655 127.614 340.655 100C340.655 72.3858 318.27 50 290.655 50C279.399 50 269.012 53.7194 260.655 59.9963V0H240.655V100ZM290.655 130C274.087 130 260.655 116.569 260.655 100C260.655 83.4315 274.087 70 290.655 70C307.224 70 320.655 83.4315 320.655 100C320.655 116.569 307.224 130 290.655 130Z" fill="black"/>
<path fill-rule="evenodd" clip-rule="evenodd" d="M500.655 100C500.655 127.614 478.27 150 450.655 150C423.041 150 400.655 127.614 400.655 100C400.655 72.3858 423.041 50 450.655 50C461.912 50 472.299 53.7194 480.655 59.9963V0H500.655V100ZM450.655 130C467.224 130 480.655 116.569 480.655 100C480.655 83.4315 467.224 70 450.655 70C434.087 70 420.655 83.4315 420.655 100C420.655 116.569 434.087 130 450.655 130Z" fill="black"/>
<path fill-rule="evenodd" clip-rule="evenodd" d="M570.655 150C543.041 150 520.655 127.614 520.655 100C520.655 72.3858 543.041 50 570.655 50C598.27 50 620.655 72.3858 620.655 100C620.655 103.425 620.311 106.769 619.655 110H542.363C546.481 121.652 557.593 130 570.655 130C576.789 130 582.493 128.159 587.244 125H613.966C605.321 139.945 589.163 150 570.655 150ZM570.655 70C557.593 70 546.481 78.3481 542.363 90H598.948C594.83 78.3481 583.718 70 570.655 70Z" fill="black"/>
<path d="M670.656 110C654.087 110 640.656 96.5685 640.656 80C640.656 63.4315 654.087 50 670.656 50L740.656 50V70H670.656C665.133 70 660.656 74.4772 660.656 80C660.656 85.5228 665.133 90 670.656 90H710.656C727.224 90 740.656 103.431 740.656 120C740.656 136.569 727.224 150 710.656 150H640.656L640.656 130L710.656 130C716.178 130 720.656 125.523 720.656 120C720.656 114.477 716.178 110 710.656 110L670.656 110Z" fill="black"/>
<rect width="20" height="100" transform="matrix(-1 0 0 1 780.656 50)" fill="black"/>
<path fill-rule="evenodd" clip-rule="evenodd" d="M900.656 150C900.656 159.889 897.723 169.556 892.229 177.779C886.735 186.001 878.926 192.41 869.79 196.194C860.653 199.978 850.6 200.969 840.901 199.039C831.202 197.11 822.293 192.348 815.3 185.355L829.442 171.213C833.638 175.409 838.983 178.266 844.803 179.424C850.622 180.581 856.654 179.987 862.136 177.716C867.618 175.446 872.303 171.601 875.6 166.667C878.896 161.734 880.656 155.933 880.656 150V140.004C872.299 146.281 861.912 150 850.656 150C823.041 150 800.656 127.614 800.656 100C800.656 72.3858 823.041 50 850.656 50C878.27 50 900.656 72.3858 900.656 100V150ZM850.656 70C867.224 70 880.656 83.4315 880.656 100C880.656 116.569 867.224 130 850.656 130C834.087 130 820.656 116.569 820.656 100C820.656 83.4315 834.087 70 850.656 70Z" fill="black"/>
<path d="M1020.66 100C1020.66 72.3858 998.27 50 970.656 50C943.041 50 920.656 72.3858 920.656 100V150H940.656V100C940.656 83.4315 954.087 70 970.656 70C987.224 70 1000.66 83.4315 1000.66 100V150H1020.66V100Z" fill="black"/>
</svg>
