<svg width="1021" height="200" viewBox="0 0 1021 200" fill="none" xmlns="http://www.w3.org/2000/svg">
<path d="M30.6553 150C14.0867 150 0.655273 136.569 0.655273 120V50H20.6553V120C20.6553 125.523 25.1324 130 30.6553 130C36.1781 130 40.6553 125.523 40.6553 120V50H60.6553V120C60.6553 125.523 65.1324 130 70.6553 130C76.1781 130 80.6553 125.523 80.6553 120V50H100.655V120C100.655 136.569 87.2238 150 70.6553 150C62.9717 150 55.9628 147.111 50.6553 142.361C45.3477 147.111 38.3388 150 30.6553 150Z" fill="#101010"/>
<path fill-rule="evenodd" clip-rule="evenodd" d="M240.655 100C240.655 127.614 263.041 150 290.655 150C318.27 150 340.655 127.614 340.655 100C340.655 72.3858 318.27 50 290.655 50C279.399 50 269.012 53.7194 260.655 59.9963V0H240.655V100ZM290.655 130C274.087 130 260.655 116.569 260.655 100C260.655 83.4315 274.087 70 290.655 70C307.224 70 320.655 83.4315 320.655 100C320.655 116.569 307.224 130 290.655 130Z" fill="#101010"/>
<path fill-rule="evenodd" clip-rule="evenodd" d="M500.655 100C500.655 127.614 478.27 150 450.655 150C423.041 150 400.655 127.614 400.655 100C400.655 72.3858 423.041 50 450.655 50C461.911 50 472.299 53.7194 480.655 59.9963V0H500.655V100ZM450.655 130C467.224 130 480.655 116.569 480.655 100C480.655 83.4315 467.224 70 450.655 70C434.087 70 420.655 83.4315 420.655 100C420.655 116.569 434.087 130 450.655 130Z" fill="#101010"/>
<path d="M670.655 110C654.087 110 640.655 96.5685 640.655 80C640.655 63.4315 654.087 50 670.655 50L740.655 50V70H670.655C665.132 70 660.655 74.4772 660.655 80C660.655 85.5228 665.132 90 670.655 90H710.655C727.224 90 740.655 103.431 740.655 120C740.655 136.569 727.224 150 710.655 150H640.655L640.655 130L710.655 130C716.178 130 720.655 125.523 720.655 120C720.655 114.477 716.178 110 710.655 110L670.655 110Z" fill="#101010"/>
<rect width="20" height="100" transform="matrix(-1 0 0 1 780.655 50)" fill="#101010"/>
<path fill-rule="evenodd" clip-rule="evenodd" d="M900.655 150C900.655 159.889 897.723 169.556 892.229 177.779C886.735 186.001 878.926 192.41 869.789 196.194C860.653 199.978 850.6 200.969 840.901 199.039C831.202 197.11 822.293 192.348 815.3 185.355L829.442 171.213C833.638 175.409 838.983 178.266 844.803 179.424C850.622 180.581 856.654 179.987 862.136 177.716C867.618 175.446 872.303 171.601 875.599 166.667C878.896 161.734 880.655 155.933 880.655 150V140.004C872.299 146.281 861.911 150 850.655 150C823.041 150 800.655 127.614 800.655 100C800.655 72.3858 823.041 50 850.655 50C878.27 50 900.655 72.3858 900.655 100V150ZM850.655 70C867.224 70 880.655 83.4315 880.655 100C880.655 116.569 867.224 130 850.655 130C834.087 130 820.655 116.569 820.655 100C820.655 83.4315 834.087 70 850.655 70Z" fill="#101010"/>
<path d="M1020.66 100C1020.66 72.3858 998.27 50 970.655 50C943.041 50 920.655 72.3858 920.655 100V150H940.655V100C940.655 83.4315 954.087 70 970.655 70C987.224 70 1000.66 83.4315 1000.66 100V150H1020.66V100Z" fill="#101010"/>
<path fill-rule="evenodd" clip-rule="evenodd" d="M171 150C143.386 150 121 127.614 121 100C121 72.3858 143.386 50 171 50C198.614 50 221 72.3858 221 100C221 103.425 220.656 106.769 220 110H142.707C146.825 121.652 157.938 130 171 130C178.031 130 184.497 127.581 189.612 123.53L203.284 138.182C194.573 145.555 183.306 150 171 150ZM171 70C157.938 70 146.825 78.3481 142.707 90H199.293C195.175 78.3481 184.062 70 171 70Z" fill="#101010"/>
<path fill-rule="evenodd" clip-rule="evenodd" d="M570 150C542.386 150 520 127.614 520 100C520 72.3858 542.386 50 570 50C597.614 50 620 72.3858 620 100C620 103.425 619.656 106.769 619 110H541.707C545.825 121.652 556.938 130 570 130C577.031 130 583.497 127.581 588.612 123.53L602.284 138.182C593.573 145.555 582.306 150 570 150ZM570 70C556.938 70 545.825 78.3481 541.707 90H598.293C594.175 78.3481 583.062 70 570 70Z" fill="#101010"/>
</svg>
