<svg width="1101" height="250" viewBox="0 0 1101 250" fill="none" xmlns="http://www.w3.org/2000/svg">
<path d="M120.656 85H115.656V90V160C115.656 162.761 113.417 165 110.656 165C107.894 165 105.656 162.761 105.656 160V90V85H100.656H80.6555H75.6555V90V160C75.6555 162.761 73.4169 165 70.6555 165C67.8941 165 65.6555 162.761 65.6555 160V90V85H60.6555H40.6555H35.6555V90V160C35.6555 179.33 51.3256 195 70.6555 195C78.0882 195 84.9869 192.679 90.6555 188.726C96.3241 192.679 103.223 195 110.656 195C129.985 195 145.656 179.33 145.656 160V90V85H140.656H120.656Z" fill="black" stroke="black" stroke-width="10"/>
<path d="M305.656 40V35H300.656H280.656H275.656V40V140C275.656 170.376 300.28 195 330.656 195C361.031 195 385.656 170.376 385.656 140C385.656 109.624 361.031 85 330.656 85C321.658 85 313.158 87.1637 305.656 90.9984V40ZM330.656 165C316.848 165 305.656 153.807 305.656 140C305.656 126.193 316.848 115 330.656 115C344.463 115 355.656 126.193 355.656 140C355.656 153.807 344.463 165 330.656 165Z" fill="black" stroke="black" stroke-width="10"/>
<path d="M515.656 40V35H520.656H540.656H545.656V40V140C545.656 170.376 521.031 195 490.656 195C460.28 195 435.656 170.376 435.656 140C435.656 109.624 460.28 85 490.656 85C499.653 85 508.153 87.1637 515.656 90.9984V40ZM490.656 165C504.463 165 515.656 153.807 515.656 140C515.656 126.193 504.463 115 490.656 115C476.848 115 465.656 126.193 465.656 140C465.656 153.807 476.848 165 490.656 165Z" fill="black" stroke="black" stroke-width="10"/>
<path d="M675.656 190V195H680.656H750.656C769.985 195 785.656 179.33 785.656 160C785.656 140.67 769.985 125 750.656 125H710.656C707.894 125 705.656 122.761 705.656 120C705.656 117.239 707.894 115 710.656 115H780.656H785.656V110V90V85H780.656L710.656 85C691.326 85 675.656 100.67 675.656 120C675.656 139.33 691.326 155 710.656 155L750.656 155C753.417 155 755.656 157.239 755.656 160C755.656 162.761 753.417 165 750.656 165L680.656 165H675.656V170L675.656 190Z" fill="black" stroke="black" stroke-width="10"/>
<rect x="5" y="-5" width="30" height="110" transform="matrix(-1 0 0 1 830.656 90)" fill="black" stroke="black" stroke-width="10"/>
<path d="M851.765 221.82L848.229 225.355L851.765 228.891C859.457 236.583 869.257 241.821 879.926 243.943C890.595 246.065 901.653 244.976 911.703 240.813C921.753 236.651 930.343 229.601 936.386 220.556C942.43 211.512 945.656 200.878 945.656 190V140C945.656 109.624 921.031 85 890.656 85C860.28 85 835.656 109.624 835.656 140C835.656 170.376 860.28 195 890.656 195C899.653 195 908.153 192.836 915.656 189.002V190C915.656 194.945 914.189 199.778 911.442 203.889C908.695 208 904.791 211.205 900.223 213.097C895.654 214.989 890.628 215.484 885.778 214.52C880.929 213.555 876.474 211.174 872.978 207.678L869.442 204.142L865.907 207.678L851.765 221.82ZM890.656 115C904.463 115 915.656 126.193 915.656 140C915.656 153.807 904.463 165 890.656 165C876.848 165 865.656 153.807 865.656 140C865.656 126.193 876.848 115 890.656 115Z" fill="black" stroke="black" stroke-width="10"/>
<path d="M955.656 190V195H960.656H980.656H985.656V190V140C985.656 126.193 996.848 115 1010.66 115C1024.46 115 1035.66 126.193 1035.66 140V190V195H1040.66H1060.66H1065.66V190V140C1065.66 109.624 1041.03 85 1010.66 85C980.28 85 955.656 109.624 955.656 140V190Z" fill="black" stroke="black" stroke-width="10"/>
<path d="M260 155H264.087L264.9 150.995C265.622 147.438 266 143.761 266 140C266 109.624 241.376 85 211 85C180.625 85 156 109.624 156 140C156 170.376 180.625 195 211 195C224.532 195 236.934 190.107 246.514 181.999L250.52 178.608L246.939 174.771L233.268 160.119L230.122 156.748L226.508 159.611C222.245 162.987 216.865 165 211 165C202.826 165 195.56 161.075 190.997 155H260ZM190.997 125C195.56 118.925 202.826 115 211 115C219.175 115 226.44 118.925 231.003 125H190.997Z" fill="black" stroke="black" stroke-width="10"/>
<path d="M659 155H663.087L663.9 150.995C664.622 147.438 665 143.761 665 140C665 109.624 640.376 85 610 85C579.625 85 555 109.624 555 140C555 170.376 579.625 195 610 195C623.532 195 635.934 190.107 645.514 181.999L649.52 178.608L645.939 174.771L632.268 160.119L629.122 156.748L625.508 159.611C621.245 162.987 615.865 165 610 165C601.826 165 594.56 161.075 589.997 155H659ZM589.997 125C594.56 118.925 601.826 115 610 115C618.175 115 625.44 118.925 630.003 125H589.997Z" fill="black" stroke="black" stroke-width="10"/>
</svg>
