<svg width="50" height="51" viewBox="0 0 50 51" fill="none" xmlns="http://www.w3.org/2000/svg">
<g clip-path="url(#clip0_288_479)">
<path d="M1.04782 50.75L4.50918 37.9115C2.37433 34.1544 1.25116 29.8917 1.25253 25.5251C1.258 11.864 12.2018 0.75 25.6502 0.75C32.1763 0.753234 38.3016 3.33321 42.9085 8.0164C47.5141 12.6996 50.0501 18.9243 50.0478 25.5451C50.0419 39.2052 39.0962 50.3211 25.6502 50.3211C25.6492 50.3211 25.6512 50.3211 25.6502 50.3211H25.6397C21.5569 50.3194 17.5449 49.279 13.9812 47.3048L1.04782 50.75Z" fill="white"/>
<path d="M25.556 4.75C14.248 4.75 5.05198 14.1664 5.04782 25.7405C5.04615 29.7068 6.12976 33.5699 8.18172 36.9124L8.66954 37.7065L6.59805 45.4525L14.357 43.3686L15.1062 43.8234C18.253 45.7365 21.8608 46.7481 25.5402 46.75H25.548C36.8472 46.75 46.0432 37.3326 46.0478 25.7575C46.0498 20.1484 43.9197 14.8738 40.0491 10.9061C36.1784 6.93843 31.0319 4.75237 25.556 4.75Z" fill="url(#paint0_linear_288_479)"/>
<path fill-rule="evenodd" clip-rule="evenodd" d="M19.404 15.8184C18.9429 14.8026 18.4579 14.782 18.0199 14.7642C17.6612 14.7491 17.2508 14.75 16.841 14.75C16.4306 14.75 15.7644 14.9028 15.201 15.5134C14.6371 16.1239 13.0478 17.5999 13.0478 20.602C13.0478 23.6042 15.2521 26.5048 15.5592 26.9123C15.8667 27.3194 19.8143 33.6768 26.0668 36.1223C31.2625 38.1549 32.3197 37.7505 33.4479 37.649C34.5756 37.5475 37.087 36.1731 37.5993 34.7484C38.112 33.3237 38.112 32.103 37.9584 31.8478C37.8044 31.593 37.3946 31.4407 36.779 31.1356C36.164 30.8306 33.1399 29.3542 32.576 29.1507C32.0121 28.9471 31.6023 28.8456 31.1919 29.4562C30.782 30.0668 29.604 31.4407 29.2449 31.8478C28.8862 32.2553 28.5274 32.306 27.9119 32.001C27.2969 31.695 25.3157 31.0515 22.9657 28.9728C21.1371 27.3555 19.9029 25.3582 19.5437 24.7476C19.185 24.137 19.5054 23.8068 19.8139 23.5026C20.09 23.2291 20.4289 22.7901 20.7369 22.4338C21.0435 22.0775 21.1463 21.8232 21.351 21.4166C21.5562 21.0091 21.4539 20.6528 21.2999 20.3477C21.1463 20.0427 19.9508 17.025 19.404 15.8184" fill="white"/>
</g>
<defs>
<linearGradient id="paint0_linear_288_479" x1="25.1305" y1="7.27045" x2="25.3486" y2="43.1618" gradientUnits="userSpaceOnUse">
<stop stop-color="#57D163"/>
<stop offset="1" stop-color="#23B33A"/>
</linearGradient>
<clipPath id="clip0_288_479">
<rect width="49.9044" height="50" fill="white" transform="translate(0.047821 0.75)"/>
</clipPath>
</defs>
</svg>
