<svg width="50" height="50" viewBox="0 0 50 50" fill="none" xmlns="http://www.w3.org/2000/svg">
<g clip-path="url(#clip0_407_260)">
<path fill-rule="evenodd" clip-rule="evenodd" d="M4.46136 37.1615L1 50L13.9334 46.5548C17.4971 48.529 21.509 49.5694 25.5918 49.5711H25.6024C39.0484 49.5711 49.9941 38.4552 50 24.7951C50.0023 18.1743 47.4662 11.9496 42.8607 7.2664C38.2538 2.58321 32.1284 0.00323373 25.6024 0C12.154 0 1.21018 11.114 1.20471 24.7751C1.20334 29.1417 2.32651 33.4044 4.46136 37.1615ZM5 24.9905C5.00416 13.4164 14.2002 4 25.5081 4C30.984 4.00237 36.1306 6.18843 40.0012 10.1561C43.8719 14.1238 46.002 19.3984 46 25.0075C45.9954 36.5826 36.7994 46 25.5002 46H25.4924C21.813 45.9981 18.2052 44.9865 15.0584 43.0734L14.3092 42.6186L6.55023 44.7025L8.62172 36.9565L8.1339 36.1624C6.08193 32.8199 4.99833 28.9568 5 24.9905Z" fill="white"/>
<path fill-rule="evenodd" clip-rule="evenodd" d="M19.3562 15.0684C18.8951 14.0526 18.4101 14.032 17.9721 14.0142C17.6134 13.9991 17.203 14 16.7931 14C16.3828 14 15.7166 14.1528 15.1532 14.7634C14.5893 15.3739 13 16.8499 13 19.852C13 22.8542 15.2043 25.7548 15.5114 26.1623C15.8189 26.5694 19.7665 32.9268 26.0189 35.3723C31.2146 37.4049 32.2718 37.0005 33.4001 36.899C34.5278 36.7975 37.0392 35.4231 37.5514 33.9984C38.0641 32.5737 38.0641 31.353 37.9106 31.0978C37.7566 30.843 37.3467 30.6907 36.7312 30.3856C36.1162 30.0806 33.0921 28.6042 32.5282 28.4007C31.9643 28.1971 31.5544 28.0956 31.1441 28.7062C30.7342 29.3168 29.5562 30.6907 29.197 31.0978C28.8383 31.5053 28.4796 31.556 27.8641 31.251C27.2491 30.945 25.2679 30.3015 22.9179 28.2228C21.0893 26.6055 19.855 24.6082 19.4959 23.9976C19.1372 23.387 19.4576 23.0568 19.7661 22.7526C20.0422 22.4791 20.3811 22.0401 20.6891 21.6838C20.9957 21.3275 21.0985 21.0732 21.3032 20.6666C21.5084 20.2591 21.406 19.9028 21.252 19.5977C21.0985 19.2927 19.903 16.275 19.3562 15.0684Z" fill="white"/>
</g>
<defs>
<clipPath id="clip0_407_260">
<rect width="49.9044" height="50" fill="white"/>
</clipPath>
</defs>
</svg>
