<svg width="72" height="50" viewBox="0 0 72 50" fill="none" xmlns="http://www.w3.org/2000/svg">
<path fill-rule="evenodd" clip-rule="evenodd" d="M67.5014 3.82796C68.61 4.93658 69.4088 6.31628 69.8184 7.82967C72.1764 17.3214 71.6315 32.3123 69.8641 42.1703C69.4546 43.6837 68.6558 45.0634 67.5472 46.172C66.4385 47.2806 65.0588 48.0795 63.5455 48.489C58.0052 50 35.7066 50 35.7066 50C35.7066 50 13.4081 50 7.86779 48.489C6.3544 48.0795 4.9747 47.2806 3.86609 46.172C2.75747 45.0634 1.95863 43.6837 1.54911 42.1703C-0.822684 32.7198 -0.172501 17.7198 1.50332 7.87546C1.91284 6.36207 2.71168 4.98237 3.8203 3.87375C4.92891 2.76514 6.30862 1.96629 7.82201 1.55678C13.3623 0.0457875 35.6608 0 35.6608 0C35.6608 0 57.9594 0 63.4997 1.51099C65.0131 1.92051 66.3928 2.71935 67.5014 3.82796ZM47.0619 25L28.5637 35.7143V14.2857L47.0619 25Z" fill="white"/>
</svg>
