<svg width="200" height="100" viewBox="0 0 200 100" fill="none" xmlns="http://www.w3.org/2000/svg">
<g filter="url(#filter0_d_100_255)">
<mask id="path-1-outside-1_100_255" maskUnits="userSpaceOnUse" x="55" y="5" width="91" height="90" fill="black">
<rect fill="white" x="55" y="5" width="91" height="90"/>
<path d="M121.896 11L121.443 11L61 70.3499L61 70.7433L121.896 11Z"/>
<path d="M61 73.5451L61 74.5582L125.785 11H124.752L61 73.5451Z"/>
<path d="M61 78.3732L61 77.36L128.64 11H129.673L61 78.3732Z"/>
<path d="M61 81.175L61 82.1883L133.562 11H132.529L61 81.175Z"/>
<path d="M63.1551 83.8889H62.1224L134.639 12.7449V13.7581L63.1551 83.8889Z"/>
<path d="M66.011 83.8889H67.0437L134.639 17.5731V16.5599L66.011 83.8889Z"/>
<path d="M70.9324 83.8889H69.8996L134.639 20.3748V21.3881L70.9324 83.8889Z"/>
<path d="M73.7882 83.8889H74.821L93.3947 65.6668H92.362L73.7882 83.8889Z"/>
<path d="M116.053 42.4247V43.4379L134.639 25.2031V24.1899L116.053 42.4247Z"/>
<path d="M77.6768 83.8889L96.2506 65.6668H97.2833L78.7096 83.8889H77.6768Z"/>
<path d="M134.639 28.0049L116.053 46.2397V47.2528L134.639 29.0181V28.0049Z"/>
<path d="M100.139 65.6668L81.5654 83.8889H82.5981L101.172 65.6668H100.139Z"/>
<path d="M116.053 50.0546L134.639 31.8199V32.833L116.053 51.0678V50.0546Z"/>
<path d="M86.4867 83.8889H85.454L104.028 65.6668H105.06L86.4867 83.8889Z"/>
<path d="M116.053 54.8828V53.8696L134.639 35.6348V36.648L116.053 54.8828Z"/>
<path d="M134.639 39.4498L116.053 57.6846V58.6978L134.639 40.4631V39.4498Z"/>
<path d="M107.916 65.6668L89.3426 83.8889H90.3754L108.949 65.6668H107.916Z"/>
<path d="M94.264 83.8889H93.2312L111.805 65.6668H112.838L94.264 83.8889Z"/>
<path d="M116.053 62.5128V61.4996L134.639 43.2649V44.2781L116.053 62.5128Z"/>
<path d="M134.639 47.0799L116.053 65.3146V65.6668H115.694L97.1198 83.8889H98.1526L134.639 48.0931V47.0799Z"/>
<path d="M102.041 83.8889H101.008L134.639 50.8949V51.908L102.041 83.8889Z"/>
<path d="M134.639 54.7098L104.897 83.8889H105.93L134.639 55.7231V54.7098Z"/>
<path d="M109.818 83.8889H108.786L134.639 58.5249V59.5381L109.818 83.8889Z"/>
<path d="M134.639 62.3399L112.674 83.8889H113.707L134.639 63.3531V62.3399Z"/>
<path d="M116.053 85.4028V84.3897L135.137 65.6668H136.169L116.053 85.4028Z"/>
<path d="M139.025 65.6668L116.053 88.2046V89.2178L140.058 65.6668H139.025Z"/>
<path d="M116.053 93V92.0196L142.914 65.6668H143.932V65.6808L116.086 93H116.053Z"/>
<path d="M143.932 68.4826L118.942 93H119.975L143.932 69.4958V68.4826Z"/>
<path d="M123.863 93H122.831L143.932 72.2976V73.3107L123.863 93Z"/>
<path d="M143.932 76.1125L136.006 83.8889H137.039L143.932 77.1258V76.1125Z"/>
<path d="M134.639 85.2298L126.719 93H127.752L134.639 86.2431V85.2298Z"/>
<path d="M131.64 93H130.608L134.639 89.0449V90.0581L131.64 93Z"/>
<path d="M140.927 83.8889H139.895L143.932 79.9275V80.9408L140.927 83.8889Z"/>
<path d="M143.932 83.7426L143.783 83.8889H143.932V83.7426Z"/>
<path d="M134.639 92.8599L134.496 93H134.639V92.8599Z"/>
<path fill-rule="evenodd" clip-rule="evenodd" d="M130.639 22.5473V7L117.443 7L57 66.3499L57 79.8889H112.053V89H123.226L130.639 81.5873V79.8889H132.338L139.932 72.2941V70.5412L122.177 88.2968L121.823 87.9432L139.932 69.8341V68.0812L122.177 85.8368L121.823 85.4832L139.932 67.3741V65.6212L122.177 83.3768L121.823 83.0232L139.932 64.9141V63.1612L122.177 80.9168L121.823 80.5632L139.932 62.4541V61.6668H138.967L122.177 78.4568L121.823 78.1032L138.26 61.6668H136.507L122.177 75.9968L121.823 75.6432L135.8 61.6668H134.047L122.177 73.5368L121.823 73.1832L133.34 61.6668H131.587L122.177 71.0768L121.823 70.7232L130.88 61.6668H130.639V60.1544L122.177 68.6168L121.823 68.2632L130.639 59.4473V57.6944L122.177 66.1568L121.823 65.8032L130.639 56.9873V55.2344L122.177 63.6968L121.823 63.3432L130.639 54.5273V52.7744L122.177 61.2368L121.823 60.8832L130.639 52.0673V50.3144L122.177 58.7768L121.823 58.4232L130.639 49.6073V47.8544L122.177 56.3168L121.823 55.9632L130.639 47.1473V45.3944L122.177 53.8568L121.823 53.5032L130.639 44.6873V42.9344L122.177 51.3968L121.823 51.0432L130.639 42.2273V40.4744L122.177 48.9368L121.823 48.5832L130.639 39.7673V38.0144L122.177 46.4768L121.823 46.1232L130.639 37.3073V35.5544L122.177 44.0168L121.823 43.6632L130.639 34.8473V33.0944L122.177 41.5568L121.823 41.2032L130.639 32.3873V30.6344L122.177 39.0968L121.823 38.7432L130.639 29.9273V28.1744L122.177 36.6368L121.823 36.2832L130.639 27.4673V25.7144L122.177 34.1768L121.823 33.8232L130.639 25.0073V23.2544L122.177 31.7168L121.823 31.3632L130.639 22.5473ZM112.053 38.1074V61.6668H88.022L112.053 38.1074Z"/>
<path d="M139.932 73.0012L133.045 79.8889H134.798L139.932 74.7541V73.0012Z"/>
<path d="M130.639 82.2944L123.934 89H125.686L130.639 84.0473V82.2944Z"/>
<path d="M128.146 89H126.394L130.639 84.7544V86.5073L128.146 89Z"/>
<path d="M137.258 79.8889H135.505L139.932 75.4612V77.2141L137.258 79.8889Z"/>
<path d="M139.932 77.9212L137.965 79.8889H139.718L139.932 79.6741V77.9212Z"/>
<path d="M130.639 87.2144L128.854 89H130.606L130.639 88.9673V87.2144Z"/>
</mask>
<path d="M121.896 11L121.443 11L61 70.3499L61 70.7433L121.896 11Z" stroke="#FFB1B1" stroke-width="4" mask="url(#path-1-outside-1_100_255)"/>
<path d="M61 73.5451L61 74.5582L125.785 11H124.752L61 73.5451Z" stroke="#FFB1B1" stroke-width="4" mask="url(#path-1-outside-1_100_255)"/>
<path d="M61 78.3732L61 77.36L128.64 11H129.673L61 78.3732Z" stroke="#FFB1B1" stroke-width="4" mask="url(#path-1-outside-1_100_255)"/>
<path d="M61 81.175L61 82.1883L133.562 11H132.529L61 81.175Z" stroke="#FFB1B1" stroke-width="4" mask="url(#path-1-outside-1_100_255)"/>
<path d="M63.1551 83.8889H62.1224L134.639 12.7449V13.7581L63.1551 83.8889Z" stroke="#FFB1B1" stroke-width="4" mask="url(#path-1-outside-1_100_255)"/>
<path d="M66.011 83.8889H67.0437L134.639 17.5731V16.5599L66.011 83.8889Z" stroke="#FFB1B1" stroke-width="4" mask="url(#path-1-outside-1_100_255)"/>
<path d="M70.9324 83.8889H69.8996L134.639 20.3748V21.3881L70.9324 83.8889Z" stroke="#FFB1B1" stroke-width="4" mask="url(#path-1-outside-1_100_255)"/>
<path d="M73.7882 83.8889H74.821L93.3947 65.6668H92.362L73.7882 83.8889Z" stroke="#FFB1B1" stroke-width="4" mask="url(#path-1-outside-1_100_255)"/>
<path d="M116.053 42.4247V43.4379L134.639 25.2031V24.1899L116.053 42.4247Z" stroke="#FFB1B1" stroke-width="4" mask="url(#path-1-outside-1_100_255)"/>
<path d="M77.6768 83.8889L96.2506 65.6668H97.2833L78.7096 83.8889H77.6768Z" stroke="#FFB1B1" stroke-width="4" mask="url(#path-1-outside-1_100_255)"/>
<path d="M134.639 28.0049L116.053 46.2397V47.2528L134.639 29.0181V28.0049Z" stroke="#FFB1B1" stroke-width="4" mask="url(#path-1-outside-1_100_255)"/>
<path d="M100.139 65.6668L81.5654 83.8889H82.5981L101.172 65.6668H100.139Z" stroke="#FFB1B1" stroke-width="4" mask="url(#path-1-outside-1_100_255)"/>
<path d="M116.053 50.0546L134.639 31.8199V32.833L116.053 51.0678V50.0546Z" stroke="#FFB1B1" stroke-width="4" mask="url(#path-1-outside-1_100_255)"/>
<path d="M86.4867 83.8889H85.454L104.028 65.6668H105.06L86.4867 83.8889Z" stroke="#FFB1B1" stroke-width="4" mask="url(#path-1-outside-1_100_255)"/>
<path d="M116.053 54.8828V53.8696L134.639 35.6348V36.648L116.053 54.8828Z" stroke="#FFB1B1" stroke-width="4" mask="url(#path-1-outside-1_100_255)"/>
<path d="M134.639 39.4498L116.053 57.6846V58.6978L134.639 40.4631V39.4498Z" stroke="#FFB1B1" stroke-width="4" mask="url(#path-1-outside-1_100_255)"/>
<path d="M107.916 65.6668L89.3426 83.8889H90.3754L108.949 65.6668H107.916Z" stroke="#FFB1B1" stroke-width="4" mask="url(#path-1-outside-1_100_255)"/>
<path d="M94.264 83.8889H93.2312L111.805 65.6668H112.838L94.264 83.8889Z" stroke="#FFB1B1" stroke-width="4" mask="url(#path-1-outside-1_100_255)"/>
<path d="M116.053 62.5128V61.4996L134.639 43.2649V44.2781L116.053 62.5128Z" stroke="#FFB1B1" stroke-width="4" mask="url(#path-1-outside-1_100_255)"/>
<path d="M134.639 47.0799L116.053 65.3146V65.6668H115.694L97.1198 83.8889H98.1526L134.639 48.0931V47.0799Z" stroke="#FFB1B1" stroke-width="4" mask="url(#path-1-outside-1_100_255)"/>
<path d="M102.041 83.8889H101.008L134.639 50.8949V51.908L102.041 83.8889Z" stroke="#FFB1B1" stroke-width="4" mask="url(#path-1-outside-1_100_255)"/>
<path d="M134.639 54.7098L104.897 83.8889H105.93L134.639 55.7231V54.7098Z" stroke="#FFB1B1" stroke-width="4" mask="url(#path-1-outside-1_100_255)"/>
<path d="M109.818 83.8889H108.786L134.639 58.5249V59.5381L109.818 83.8889Z" stroke="#FFB1B1" stroke-width="4" mask="url(#path-1-outside-1_100_255)"/>
<path d="M134.639 62.3399L112.674 83.8889H113.707L134.639 63.3531V62.3399Z" stroke="#FFB1B1" stroke-width="4" mask="url(#path-1-outside-1_100_255)"/>
<path d="M116.053 85.4028V84.3897L135.137 65.6668H136.169L116.053 85.4028Z" stroke="#FFB1B1" stroke-width="4" mask="url(#path-1-outside-1_100_255)"/>
<path d="M139.025 65.6668L116.053 88.2046V89.2178L140.058 65.6668H139.025Z" stroke="#FFB1B1" stroke-width="4" mask="url(#path-1-outside-1_100_255)"/>
<path d="M116.053 93V92.0196L142.914 65.6668H143.932V65.6808L116.086 93H116.053Z" stroke="#FFB1B1" stroke-width="4" mask="url(#path-1-outside-1_100_255)"/>
<path d="M143.932 68.4826L118.942 93H119.975L143.932 69.4958V68.4826Z" stroke="#FFB1B1" stroke-width="4" mask="url(#path-1-outside-1_100_255)"/>
<path d="M123.863 93H122.831L143.932 72.2976V73.3107L123.863 93Z" stroke="#FFB1B1" stroke-width="4" mask="url(#path-1-outside-1_100_255)"/>
<path d="M143.932 76.1125L136.006 83.8889H137.039L143.932 77.1258V76.1125Z" stroke="#FFB1B1" stroke-width="4" mask="url(#path-1-outside-1_100_255)"/>
<path d="M134.639 85.2298L126.719 93H127.752L134.639 86.2431V85.2298Z" stroke="#FFB1B1" stroke-width="4" mask="url(#path-1-outside-1_100_255)"/>
<path d="M131.64 93H130.608L134.639 89.0449V90.0581L131.64 93Z" stroke="#FFB1B1" stroke-width="4" mask="url(#path-1-outside-1_100_255)"/>
<path d="M140.927 83.8889H139.895L143.932 79.9275V80.9408L140.927 83.8889Z" stroke="#FFB1B1" stroke-width="4" mask="url(#path-1-outside-1_100_255)"/>
<path d="M143.932 83.7426L143.783 83.8889H143.932V83.7426Z" stroke="#FFB1B1" stroke-width="4" mask="url(#path-1-outside-1_100_255)"/>
<path d="M134.639 92.8599L134.496 93H134.639V92.8599Z" stroke="#FFB1B1" stroke-width="4" mask="url(#path-1-outside-1_100_255)"/>
<path fill-rule="evenodd" clip-rule="evenodd" d="M130.639 22.5473V7L117.443 7L57 66.3499L57 79.8889H112.053V89H123.226L130.639 81.5873V79.8889H132.338L139.932 72.2941V70.5412L122.177 88.2968L121.823 87.9432L139.932 69.8341V68.0812L122.177 85.8368L121.823 85.4832L139.932 67.3741V65.6212L122.177 83.3768L121.823 83.0232L139.932 64.9141V63.1612L122.177 80.9168L121.823 80.5632L139.932 62.4541V61.6668H138.967L122.177 78.4568L121.823 78.1032L138.26 61.6668H136.507L122.177 75.9968L121.823 75.6432L135.8 61.6668H134.047L122.177 73.5368L121.823 73.1832L133.34 61.6668H131.587L122.177 71.0768L121.823 70.7232L130.88 61.6668H130.639V60.1544L122.177 68.6168L121.823 68.2632L130.639 59.4473V57.6944L122.177 66.1568L121.823 65.8032L130.639 56.9873V55.2344L122.177 63.6968L121.823 63.3432L130.639 54.5273V52.7744L122.177 61.2368L121.823 60.8832L130.639 52.0673V50.3144L122.177 58.7768L121.823 58.4232L130.639 49.6073V47.8544L122.177 56.3168L121.823 55.9632L130.639 47.1473V45.3944L122.177 53.8568L121.823 53.5032L130.639 44.6873V42.9344L122.177 51.3968L121.823 51.0432L130.639 42.2273V40.4744L122.177 48.9368L121.823 48.5832L130.639 39.7673V38.0144L122.177 46.4768L121.823 46.1232L130.639 37.3073V35.5544L122.177 44.0168L121.823 43.6632L130.639 34.8473V33.0944L122.177 41.5568L121.823 41.2032L130.639 32.3873V30.6344L122.177 39.0968L121.823 38.7432L130.639 29.9273V28.1744L122.177 36.6368L121.823 36.2832L130.639 27.4673V25.7144L122.177 34.1768L121.823 33.8232L130.639 25.0073V23.2544L122.177 31.7168L121.823 31.3632L130.639 22.5473ZM112.053 38.1074V61.6668H88.022L112.053 38.1074Z" stroke="#FFB1B1" stroke-width="4" mask="url(#path-1-outside-1_100_255)"/>
<path d="M139.932 73.0012L133.045 79.8889H134.798L139.932 74.7541V73.0012Z" stroke="#FFB1B1" stroke-width="4" mask="url(#path-1-outside-1_100_255)"/>
<path d="M130.639 82.2944L123.934 89H125.686L130.639 84.0473V82.2944Z" stroke="#FFB1B1" stroke-width="4" mask="url(#path-1-outside-1_100_255)"/>
<path d="M128.146 89H126.394L130.639 84.7544V86.5073L128.146 89Z" stroke="#FFB1B1" stroke-width="4" mask="url(#path-1-outside-1_100_255)"/>
<path d="M137.258 79.8889H135.505L139.932 75.4612V77.2141L137.258 79.8889Z" stroke="#FFB1B1" stroke-width="4" mask="url(#path-1-outside-1_100_255)"/>
<path d="M139.932 77.9212L137.965 79.8889H139.718L139.932 79.6741V77.9212Z" stroke="#FFB1B1" stroke-width="4" mask="url(#path-1-outside-1_100_255)"/>
<path d="M130.639 87.2144L128.854 89H130.606L130.639 88.9673V87.2144Z" stroke="#FFB1B1" stroke-width="4" mask="url(#path-1-outside-1_100_255)"/>
</g>
<defs>
<filter id="filter0_d_100_255" x="51" y="1" width="98.9324" height="98" filterUnits="userSpaceOnUse" color-interpolation-filters="sRGB">
<feFlood flood-opacity="0" result="BackgroundImageFix"/>
<feColorMatrix in="SourceAlpha" type="matrix" values="0 0 0 0 0 0 0 0 0 0 0 0 0 0 0 0 0 0 127 0" result="hardAlpha"/>
<feOffset/>
<feGaussianBlur stdDeviation="2"/>
<feColorMatrix type="matrix" values="0 0 0 0 1 0 0 0 0 0.2 0 0 0 0 0.2 0 0 0 1 0"/>
<feBlend mode="normal" in2="BackgroundImageFix" result="effect1_dropShadow_100_255"/>
<feBlend mode="normal" in="SourceGraphic" in2="effect1_dropShadow_100_255" result="shape"/>
</filter>
</defs>
</svg>
