<svg width="200" height="100" viewBox="0 0 200 100" fill="none" xmlns="http://www.w3.org/2000/svg">
<path d="M54.1027 45.8973L50 50V52.5749L125 18.3954V13.5875L54.1027 45.8973Z" fill="#151515"/>
<path d="M50 59.0999V54.6354L125 20.456V24.9204L50 59.0999Z" fill="#151515"/>
<path d="M50 61.8473V65.9683L125 31.7889V27.6678L50 61.8473Z" fill="#151515"/>
<path d="M50 72.4933V68.7157L125 34.5362V38.3139L50 72.4933Z" fill="#151515"/>
<path d="M52.0353 75H59.571L125 45.1823V41.7481L52.0353 75Z" fill="#151515"/>
<path d="M73.8888 75H67.1067L125 48.6165V50H128.746L73.8888 75Z" fill="#151515"/>
<path d="M82.9317 75H88.9602L143.818 50H137.789L82.9317 75Z" fill="#151515"/>
<path d="M100 75H98.003L150 51.3036V53.7076L100 76.4939V75Z" fill="#151515"/>
<path d="M100 81.3018V83.3623L150 60.576V58.5155L100 81.3018Z" fill="#151515"/>
<path d="M100 89.8873V88.1702L125 76.777V78.4942L100 89.8873Z" fill="#151515"/>
<path d="M100 95.382V96.7557L125 85.3626V83.9889L100 95.382Z" fill="#151515"/>
<path d="M107.199 100H104.938L125 90.8573V91.8876L107.199 100Z" fill="#151515"/>
<path d="M120.763 100H125V98.0692L120.763 100Z" fill="#151515"/>
<path d="M150 72.5957V73.9694L147.739 75H144.724L150 72.5957Z" fill="#151515"/>
<path d="M150 67.101V65.3839L128.899 75H132.667L150 67.101Z" fill="#151515"/>
<path d="M125 11.527V6.3757L67.3531 32.6469L57.8885 42.1115L125 11.527Z" fill="#151515"/>
<path d="M125 0V5.00202L69.877 30.123L79.9725 20.0275L123.919 0H125Z" fill="#151515"/>
<path d="M120.905 0H108.094L93.2229 6.77708L82.4964 17.5036L120.905 0Z" fill="#151515"/>
<path d="M100 0H106.587L94.4849 5.51514L100 0Z" fill="#151515"/>
</svg>
