<svg width="200" height="100" viewBox="0 0 200 100" fill="none" xmlns="http://www.w3.org/2000/svg">
<path d="M102.864 67.0391H149.576C160.621 67.0391 169.576 58.0848 169.576 47.0391V42.3464C169.576 31.3007 160.621 22.3464 149.576 22.3464H102.864V0H152C174.091 0 192 17.9086 192 40V49.3855C192 71.4769 174.091 89.3855 152 89.3855H102.864V67.0391Z" fill="white"/>
<path d="M7 89.3855V73.0074C7 67.7512 9.06913 62.7064 12.7598 58.9639L65.0348 5.95658C68.7932 2.14552 73.9224 0 79.275 0H96.697V96C96.697 98.2091 94.9061 100 92.697 100H78.2727C76.0636 100 74.2727 98.2091 74.2727 96V31.9795C74.2727 28.4193 69.9711 26.6331 67.4492 29.1462L36.2814 60.2058C33.7548 62.7236 35.5379 67.0391 39.1049 67.0391H68.6667V89.3855H7Z" fill="white"/>
</svg>
