<svg width="165" height="90" viewBox="0 0 165 90" fill="none" xmlns="http://www.w3.org/2000/svg">
<path d="M85.5 60H125C136.046 60 145 51.0457 145 40V40C145 28.9543 136.046 20 125 20H85.5V0H125C147.091 0 165 17.9086 165 40V40C165 62.0914 147.091 80 125 80H85.5V60Z" fill="white"/>
<path d="M0 80V66.1826C0 60.9385 2.05968 55.9042 5.73543 52.1639L51.1218 5.98137C54.882 2.15517 60.0217 0 65.3863 0H80V85.5C80 87.7091 78.2091 89.5 76 89.5H64C61.7909 89.5 60 87.7091 60 85.5V29.6569C60 26.0932 55.6914 24.3086 53.1716 26.8284L26.8284 53.1716C24.3086 55.6914 26.0932 60 29.6569 60H55V80H0Z" fill="white"/>
</svg>
