<svg width="200" height="100" viewBox="0 0 200 100" fill="none" xmlns="http://www.w3.org/2000/svg">
<path d="M89.9956 52.2243L96.5338 42.7395M96.5338 42.7395L116.148 14.2854L65.5381 27.4542L96.5338 42.7395ZM96.5338 42.7395L106.866 47.8346M55.6145 41.4847L62.1527 32L103.48 52.3805C92.6693 54.6746 58.8851 56.8233 46.3318 75.034M97.9956 89.2243L104.534 79.7395M104.534 79.7395L124.148 51.2854L73.5381 64.4542L104.534 79.7395ZM104.534 79.7395L114.866 84.8346M98.161 49.276C103.765 41.1462 121.528 16.3178 121.528 16.3178L131.699 21.3334C151.662 31.1781 158.241 42.1391 150.769 52.9787C143.297 63.8184 128.295 64.1363 108.332 54.2916L98.161 49.276Z" stroke="white" stroke-linejoin="round"/>
<path d="M89.9956 52.2243L96.5338 42.7395M96.5338 42.7395L116.148 14.2854L65.5381 27.4542L96.5338 42.7395ZM96.5338 42.7395L106.866 47.8346M55.6145 41.4847L62.1527 32L103.48 52.3805C92.6693 54.6746 58.8851 56.8233 46.3318 75.034M97.9956 89.2243L104.534 79.7395M104.534 79.7395L124.148 51.2854L73.5381 64.4542L104.534 79.7395ZM104.534 79.7395L114.866 84.8346M98.161 49.276C103.765 41.1462 121.528 16.3178 121.528 16.3178L131.699 21.3334C151.662 31.1781 158.241 42.1391 150.769 52.9787C143.297 63.8184 128.295 64.1363 108.332 54.2916L98.161 49.276Z" stroke="white" stroke-linejoin="round"/>
</svg>
