<svg width="200" height="100" viewBox="0 0 200 100" fill="none" xmlns="http://www.w3.org/2000/svg">
<path d="M87.2756 50.0951L95.5526 38.0713M95.5526 38.0713L120.383 2L56.314 18.6941L95.5526 38.0713ZM95.5526 38.0713L108.632 44.5304M43.7513 36.4806L52.0282 24.4568L104.346 50.2931C90.6604 53.2014 47.8917 55.9254 32 79.011M97.4031 97L105.68 84.9762M105.68 84.9762L130.511 48.9049L66.4415 65.599L105.68 84.9762ZM105.68 84.9762L118.76 91.4353M97.6126 46.3576C104.707 36.0515 127.194 4.57646 127.194 4.57646L140.069 10.9348C165.341 23.4149 173.671 37.3101 164.211 51.0516C154.752 64.793 135.76 65.196 110.488 52.7159L97.6126 46.3576Z" stroke="#151515" stroke-linejoin="round"/>
<path d="M87.2756 50.0951L95.5526 38.0713M95.5526 38.0713L120.383 2L56.314 18.6941L95.5526 38.0713ZM95.5526 38.0713L108.632 44.5304M43.7513 36.4806L52.0282 24.4568L104.346 50.2931C90.6604 53.2014 47.8917 55.9254 32 79.011M97.4031 97L105.68 84.9762M105.68 84.9762L130.511 48.9049L66.4415 65.599L105.68 84.9762ZM105.68 84.9762L118.76 91.4353M97.6126 46.3576C104.707 36.0515 127.194 4.57646 127.194 4.57646L140.069 10.9348C165.341 23.4149 173.671 37.3101 164.211 51.0516C154.752 64.793 135.76 65.196 110.488 52.7159L97.6126 46.3576Z" stroke="#151515" stroke-linejoin="round"/>
</svg>
