<svg width="200" height="100" viewBox="0 0 200 100" fill="none" xmlns="http://www.w3.org/2000/svg">
<path fill-rule="evenodd" clip-rule="evenodd" d="M147.787 54.7571V54.2611C147.798 54.4257 147.798 54.5914 147.787 54.7571ZM85.0659 63.8335V63.9032C85.0657 63.88 85.0657 63.8568 85.0659 63.8335Z" fill="white"/>
<path fill-rule="evenodd" clip-rule="evenodd" d="M129.472 5.28279C128.719 4.9984 127.903 4.92679 127.113 5.07576L60.9479 17.5451C59.8873 17.745 58.9369 18.3295 58.2775 19.1875L50.9184 28.7632C50.2483 29.6351 49.9604 30.6563 50.0044 31.6495V52.8144C50.079 54.4999 51.1098 56.1047 52.8516 56.7628L84.2659 68.6309V84.9983V85.0649C84.279 86.8112 85.3227 88.4981 87.1173 89.1761L101.784 94.7169C103.592 95.4001 105.633 94.8178 106.813 93.2815L114.796 82.8942C115.762 81.6373 117.432 81.1608 118.911 81.7198L136.164 88.2377C137.972 88.9209 140.013 88.3385 141.193 86.8023L147.677 78.3656C148.359 77.4781 148.645 76.4359 148.588 75.426V54.7609V54.2611C148.495 52.5952 147.467 51.0172 145.744 50.366L141.133 48.6241L148.082 39.5827C148.713 38.7616 149.005 37.8082 149 36.8705V15.7509V15.7056C148.991 13.9575 147.95 12.2638 146.148 11.5831L129.472 5.28279ZM131.502 39.9911C130.023 41.9152 130.819 44.7274 133.084 45.5831L140.35 48.3283L147.449 39.0918C147.965 38.4194 148.204 37.6385 148.2 36.8705V18.2565C148.162 18.3108 148.122 18.3645 148.082 18.4177L131.502 39.9911ZM141.193 65.6373L147.677 57.2007C147.715 57.1514 147.752 57.1016 147.787 57.0514L147.787 73.1118V75.426C147.844 76.2658 147.612 77.1358 147.044 77.8748L140.56 86.3114C139.594 87.5684 137.925 88.0449 136.445 87.4859L119.193 80.9679C117.384 80.2847 115.344 80.8671 114.163 82.4034L106.18 92.7907C105.214 94.0476 103.545 94.5241 102.065 93.9651L87.3988 88.4243C85.932 87.8701 85.0783 86.4921 85.0659 85.0649L85.0659 82.5028L85.0659 68.9332V68.075L85.0659 66.418V63.9032C85.0657 63.88 85.0657 63.8568 85.0659 63.8335C85.0729 63.1084 85.2975 62.3737 85.7697 61.7306L90.6841 55.0376C92.4157 52.6793 91.4234 49.3119 88.6929 48.2803L53.1331 34.846C51.7196 34.312 50.8785 33.016 50.8052 31.6495C50.761 30.8262 50.9955 29.9774 51.5514 29.2541L58.9105 19.6784C59.45 18.9764 60.2276 18.4981 61.0953 18.3346L127.26 5.86522C127.907 5.74334 128.575 5.80193 129.19 6.03462L145.867 12.3349C147.34 12.8915 148.192 14.2761 148.2 15.7056L148.198 15.8497C148.173 16.5707 147.933 17.2965 147.449 17.9269L130.869 39.5003C129.062 41.8519 130.034 45.2891 132.802 46.3349L145.462 51.1179C146.857 51.6449 147.695 52.9143 147.787 54.2611C147.798 54.4257 147.798 54.5914 147.787 54.7571C147.74 55.4369 147.501 56.1157 147.044 56.7098L140.56 65.1465C139.594 66.4034 137.925 66.8799 136.445 66.3209L119.193 59.803C117.384 59.1198 115.344 59.7022 114.163 61.2384L106.18 71.6257C105.214 72.8827 103.545 73.3591 102.065 72.8001L87.3988 67.2593C85.9331 66.7056 85.0796 65.3293 85.0659 63.9032V66.418C85.5512 67.1145 86.2457 67.6818 87.1173 68.0111L101.784 73.552C103.592 74.2352 105.633 73.6528 106.813 72.1165L114.796 61.7293C115.762 60.4723 117.432 59.9958 118.911 60.5548L136.164 67.0727C137.972 67.756 140.013 67.1736 141.193 65.6373ZM90.0405 54.5609L85.1261 61.2538C84.547 62.0426 84.2725 62.9442 84.2659 63.8335V63.8997V67.7728L53.1331 56.011C51.7197 55.477 50.8785 54.181 50.8052 52.8144V34.0124C51.2898 34.705 51.9821 35.2694 52.8516 35.5978L88.4114 49.0321C90.6455 49.8762 91.4573 52.6313 90.0405 54.5609Z" fill="white"/>
<path d="M129.19 6.03462C128.575 5.80193 127.907 5.74334 127.26 5.86522L61.0953 18.3346C60.2276 18.4981 59.45 18.9764 58.9105 19.6784L51.5514 29.2541C50.9955 29.9774 50.761 30.8262 50.8052 31.6495C50.8785 33.016 51.7196 34.312 53.1331 34.846L88.6929 48.2803C91.4234 49.3119 92.4157 52.6793 90.6841 55.0376L85.7697 61.7306C85.2975 62.3737 85.0729 63.1084 85.0659 63.8335V63.9032C85.0796 65.3293 85.9331 66.7056 87.3988 67.2593L102.065 72.8001C103.545 73.3591 105.214 72.8827 106.18 71.6257L114.163 61.2384C115.344 59.7022 117.384 59.1198 119.193 59.803L136.445 66.3209C137.925 66.8799 139.594 66.4034 140.56 65.1465L147.044 56.7098C147.501 56.1157 147.74 55.4369 147.787 54.7571V54.2611C147.695 52.9143 146.857 51.6449 145.462 51.1179L132.802 46.3349C130.034 45.2891 129.062 41.8519 130.869 39.5003L147.449 17.9269C147.933 17.2965 148.173 16.5707 148.198 15.8497L148.2 15.7056C148.192 14.2761 147.34 12.8915 145.867 12.3349L129.19 6.03462Z" fill="white"/>
</svg>
