<svg width="200" height="100" viewBox="0 0 200 100" fill="none" xmlns="http://www.w3.org/2000/svg">
<path fill-rule="evenodd" clip-rule="evenodd" d="M130.123 1.08165C130.985 0.921095 131.875 0.998272 132.697 1.30479L150.889 8.09512C152.855 8.82874 153.99 10.6542 154 12.5382V12.5871V35.3493C154.005 36.36 153.686 37.3875 152.998 38.2724L145.418 48.0171L150.448 49.8945C152.328 50.5963 153.449 52.2971 153.551 54.0926V54.6311V76.9036C153.613 77.992 153.301 79.1152 152.557 80.0718L145.484 89.1647C144.196 90.8204 141.97 91.4481 139.997 90.7117L121.176 83.6869C119.562 83.0844 117.74 83.5979 116.687 84.9527L107.978 96.1478C106.69 97.8036 104.464 98.4313 102.491 97.6949L86.4916 91.7231C84.5339 90.9924 83.3953 89.1743 83.381 87.2921V87.2204V69.58L49.1108 56.7888C47.2106 56.0795 46.0862 54.3499 46.0048 52.5333V29.7222C45.9568 28.6518 46.2709 27.5512 47.0019 26.6115L55.03 16.291C55.7493 15.3663 56.7861 14.7362 57.9431 14.5208L130.123 1.08165ZM136.637 44.7395C134.166 43.8173 133.298 40.7864 134.911 38.7127L152.998 15.4613C153.043 15.404 153.086 15.346 153.127 15.2875V35.3493C153.132 36.177 152.871 37.0187 152.308 37.7434L144.564 47.6983L136.637 44.7395ZM84.3194 61.6291L89.6806 54.4156C91.2262 52.336 90.3405 49.3665 87.9033 48.4569L49.1108 33.9777C48.1623 33.6236 47.4071 33.0153 46.8784 32.2689V52.5333C46.9584 54.0062 47.876 55.403 49.4179 55.9785L83.381 68.6551V64.4808V64.4095C83.3882 63.451 83.6876 62.4792 84.3194 61.6291ZM145.484 66.3536L152.557 57.2607C152.598 57.2076 152.638 57.154 152.677 57.0998L152.677 74.4094V76.9036C152.739 77.8087 152.486 78.7464 151.866 79.5428L144.793 88.6356C143.739 89.9904 141.918 90.5039 140.304 89.9014L121.483 82.8766C119.51 82.1402 117.284 82.7679 115.996 84.4236L107.287 95.6188C106.234 96.9735 104.412 97.4871 102.798 96.8846L86.7987 90.9128C85.1986 90.3156 84.2672 88.8304 84.2537 87.2921L84.2537 84.5308L84.2537 69.9058V68.9808L84.2537 67.195C84.7831 67.9457 85.5408 68.5571 86.4916 68.912L102.491 74.8838C104.464 75.6201 106.69 74.9925 107.978 73.3367L116.687 62.1415C117.74 60.7868 119.562 60.2733 121.176 60.8758L139.997 67.9006C141.97 68.637 144.196 68.0093 145.484 66.3536Z" fill="#151515"/>
</svg>
