<svg width="200" height="100" viewBox="0 0 200 100" fill="none" xmlns="http://www.w3.org/2000/svg">
<path d="M118 10H98V24.206C98 24.4724 98.3341 24.5916 98.5028 24.3855L99.0172 23.7568C101.03 21.2967 103.954 19.7802 107.097 19.5351C107.595 19.4963 108 19.9047 108 20.4038V20.4038C108 20.457 107.956 20.5 107.903 20.5005C102.425 20.5523 98 25.0094 98 30.5V90H108V40C108 38.0092 108.582 36.1544 109.584 34.596C112.573 29.9516 118 25.5228 118 20V10Z" fill="white"/>
<path d="M96 90V10H86.5H85.5V20.213C84.7719 21.8516 83.6652 23.3194 82.2432 24.4828L81.6145 24.9972C81.4083 25.1659 81.5276 25.5 81.794 25.5H85.5H86L86.5 90H96Z" fill="white"/>
<path fill-rule="evenodd" clip-rule="evenodd" d="M79 10H59V90H79V30.5C79 24.9772 74.5228 20.5 69 20.5V19.5C72.4811 19.5 75.7784 21.0625 77.9828 23.7568L78.4972 24.3855C78.6659 24.5916 79 24.4724 79 24.206V10ZM68.5 80V29.5H69.5V80H68.5Z" fill="white"/>
<path fill-rule="evenodd" clip-rule="evenodd" d="M37 90H47C52.5228 90 57 85.5228 57 80V20C57 14.4772 52.5228 10 47 10H37V90ZM46.5 80V20H47.5V80H46.5Z" fill="white"/>
<path d="M162 10H142V24.206C142 24.4724 142.334 24.5916 142.503 24.3855L143.017 23.7568C145.03 21.2967 147.954 19.7802 151.097 19.5351C151.595 19.4963 152 19.9047 152 20.4038V20.4038C152 20.457 151.956 20.5 151.903 20.5005C146.425 20.5523 142 25.0094 142 30.5V90H152V40C152 38.0092 152.582 36.1544 153.584 34.596C156.573 29.9516 162 25.5228 162 20V10Z" fill="white"/>
<path d="M184 10H174.5V20H184V10.5V10Z" fill="white"/>
<path d="M174 90H184V20H174.5H173.5V10H164V30C169.523 30 174 34.4772 174 40V90Z" fill="white"/>
<path d="M140 10H130.5V20H140V10.5V10Z" fill="white"/>
<path d="M130 90H140V20H130.5H129.5V10H120V30C125.523 30 130 34.4772 130 40V90Z" fill="white"/>
<path d="M35 10H25.5V20H35V10.5V10Z" fill="white"/>
<path d="M25 90H35V20H25.5H24.5V10H15V30C20.5228 30 25 34.4772 25 40V90Z" fill="white"/>
</svg>
