<svg width="200" height="100" viewBox="0 0 200 100" fill="none" xmlns="http://www.w3.org/2000/svg">
<path d="M121.893 2H98.2249V18.8697C98.2249 19.186 98.6202 19.3276 98.8198 19.0828L99.4286 18.3362C101.81 15.4158 105.269 13.6152 108.987 13.3233C109.578 13.2769 110.059 13.7618 110.059 14.3546C110.059 14.4176 110.008 14.4687 109.944 14.4693C103.461 14.5311 98.2249 19.8238 98.2249 26.3438V97H110.059V37.625C110.059 34.5977 111.188 31.8349 113.047 29.7375C116.709 25.604 121.893 21.2728 121.893 15.75V2Z" fill="#151515"/>
<path d="M95.858 97V2H84.6154H83.432V14.128C82.5702 16.0738 81.2605 17.8168 79.5778 19.1983L78.8337 19.8092C78.5898 20.0095 78.7309 20.4062 79.0461 20.4062H83.432H84.0237L84.6154 97H95.858Z" fill="#151515"/>
<path fill-rule="evenodd" clip-rule="evenodd" d="M75.7396 2H52.071V97H75.7396V26.3438C75.7396 19.7854 70.4412 14.4688 63.9053 14.4688V13.2812C68.025 13.2812 71.9271 15.1367 74.5359 18.3362L75.1447 19.0828C75.3443 19.3276 75.7396 19.186 75.7396 18.8697V2ZM63.3136 85.125V25.1562H64.497V85.125H63.3136Z" fill="#151515"/>
<path fill-rule="evenodd" clip-rule="evenodd" d="M26.0355 97H37.8698C44.4057 97 49.7041 91.6834 49.7041 85.125V13.875C49.7041 7.31662 44.4057 2 37.8698 2H26.0355V97ZM37.2781 85.125V13.875H38.4615V85.125H37.2781Z" fill="#151515"/>
<path d="M173.965 2H150.296V18.8697C150.296 19.186 150.691 19.3276 150.891 19.0828L151.5 18.3362C153.881 15.4158 157.34 13.6152 161.058 13.3233C161.649 13.2769 162.13 13.7618 162.13 14.3546C162.13 14.4176 162.079 14.4687 162.015 14.4693C155.532 14.5311 150.296 19.8238 150.296 26.3438V97H162.13V37.625C162.13 34.5977 163.259 31.8349 165.118 29.7375C168.78 25.604 173.965 21.2728 173.965 15.75V2Z" fill="#151515"/>
<path d="M200 2H188.757V13.875H200V2.59375V2Z" fill="#151515"/>
<path d="M188.166 97H200V13.875H188.757H187.574V2H176.331V25.75C182.867 25.75 188.166 31.0666 188.166 37.625V97Z" fill="#151515"/>
<path d="M147.929 2H136.686V13.875H147.929V2.59375V2Z" fill="#151515"/>
<path d="M136.095 97H147.929V13.875H136.686H135.503V2H124.26V25.75C130.796 25.75 136.095 31.0666 136.095 37.625V97Z" fill="#151515"/>
<path d="M23.6686 2H12.426V13.875H23.6686V2.59375V2Z" fill="#151515"/>
<path d="M11.8343 97H23.6686V13.875H12.426H11.2426V2H0V25.75C6.53591 25.75 11.8343 31.0666 11.8343 37.625V97Z" fill="#151515"/>
</svg>
