<svg width="200" height="100" viewBox="0 0 200 100" fill="none" xmlns="http://www.w3.org/2000/svg">
<path d="M0 24.5882C0 12.1131 10.2335 2 22.8571 2H45.7143V47.1765H0V24.5882Z" fill="#151515"/>
<path d="M51.4286 2H74.2857C86.9094 2 97.1429 12.1131 97.1429 24.5882C97.1429 37.0634 86.9094 47.1765 74.2857 47.1765H51.4286V2Z" fill="#151515"/>
<path d="M102.857 24.5882C102.857 12.1131 113.091 2 125.714 2H148.571V24.5882C148.571 37.0634 138.338 47.1765 125.714 47.1765H102.857V24.5882Z" fill="#151515"/>
<path d="M154.286 2H200V47.1765H154.286V2Z" fill="#151515"/>
<path d="M0 52.8235H45.7143V75.4118C45.7143 87.8869 35.4808 98 22.8571 98H0V52.8235Z" fill="#151515"/>
<path d="M51.4286 52.8235H97.1429V98H51.4286V52.8235Z" fill="#151515"/>
<path d="M102.857 52.8235H148.571V75.4118C148.571 87.8869 138.338 98 125.714 98H102.857V52.8235Z" fill="#151515"/>
<path d="M154.286 52.8235H200V75.4118C200 87.8869 189.767 98 177.143 98H154.286V52.8235Z" fill="#151515"/>
</svg>
