<svg width="150" height="150" viewBox="0 0 150 150" fill="none" xmlns="http://www.w3.org/2000/svg">
<path d="M20.8822 69.6178L16 74.5V77.5641L105.25 36.8906V31.1692L20.8822 69.6178Z" fill="white"/>
<path d="M16 85.3289V80.0162L105.25 39.3426V44.6553L16 85.3289Z" fill="white"/>
<path d="M16 88.5983V93.5023L105.25 52.8288V47.9247L16 88.5983Z" fill="white"/>
<path d="M16 101.267V96.7717L105.25 56.0981V60.5935L16 101.267Z" fill="white"/>
<path d="M18.422 104.25H27.3895L105.25 68.7669V64.6802L18.422 104.25Z" fill="white"/>
<path d="M44.4277 104.25H36.357L105.25 72.8536V74.5H109.708L44.4277 104.25Z" fill="white"/>
<path d="M55.1887 104.25H62.3627L127.643 74.5H120.469L55.1887 104.25Z" fill="white"/>
<path d="M75.5 104.25H73.1236L135 76.0513V78.912L75.5 106.028V104.25Z" fill="white"/>
<path d="M75.5 111.749V114.201L135 87.0854V84.6334L75.5 111.749Z" fill="white"/>
<path d="M75.5 121.966V119.923L105.25 106.365V108.408L75.5 121.966Z" fill="white"/>
<path d="M75.5 128.505V130.139L105.25 116.581V114.947L75.5 128.505Z" fill="white"/>
<path d="M84.0667 134H81.3765L105.25 123.12V124.346L84.0667 134Z" fill="white"/>
<path d="M100.208 134H105.25V131.702L100.208 134Z" fill="white"/>
<path d="M135 101.389V103.024L132.309 104.25H128.722L135 101.389Z" fill="white"/>
<path d="M135 94.8502V92.8068L109.89 104.25H114.374L135 94.8502Z" fill="white"/>
<path d="M105.25 28.7172V22.5871L36.6502 53.8498L25.3873 65.1127L105.25 28.7172Z" fill="white"/>
<path d="M105.25 15V20.9524L39.6536 50.8464L51.6673 38.8327L103.963 15H105.25Z" fill="white"/>
<path d="M100.376 15H85.1317L67.4353 23.0647L54.6707 35.8293L100.376 15Z" fill="white"/>
<path d="M75.5 15H83.3382L68.937 21.563L75.5 15Z" fill="white"/>
</svg>
