<svg width="785" height="756" viewBox="0 0 785 756" fill="none" xmlns="http://www.w3.org/2000/svg">
<path d="M90 348H85V353V423C85 425.761 82.7614 428 80 428C77.2386 428 75 425.761 75 423V353V348H70H50H45V353V423C45 425.761 42.7614 428 40 428C37.2386 428 35 425.761 35 423V353V348H30H10H5V353V423C5 442.33 20.67 458 40 458C47.4327 458 54.3314 455.679 60 451.726C65.6686 455.679 72.5673 458 80 458C99.33 458 115 442.33 115 423V353V348H110H90Z" fill="white" stroke="white" stroke-width="10"/>
<path d="M231 418H235.087L235.9 413.995C236.622 410.438 237 406.761 237 403C237 372.624 212.376 348 182 348C151.624 348 127 372.624 127 403C127 433.376 151.624 458 182 458C195.532 458 207.934 453.107 217.514 444.999L221.52 441.608L217.939 437.771L204.267 423.119L201.122 419.748L197.507 422.611C193.245 425.987 187.864 428 182 428C173.825 428 166.56 424.075 161.997 418H231ZM161.997 388C166.56 381.925 173.825 378 182 378C190.175 378 197.44 381.925 202.003 388H161.997Z" fill="white" stroke="white" stroke-width="10"/>
<path d="M309 453L309 458H304C296.777 458 289.625 456.577 282.952 453.813C276.28 451.049 270.216 446.998 265.109 441.891C260.002 436.784 255.951 430.72 253.187 424.048C250.423 417.375 249 410.223 249 403V303V298H254H274H279V303V403C279 406.283 279.647 409.534 280.903 412.567C282.159 415.6 284.001 418.356 286.322 420.678C288.644 422.999 291.4 424.841 294.433 426.097C297.466 427.353 300.717 428 304 428H309L309 433L309 453Z" fill="white" stroke="white" stroke-width="10"/>
<path d="M391.507 383.389L395.122 386.252L398.267 382.881L411.939 368.229L415.52 364.392L411.514 361.001C401.934 352.893 389.532 348 376 348C345.624 348 321 372.624 321 403C321 433.376 345.624 458 376 458C389.532 458 401.934 453.107 411.514 444.999L415.52 441.608L411.939 437.771L398.267 423.119L395.122 419.748L391.507 422.611C387.245 425.987 381.864 428 376 428C362.193 428 351 416.807 351 403C351 389.193 362.193 378 376 378C381.864 378 387.245 380.013 391.507 383.389Z" fill="white" stroke="white" stroke-width="10"/>
<path d="M480.284 458C510.659 458 535.284 433.376 535.284 403C535.284 372.624 510.659 348 480.284 348C449.908 348 425.284 372.624 425.284 403C425.284 433.376 449.908 458 480.284 458ZM505.284 403C505.284 416.807 494.091 428 480.284 428C466.476 428 455.284 416.807 455.284 403C455.284 389.193 466.476 378 480.284 378C494.091 378 505.284 389.193 505.284 403Z" fill="white" stroke="white" stroke-width="10"/>
<path d="M572.284 458H577.284V453V383C577.284 380.239 579.522 378 582.284 378C585.045 378 587.284 380.239 587.284 383V453V458H592.284H612.284H617.284V453V383C617.284 380.239 619.522 378 622.284 378C625.045 378 627.284 380.239 627.284 383V453V458H632.284H652.284H657.284V453V383C657.284 363.67 641.614 348 622.284 348C614.851 348 607.952 350.321 602.284 354.274C596.615 350.321 589.716 348 582.284 348C562.954 348 547.284 363.67 547.284 383V453V458H552.284H572.284Z" fill="white" stroke="white" stroke-width="10"/>
<path d="M773.283 418H777.37L778.183 413.995C778.905 410.438 779.284 406.761 779.284 403C779.284 372.624 754.659 348 724.284 348C693.908 348 669.284 372.624 669.284 403C669.284 433.376 693.908 458 724.284 458C737.816 458 750.218 453.107 759.797 444.999L763.803 441.608L760.223 437.771L746.551 423.119L743.405 419.748L739.791 422.611C735.528 425.987 730.148 428 724.284 428C716.109 428 708.844 424.075 704.28 418H773.283ZM704.28 388C708.844 381.925 716.109 378 724.284 378C732.458 378 739.723 381.925 744.287 388H704.28Z" fill="white" stroke="white" stroke-width="10"/>
</svg>
